<svg xmlns="http://www.w3.org/2000/svg" xmlns:xlink="http://www.w3.org/1999/xlink" width="235" height="81" viewBox="0 0 235 81">
  <defs>
    <clipPath id="clip-Artboard_1">
      <rect width="235" height="81"/>
    </clipPath>
  </defs>
  <g id="Artboard_1" data-name="Artboard – 1" clip-path="url(#clip-Artboard_1)">
    <text id="Express-A" transform="translate(107.911 49.5)" font-size="41" font-family="AdobeArabic-Regular, Adobe Arabic"><tspan x="0" y="0">Express-A</tspan></text>
    <g id="Group_43" data-name="Group 43" transform="translate(6431.278 -3296.337) rotate(45)">
      <path id="Path_35" data-name="Path 35" d="M36,0A36,36,0,1,1,0,36,36,36,0,0,1,36,0Z" transform="translate(-2198 6845)" fill="#e51e20"/>
      <g id="Group_42" data-name="Group 42" transform="translate(-1 0)">
        <circle id="Ellipse_6" data-name="Ellipse 6" cx="3" cy="3" r="3" transform="translate(-2184 6858)" fill="#fff" opacity="0.328"/>
        <circle id="Ellipse_6-2" data-name="Ellipse 6" cx="3" cy="3" r="3" transform="translate(-2176 6858)" fill="#fff" opacity="0.328"/>
        <circle id="Ellipse_6-3" data-name="Ellipse 6" cx="3" cy="3" r="3" transform="translate(-2168 6858)" fill="#fff" opacity="0.328"/>
        <circle id="Ellipse_6-4" data-name="Ellipse 6" cx="3" cy="3" r="3" transform="translate(-2160 6858)" fill="#fff" opacity="0.328"/>
        <circle id="Ellipse_6-5" data-name="Ellipse 6" cx="3" cy="3" r="3" transform="translate(-2152 6858)" fill="#fff" opacity="0.328"/>
        <circle id="Ellipse_6-6" data-name="Ellipse 6" cx="3" cy="3" r="3" transform="translate(-2144 6858)" fill="#fff" opacity="0.328"/>
        <circle id="Ellipse_6-7" data-name="Ellipse 6" cx="3" cy="3" r="3" transform="translate(-2184 6866)" fill="#fff" opacity="0.328"/>
        <circle id="Ellipse_6-8" data-name="Ellipse 6" cx="3" cy="3" r="3" transform="translate(-2176 6866)" fill="#fff" opacity="0.66"/>
        <circle id="Ellipse_6-9" data-name="Ellipse 6" cx="3" cy="3" r="3" transform="translate(-2168 6866)" fill="#fff" opacity="0.66"/>
        <circle id="Ellipse_6-10" data-name="Ellipse 6" cx="3" cy="3" r="3" transform="translate(-2160 6866)" fill="#fff" opacity="0.66"/>
        <circle id="Ellipse_6-11" data-name="Ellipse 6" cx="3" cy="3" r="3" transform="translate(-2152 6866)" fill="#fff" opacity="0.66"/>
        <circle id="Ellipse_6-12" data-name="Ellipse 6" cx="3" cy="3" r="3" transform="translate(-2144 6866)" fill="#fff" opacity="0.328"/>
        <circle id="Ellipse_6-13" data-name="Ellipse 6" cx="3" cy="3" r="3" transform="translate(-2184 6874)" fill="#fff" opacity="0.328"/>
        <circle id="Ellipse_6-14" data-name="Ellipse 6" cx="3" cy="3" r="3" transform="translate(-2176 6874)" fill="#fff" opacity="0.66"/>
        <circle id="Ellipse_6-15" data-name="Ellipse 6" cx="3" cy="3" r="3" transform="translate(-2168 6874)" fill="#fff"/>
        <circle id="Ellipse_6-16" data-name="Ellipse 6" cx="3" cy="3" r="3" transform="translate(-2160 6874)" fill="#fff"/>
        <circle id="Ellipse_6-17" data-name="Ellipse 6" cx="3" cy="3" r="3" transform="translate(-2152 6874)" fill="#fff" opacity="0.66"/>
        <circle id="Ellipse_6-18" data-name="Ellipse 6" cx="3" cy="3" r="3" transform="translate(-2144 6874)" fill="#fff" opacity="0.328"/>
        <circle id="Ellipse_6-19" data-name="Ellipse 6" cx="3" cy="3" r="3" transform="translate(-2184 6882)" fill="#fff" opacity="0.328"/>
        <circle id="Ellipse_6-20" data-name="Ellipse 6" cx="3" cy="3" r="3" transform="translate(-2176 6882)" fill="#fff" opacity="0.66"/>
        <circle id="Ellipse_6-21" data-name="Ellipse 6" cx="3" cy="3" r="3" transform="translate(-2168 6882)" fill="#fff"/>
        <circle id="Ellipse_6-22" data-name="Ellipse 6" cx="3" cy="3" r="3" transform="translate(-2160 6882)" fill="#fff"/>
        <circle id="Ellipse_6-23" data-name="Ellipse 6" cx="3" cy="3" r="3" transform="translate(-2152 6882)" fill="#fff" opacity="0.66"/>
        <circle id="Ellipse_6-24" data-name="Ellipse 6" cx="3" cy="3" r="3" transform="translate(-2144 6882)" fill="#fff" opacity="0.328"/>
        <circle id="Ellipse_6-25" data-name="Ellipse 6" cx="3" cy="3" r="3" transform="translate(-2184 6890)" fill="#fff" opacity="0.328"/>
        <circle id="Ellipse_6-26" data-name="Ellipse 6" cx="3" cy="3" r="3" transform="translate(-2176 6890)" fill="#fff" opacity="0.66"/>
        <circle id="Ellipse_6-27" data-name="Ellipse 6" cx="3" cy="3" r="3" transform="translate(-2168 6890)" fill="#fff" opacity="0.66"/>
        <circle id="Ellipse_6-28" data-name="Ellipse 6" cx="3" cy="3" r="3" transform="translate(-2160 6890)" fill="#fff" opacity="0.66"/>
        <circle id="Ellipse_6-29" data-name="Ellipse 6" cx="3" cy="3" r="3" transform="translate(-2152 6890)" fill="#fff" opacity="0.66"/>
        <circle id="Ellipse_6-30" data-name="Ellipse 6" cx="3" cy="3" r="3" transform="translate(-2144 6890)" fill="#fff" opacity="0.328"/>
        <circle id="Ellipse_6-31" data-name="Ellipse 6" cx="3" cy="3" r="3" transform="translate(-2184 6898)" fill="#fff" opacity="0.328"/>
        <circle id="Ellipse_6-32" data-name="Ellipse 6" cx="3" cy="3" r="3" transform="translate(-2176 6898)" fill="#fff" opacity="0.328"/>
        <circle id="Ellipse_6-33" data-name="Ellipse 6" cx="3" cy="3" r="3" transform="translate(-2168 6898)" fill="#fff" opacity="0.328"/>
        <circle id="Ellipse_6-34" data-name="Ellipse 6" cx="3" cy="3" r="3" transform="translate(-2160 6898)" fill="#fff" opacity="0.328"/>
        <circle id="Ellipse_6-35" data-name="Ellipse 6" cx="3" cy="3" r="3" transform="translate(-2152 6898)" fill="#fff" opacity="0.328"/>
        <circle id="Ellipse_6-36" data-name="Ellipse 6" cx="3" cy="3" r="3" transform="translate(-2144 6898)" fill="#fff" opacity="0.328"/>
      </g>
    </g>
  </g>
</svg>
