<svg id="bc0b1d09-18be-4440-8223-80e70c99eb10" data-name="Layer 1" xmlns="http://www.w3.org/2000/svg" width="2038.55" height="1065.9" viewBox="0 0 2038.55 1065.9"><rect x="196.41" y="326.14" width="413.62" height="413.62" fill="#e52620"/><circle id="bbafc1d6-0a47-409d-abda-dbc1d5bb1814" data-name="Ellipse 1-38" cx="488.95" cy="479.92" r="11.52" fill="#fff" opacity="0.51" style="isolation:isolate"/><circle id="f71bd9b6-a19a-4d88-8c15-0c8afdd6c95b" data-name="Ellipse 1-45" cx="420.45" cy="516.44" r="13.25" fill="#fff"/><circle id="ec07e100-934f-49ce-b2f2-5026f3e20841" data-name="Ellipse 1-46" cx="420.45" cy="551.37" r="13.25" fill="#fff"/><circle id="e5cb7db4-3763-4026-b000-acc27a8edcb7" data-name="Ellipse 1-55" cx="385.91" cy="516.44" r="13.25" fill="#fff"/><circle id="ee3feaca-b98a-4c40-b29b-01fa9dfe46a7" data-name="Ellipse 1-56" cx="385.91" cy="551.37" r="13.25" fill="#fff"/><circle id="b5d53480-dc9b-43cc-8f9f-ed1bf09ba753" data-name="Ellipse 1-34" cx="351.19" cy="479.92" r="13.16" fill="#fff" opacity="0.67" style="isolation:isolate"/><circle id="b86c2da1-5a40-4772-955c-52adce6623b3" data-name="Ellipse 1-35" cx="385.71" cy="479.92" r="13.16" fill="#fff" opacity="0.67" style="isolation:isolate"/><circle id="aa1d4cf9-8f68-47be-89fd-37bf28d2e130" data-name="Ellipse 1-36" cx="420.65" cy="479.92" r="13.16" fill="#fff" opacity="0.67" style="isolation:isolate"/><circle id="b8407aee-d44e-462d-a931-070eaef7a79a" data-name="Ellipse 1-37" cx="455.25" cy="479.92" r="13.16" fill="#fff" opacity="0.67" style="isolation:isolate"/><circle id="b16e914e-d8c2-4311-b6c0-0a934314ce99" data-name="Ellipse 1-44" cx="351.19" cy="515.64" r="13.16" fill="#fff" opacity="0.67" style="isolation:isolate"/><circle id="bcad62fe-97fd-4880-95c9-621853519a7f" data-name="Ellipse 1-47" cx="455.25" cy="515.64" r="13.16" fill="#fff" opacity="0.67" style="isolation:isolate"/><circle id="bd11df99-58fb-427c-894c-ccfde78fb331" data-name="Ellipse 1-54" cx="351.19" cy="552.18" r="13.16" fill="#fff" opacity="0.67" style="isolation:isolate"/><circle id="a556d548-07c2-4b00-878b-c7d928571662" data-name="Ellipse 1-57" cx="455.25" cy="552.18" r="13.16" fill="#fff" opacity="0.67" style="isolation:isolate"/><circle id="ad449fc7-4f16-46b9-828a-8a19bf304798" data-name="Ellipse 1-64" cx="351.19" cy="587.89" r="13.16" fill="#fff" opacity="0.67" style="isolation:isolate"/><circle id="f2ebb6b8-0b83-4cec-8827-da2b6afe538a" data-name="Ellipse 1-65" cx="385.71" cy="587.89" r="13.16" fill="#fff" opacity="0.67" style="isolation:isolate"/><circle id="bd61446b-633b-4f4f-9660-f6208ac7f137" data-name="Ellipse 1-66" cx="420.65" cy="587.89" r="13.16" fill="#fff" opacity="0.67" style="isolation:isolate"/><circle id="bf7e3e7f-99ed-4e55-ab93-ebf1656c9300" data-name="Ellipse 1-67" cx="455.25" cy="587.89" r="13.16" fill="#fff" opacity="0.67" style="isolation:isolate"/><circle id="b434be51-f680-4100-ba0a-1a548ddebea8" data-name="Ellipse 1-23" cx="317.41" cy="446.68" r="11.52" fill="#fff" opacity="0.51" style="isolation:isolate"/><circle id="bf80d6cd-d2c5-415c-9032-b5f682ef94e9" data-name="Ellipse 1-24" cx="351.19" cy="446.68" r="11.52" fill="#fff" opacity="0.51" style="isolation:isolate"/><circle id="ec283daa-7461-46b3-bb52-b4adc17f33d1" data-name="Ellipse 1-25" cx="385.71" cy="446.68" r="11.52" fill="#fff" opacity="0.51" style="isolation:isolate"/><circle id="f2a5e417-650f-41cc-97be-3d6b73ca8a9d" data-name="Ellipse 1-26" cx="420.65" cy="446.68" r="11.52" fill="#fff" opacity="0.51" style="isolation:isolate"/><circle id="a96c635a-736a-4820-bacd-f85ea53fcc92" data-name="Ellipse 1-27" cx="455.25" cy="446.68" r="11.52" fill="#fff" opacity="0.51" style="isolation:isolate"/><circle id="e418726e-cbdb-47cd-ba47-ef3572465469" data-name="Ellipse 1-28" cx="488.95" cy="446.68" r="11.52" fill="#fff" opacity="0.51" style="isolation:isolate"/><circle id="ee800976-1a0a-4c68-bfb2-4d6fc2bf8d58" data-name="Ellipse 1-33" cx="317.41" cy="479.92" r="11.52" fill="#fff" opacity="0.51" style="isolation:isolate"/><circle id="a29e054f-60f2-4b8e-beac-a89c692681b6" data-name="Ellipse 1-43" cx="317.41" cy="515.64" r="11.52" fill="#fff" opacity="0.51" style="isolation:isolate"/><circle id="b524fd1e-04eb-40c6-9fbd-af24ccf3c5f1" data-name="Ellipse 1-48" cx="488.95" cy="515.64" r="11.52" fill="#fff" opacity="0.51" style="isolation:isolate"/><circle id="bed8d7a6-a716-4090-b7a7-a97255747515" data-name="Ellipse 1-53" cx="317.41" cy="552.18" r="11.52" fill="#fff" opacity="0.51" style="isolation:isolate"/><circle id="fb79aeaa-9896-43e3-87a3-f01e36a0746b" data-name="Ellipse 1-58" cx="488.95" cy="552.18" r="11.52" fill="#fff" opacity="0.51" style="isolation:isolate"/><circle id="fca3830b-d02a-4d9c-8185-4ce9c891a9d9" data-name="Ellipse 1-63" cx="317.41" cy="587.89" r="11.52" fill="#fff" opacity="0.51" style="isolation:isolate"/><circle id="bf6900e3-00eb-45cb-ab9b-531d47e4c4e7" data-name="Ellipse 1-68" cx="488.95" cy="587.89" r="11.52" fill="#fff" opacity="0.51" style="isolation:isolate"/><circle id="a19a16eb-0d65-434c-828b-2fe8bfc247f4" data-name="Ellipse 1-73" cx="317.41" cy="621.14" r="11.52" fill="#fff" opacity="0.51" style="isolation:isolate"/><circle id="bc497a18-3004-44bd-b24f-32bfcdfd859c" data-name="Ellipse 1-74" cx="351.19" cy="621.14" r="11.52" fill="#fff" opacity="0.51" style="isolation:isolate"/><circle id="e7140108-c1e2-45ee-a608-2212fbf2e0cd" data-name="Ellipse 1-75" cx="385.71" cy="621.14" r="11.52" fill="#fff" opacity="0.51" style="isolation:isolate"/><circle id="a128976d-a62d-472a-89a4-a9ef7d8e3f99" data-name="Ellipse 1-76" cx="420.65" cy="621.14" r="11.52" fill="#fff" opacity="0.51" style="isolation:isolate"/><circle id="edf11a70-5512-490d-ad6a-ecf98754f082" data-name="Ellipse 1-77" cx="455.25" cy="621.14" r="11.52" fill="#fff" opacity="0.51" style="isolation:isolate"/><circle id="f06f477b-9848-4309-a146-8f35efcd57a1" data-name="Ellipse 1-78" cx="488.95" cy="621.14" r="11.52" fill="#fff" opacity="0.51" style="isolation:isolate"/><circle id="e06cb186-2097-4e49-8c0f-5542f388623c" data-name="Ellipse 1-12" cx="284.87" cy="415.21" r="10.7" fill="#fff" opacity="0.47" style="isolation:isolate"/><circle id="f88b00ce-ecc2-4fbb-99d7-f7af3e01c516" data-name="Ellipse 1-13" cx="317.41" cy="415.21" r="10.7" fill="#fff" opacity="0.47" style="isolation:isolate"/><circle id="a1861da4-8261-4662-ad24-a5925087c62d" data-name="Ellipse 1-14" cx="351.19" cy="415.21" r="10.7" fill="#fff" opacity="0.47" style="isolation:isolate"/><circle id="ba9b44e9-537f-4cf7-bf74-ef80ea7a5ca2" data-name="Ellipse 1-15" cx="385.71" cy="415.21" r="10.7" fill="#fff" opacity="0.47" style="isolation:isolate"/><circle id="f3331013-a939-4d82-8399-9fc86a4416c4" data-name="Ellipse 1-16" cx="420.65" cy="415.21" r="10.7" fill="#fff" opacity="0.47" style="isolation:isolate"/><circle id="b5f195b6-8651-4dfe-92e3-30673e781291" data-name="Ellipse 1-17" cx="455.25" cy="415.21" r="10.7" fill="#fff" opacity="0.47" style="isolation:isolate"/><circle id="e0356e49-b99e-47ae-afb8-bf5117eec5b4" data-name="Ellipse 1-18" cx="488.95" cy="415.21" r="10.7" fill="#fff" opacity="0.47" style="isolation:isolate"/><circle id="aa2defaa-6c5f-4e1e-bca3-755b5e487a85" data-name="Ellipse 1-19" cx="521.49" cy="415.21" r="10.7" fill="#fff" opacity="0.47" style="isolation:isolate"/><circle id="ecf05cb9-dca5-4523-8b7b-5ada2903360e" data-name="Ellipse 1-22" cx="284.87" cy="446.68" r="10.7" fill="#fff" opacity="0.47" style="isolation:isolate"/><circle id="fc256a2d-9064-4ab3-a7ff-6a8d351fba1e" data-name="Ellipse 1-29" cx="521.49" cy="446.68" r="10.7" fill="#fff" opacity="0.47" style="isolation:isolate"/><circle id="e94f63c7-edb6-4b6f-b8e6-9498d114e1e9" data-name="Ellipse 1-32" cx="284.87" cy="479.92" r="10.7" fill="#fff" opacity="0.47" style="isolation:isolate"/><circle id="bbfecafa-915e-460c-9578-729315d99e90" data-name="Ellipse 1-39" cx="521.49" cy="479.92" r="10.7" fill="#fff" opacity="0.47" style="isolation:isolate"/><circle id="fecbc56d-a3ae-49b7-ab48-48655f7b1152" data-name="Ellipse 1-42" cx="284.87" cy="515.64" r="10.7" fill="#fff" opacity="0.47" style="isolation:isolate"/><circle id="bd11ca2f-eee1-43dd-bb21-037e7a5b7878" data-name="Ellipse 1-49" cx="521.49" cy="515.64" r="10.7" fill="#fff" opacity="0.47" style="isolation:isolate"/><circle id="b00b783a-5505-4a8e-9e40-64dcc7c9608b" data-name="Ellipse 1-52" cx="284.87" cy="552.18" r="10.7" fill="#fff" opacity="0.47" style="isolation:isolate"/><circle id="afe6d38b-9ab7-4d4b-bc40-3f801830a27d" data-name="Ellipse 1-59" cx="521.49" cy="552.18" r="10.7" fill="#fff" opacity="0.47" style="isolation:isolate"/><circle id="adacdbee-5614-4914-8c77-e404637df026" data-name="Ellipse 1-62" cx="284.87" cy="587.89" r="10.7" fill="#fff" opacity="0.47" style="isolation:isolate"/><circle id="b92d3bae-048a-464c-bdfc-dd32bd180ecc" data-name="Ellipse 1-69" cx="521.49" cy="587.89" r="10.7" fill="#fff" opacity="0.47" style="isolation:isolate"/><circle id="bb07b768-d291-4883-a0f7-23042e47548c" data-name="Ellipse 1-72" cx="284.87" cy="621.14" r="10.7" fill="#fff" opacity="0.47" style="isolation:isolate"/><circle id="f9aadc95-baab-465f-8e29-492ec5e10086" data-name="Ellipse 1-79" cx="521.49" cy="621.14" r="10.7" fill="#fff" opacity="0.47" style="isolation:isolate"/><circle id="b26ac7d5-7f44-420e-8599-7aad1a0a1666" data-name="Ellipse 1-82" cx="284.87" cy="651.92" r="10.7" fill="#fff" opacity="0.47" style="isolation:isolate"/><circle id="a74e9eaa-923e-44c9-a1b4-dab41a1ae3e2" data-name="Ellipse 1-83" cx="317.41" cy="651.92" r="10.7" fill="#fff" opacity="0.47" style="isolation:isolate"/><circle id="e991db59-a642-4748-9c2b-c30ac1d174a3" data-name="Ellipse 1-84" cx="351.19" cy="651.92" r="10.7" fill="#fff" opacity="0.47" style="isolation:isolate"/><circle id="b0c931ba-fef6-4037-975a-ad1e60dea172" data-name="Ellipse 1-85" cx="385.71" cy="651.92" r="10.7" fill="#fff" opacity="0.47" style="isolation:isolate"/><circle id="bc4bf9c6-8134-4357-a228-cf5b01bbc4fd" data-name="Ellipse 1-86" cx="420.65" cy="651.92" r="10.7" fill="#fff" opacity="0.47" style="isolation:isolate"/><circle id="ff797afd-4e2d-4db0-85ca-ffca1e2fec88" data-name="Ellipse 1-87" cx="455.25" cy="651.92" r="10.7" fill="#fff" opacity="0.47" style="isolation:isolate"/><circle id="b509ca67-32ec-4acc-ab30-73a25c0f6ec6" data-name="Ellipse 1-88" cx="488.95" cy="651.92" r="10.7" fill="#fff" opacity="0.47" style="isolation:isolate"/><circle id="a2d41277-7127-439b-a45f-64011d866d3f" data-name="Ellipse 1-89" cx="521.49" cy="651.92" r="10.7" fill="#fff" opacity="0.47" style="isolation:isolate"/><circle id="fd6470b1-e1c0-4956-b292-476752a72342" data-name="Ellipse 1" cx="253.47" cy="384.85" r="9.87" fill="#fff" opacity="0.23" style="isolation:isolate"/><circle id="a85aa51b-ebc2-4a11-a6fe-373153c175df" data-name="Ellipse 1-2" cx="284.87" cy="384.85" r="9.87" fill="#fff" opacity="0.23" style="isolation:isolate"/><circle id="f120cc15-0391-4e3a-a6e7-d59ea8b7d857" data-name="Ellipse 1-3" cx="317.41" cy="384.85" r="9.87" fill="#fff" opacity="0.23" style="isolation:isolate"/><circle id="ee86f35f-72ed-4bb3-b5d6-501b83ac2c87" data-name="Ellipse 1-4" cx="351.19" cy="384.85" r="9.87" fill="#fff" opacity="0.23" style="isolation:isolate"/><circle id="aa746aa6-76d4-479d-89d6-424283671571" data-name="Ellipse 1-5" cx="385.71" cy="384.85" r="9.87" fill="#fff" opacity="0.23" style="isolation:isolate"/><circle id="ab2f2762-e159-4e9a-8e4c-cb24a51b7811" data-name="Ellipse 1-6" cx="420.65" cy="384.85" r="9.87" fill="#fff" opacity="0.23" style="isolation:isolate"/><circle id="b5a6c2c3-6fd4-465a-89ec-9d3b27a4161e" data-name="Ellipse 1-7" cx="455.25" cy="384.85" r="9.87" fill="#fff" opacity="0.23" style="isolation:isolate"/><circle id="e02a77dc-f464-42d4-b4c5-d2170b1e2bb0" data-name="Ellipse 1-8" cx="488.95" cy="384.85" r="9.87" fill="#fff" opacity="0.23" style="isolation:isolate"/><circle id="b366dd3f-bcd1-49cd-bc3a-189fb5255497" data-name="Ellipse 1-9" cx="521.49" cy="384.85" r="9.87" fill="#fff" opacity="0.23" style="isolation:isolate"/><circle id="ba16658c-dd6b-40da-94e6-e6d47b81d271" data-name="Ellipse 1-11" cx="253.47" cy="415.21" r="9.87" fill="#fff" opacity="0.23" style="isolation:isolate"/><circle id="f7b922c4-85fb-4366-ad92-71e0673c09c6" data-name="Ellipse 1-20" cx="552.97" cy="415.21" r="9.87" fill="#fff" opacity="0.23" style="isolation:isolate"/><circle id="fc3f82ec-3066-4b2e-a375-843445a7619b" data-name="Ellipse 1-21" cx="253.47" cy="446.68" r="9.87" fill="#fff" opacity="0.23" style="isolation:isolate"/><circle id="b23909f5-055a-47b2-b0c8-f4523133372c" data-name="Ellipse 1-30" cx="552.97" cy="446.68" r="9.87" fill="#fff" opacity="0.23" style="isolation:isolate"/><circle id="a26cf1b2-cca3-4558-8d7f-fbd1cad4f2f4" data-name="Ellipse 1-31" cx="253.47" cy="479.92" r="9.87" fill="#fff" opacity="0.23" style="isolation:isolate"/><circle id="aed28888-dbf7-410a-8795-be1f33559d3d" data-name="Ellipse 1-40" cx="552.97" cy="479.92" r="9.87" fill="#fff" opacity="0.23" style="isolation:isolate"/><circle id="b98bd632-2c18-49f3-8f92-033168f042c8" data-name="Ellipse 1-41" cx="253.47" cy="515.64" r="9.87" fill="#fff" opacity="0.23" style="isolation:isolate"/><circle id="ab042866-3de8-4d47-9924-38356c2afddf" data-name="Ellipse 1-50" cx="552.97" cy="515.64" r="9.87" fill="#fff" opacity="0.23" style="isolation:isolate"/><circle id="be93fe84-3f35-49e5-8f0b-e6a14cbe1939" data-name="Ellipse 1-51" cx="253.47" cy="552.18" r="9.87" fill="#fff" opacity="0.23" style="isolation:isolate"/><circle id="b9ea4b04-d621-475b-bd7b-2c3a64574111" data-name="Ellipse 1-60" cx="552.97" cy="552.18" r="9.87" fill="#fff" opacity="0.23" style="isolation:isolate"/><circle id="bf5f6efd-aaed-4109-9bcd-631eebaa7c0a" data-name="Ellipse 1-61" cx="253.47" cy="587.89" r="9.87" fill="#fff" opacity="0.23" style="isolation:isolate"/><circle id="fc313aee-fae6-4e94-912c-c7df83bbfd5b" data-name="Ellipse 1-70" cx="552.97" cy="587.89" r="9.87" fill="#fff" opacity="0.23" style="isolation:isolate"/><circle id="e3635879-6578-4a1b-9110-7339a192c2a8" data-name="Ellipse 1-71" cx="253.47" cy="621.14" r="9.87" fill="#fff" opacity="0.23" style="isolation:isolate"/><circle id="b0fcd4d7-849c-4322-854f-49f10d1ad99f" data-name="Ellipse 1-80" cx="552.97" cy="621.14" r="9.87" fill="#fff" opacity="0.23" style="isolation:isolate"/><circle id="ed695cf2-5dc6-4462-b787-b42eabfd2f57" data-name="Ellipse 1-81" cx="253.47" cy="651.92" r="9.87" fill="#fff" opacity="0.23" style="isolation:isolate"/><circle id="ef1b2e8e-8532-403a-9d3b-5e08143aa9b4" data-name="Ellipse 1-90" cx="552.97" cy="651.92" r="9.87" fill="#fff" opacity="0.23" style="isolation:isolate"/><circle id="faec9041-99e0-4f2b-a1e7-497f8fc68bc5" data-name="Ellipse 1-91" cx="253.47" cy="681.05" r="9.87" fill="#fff" opacity="0.23" style="isolation:isolate"/><circle id="ae85a79c-da8b-4508-a3ca-5874181d38aa" data-name="Ellipse 1-92" cx="284.87" cy="681.05" r="9.87" fill="#fff" opacity="0.23" style="isolation:isolate"/><circle id="e66284d2-53b1-4cdf-ba5a-4a7360807a16" data-name="Ellipse 1-93" cx="317.41" cy="681.05" r="9.87" fill="#fff" opacity="0.23" style="isolation:isolate"/><circle id="e894b30b-2650-46fb-803a-2f1f7bbee84c" data-name="Ellipse 1-94" cx="351.19" cy="681.05" r="9.87" fill="#fff" opacity="0.23" style="isolation:isolate"/><circle id="adec65cb-ed85-4995-8170-e087272057e0" data-name="Ellipse 1-95" cx="385.71" cy="681.05" r="9.87" fill="#fff" opacity="0.23" style="isolation:isolate"/><circle id="abc6d422-e169-49a6-947c-40e6bf434e66" data-name="Ellipse 1-96" cx="420.65" cy="681.05" r="9.87" fill="#fff" opacity="0.23" style="isolation:isolate"/><circle id="fecc100c-2b26-4954-85d5-c81e1f3b261a" data-name="Ellipse 1-97" cx="455.25" cy="681.05" r="9.87" fill="#fff" opacity="0.23" style="isolation:isolate"/><circle id="b571173a-81b7-49c8-aae4-58308af59c44" data-name="Ellipse 1-98" cx="488.95" cy="681.05" r="9.87" fill="#fff" opacity="0.23" style="isolation:isolate"/><circle id="a38e6b3a-c5fa-4d4e-9583-603ac8ffb7b0" data-name="Ellipse 1-99" cx="521.49" cy="681.05" r="9.87" fill="#fff" opacity="0.23" style="isolation:isolate"/><circle id="b36b9b6b-76f2-4d12-af73-7b4622ad3e7a" data-name="Ellipse 1-100" cx="552.97" cy="681.05" r="9.87" fill="#fff" opacity="0.23" style="isolation:isolate"/><circle id="b9ec61af-dc1b-47ae-b25e-ecdddb6eac29" data-name="Ellipse 1-10" cx="552.97" cy="384.85" r="9.87" fill="#fff" opacity="0.23" style="isolation:isolate"/><path d="M750,679.73v-3.81c11.08-.82,12.26-1.64,12.26-13.08v-52.4c0-11.54-1.18-12.36-12.26-13.08v-4h37.06v4c-11,.72-12.17,1.54-12.17,13.08v52.4c0,11.44,1.18,12.26,12.17,13.08v3.81Z" fill="#1d1d1b"/><path d="M929.85,597.36c-7.53.36-10.8,1.9-11.44,8a213.55,213.55,0,0,0-.82,22.61v53.13h-4.36l-59.66-69.2h-.19l-.09,32.42a218,218,0,0,0,.91,22.34c.64,6.91,3.72,8.54,13.08,9.27v3.81H834.77v-3.81c7.81-.55,11.26-2.27,11.89-8.9.55-4.18,1.09-10.45,1.09-22.71V615.79c0-9.71-.45-10.44-2.9-13.62-2.82-3.27-5.73-4.36-12.08-4.81v-4h20.89l57.85,65.57h.36V628A209.13,209.13,0,0,0,911,605.8c-.63-6.26-3.81-8-13.53-8.44v-4h32.42Z" fill="#1d1d1b"/><path d="M1022.42,614.16c-2.36-8.54-6.54-18.16-18-18.16-10.18,0-15,7.17-15,14.44,0,9.35,6.27,13.89,17.35,19.25,11.53,5.63,23.52,11.9,23.52,26.52,0,14.26-12.17,25.61-30.7,25.61A41.82,41.82,0,0,1,986,679.64a42.94,42.94,0,0,1-6.72-2.82c-.91-2.63-2.91-14.71-3.72-21.16l4.08-1.18c2.27,8.45,8.9,22.34,22.8,22.34,9.9,0,15.71-6.08,15.71-15.62s-7.27-14.16-17.62-19.61c-9.44-4.73-22.43-11.36-22.43-26,0-13.26,10.71-24.25,28.42-24.25a58.08,58.08,0,0,1,17.62,3.18c.55,4.72,1.18,10.17,2.37,18.89Z" fill="#1d1d1b"/><path d="M1150.49,614.79c-1.45-6.63-2.9-10.17-4.63-12.44-2.27-3.09-4.63-4.08-15-4.08h-9.27V663c0,10.54,1.18,12.08,14.08,12.9v3.81h-40.23v-3.81c12.44-.82,13.62-2.27,13.62-12.9V598.27h-7.9c-11.81,0-14.62,1.27-16.44,4.08-1.73,2.27-2.91,6.18-4.63,12.44H1076c.64-8.62,1.27-17.43,1.54-24.79h2.91c2,3.36,3.72,3.36,7.72,3.36h55c3.72,0,5-.82,7.08-3.36h2.91c0,6.09.72,16.35,1.36,24.34Z" fill="#1d1d1b"/><path d="M1200.28,679.73v-3.81c11.08-.82,12.26-1.64,12.26-13.08v-52.4c0-11.54-1.18-12.36-12.26-13.08v-4h37.06v4c-11,.72-12.17,1.54-12.17,13.08v52.4c0,11.44,1.18,12.26,12.17,13.08v3.81Z" fill="#1d1d1b"/><path d="M1357.51,614.79c-1.45-6.63-2.91-10.17-4.63-12.44-2.27-3.09-4.63-4.08-15-4.08h-9.26V663c0,10.54,1.18,12.08,14.08,12.9v3.81h-40.24v-3.81c12.44-.82,13.62-2.27,13.62-12.9V598.27h-7.9c-11.8,0-14.62,1.27-16.43,4.08-1.73,2.27-2.91,6.18-4.64,12.44H1283c.63-8.62,1.27-17.43,1.54-24.79h2.91c2,3.36,3.72,3.36,7.72,3.36h55c3.73,0,5-.82,7.09-3.36h2.9c0,6.09.73,16.35,1.37,24.34Z" fill="#1d1d1b"/><path d="M1502,597.36c-7.9.45-11.35,2.45-11.9,7.9a200.08,200.08,0,0,0-.81,21.07v10.44c0,15.72-2.55,27.25-10.45,35.42-6.35,6.45-15.62,9.36-25,9.36-8.36,0-16.26-1.82-22.34-6.45-8.36-6.18-12.36-16.26-12.36-32.24v-31.7c0-12.26-1.18-12.89-11.89-13.8v-4h36.42v4c-10.63.63-11.81,1.45-11.81,13.8v29c0,21.89,9.17,33.88,25.7,33.88,19.26,0,25.88-15.44,25.88-37.51V626.33c0-12-.36-17.26-1.08-21.43-.73-5.09-3.82-6.91-13.17-7.54v-4H1502Z" fill="#1d1d1b"/><path d="M1622.2,614.79c-1.46-6.63-2.91-10.17-4.64-12.44-2.27-3.09-4.63-4.08-15-4.08h-9.27V663c0,10.54,1.19,12.08,14.08,12.9v3.81h-40.23v-3.81c12.44-.82,13.62-2.27,13.62-12.9V598.27h-7.9c-11.81,0-14.62,1.27-16.44,4.08-1.72,2.27-2.9,6.18-4.63,12.44h-4.09c.64-8.62,1.27-17.43,1.55-24.79h2.9c2,3.36,3.73,3.36,7.72,3.36h55c3.72,0,5-.82,7.08-3.36h2.91c0,6.09.73,16.35,1.36,24.34Z" fill="#1d1d1b"/><path d="M1743.37,658.21c-.91,5-3.54,17.25-4.72,21.52H1672v-3.81c12.26-.91,13.44-2.18,13.44-13.08v-52c0-12.17-1.18-12.53-11.71-13.44v-4h61.58c.18,3.45.72,12.26,1.27,19.71l-4.18.54a36.8,36.8,0,0,0-4.45-11.53c-2-2.91-5.72-3.81-15.08-3.81h-10.08c-4.45,0-4.72.36-4.72,4.35v29.79h12.44c12.17,0,13.08-1.09,14.81-10.08h4.08V648.4h-4.08c-1.91-9.72-2.91-10.45-14.81-10.45h-12.44v24.43c0,6.27.73,9.27,3.27,10.9s7.72,1.55,13.89,1.55c9.9,0,14-.91,17.08-4.36a46.15,46.15,0,0,0,6.9-12.81Z" fill="#1d1d1b"/><path d="M897,498c-3.16,11-9.63,29.18-13.73,36.6-6.94,1.58-27.76,6.62-45.27,6.62-60.89,0-88-40.22-88-76.66,0-48.59,39.28-80.45,94-80.45,20.19,0,37.23,5.52,43.86,6.62,1.89,13.1,3.62,23,5,36.13l-7.09,1.57c-6.47-25.55-22.25-35.65-48-35.65-40.23,0-61.68,32.5-61.68,66.89,0,43.54,26.66,72.56,63.73,72.56,24.45,0,37.86-13.09,50.32-36.91Z" fill="#1d1d1b"/><path d="M1003.94,537.57v-6.63c14.67-2.05,16.72-4.1,13.56-13.41-3.31-9.15-7.57-20.66-12.62-33.91H954.25c-4,10.57-7.1,19.56-10.1,28.71-5,14-3.15,16.72,14.67,18.61v6.63H906.77v-6.63c15.3-2.37,18.61-3.94,27-24.45l49.53-120.36,8.21-2.05c15.14,40.85,30.28,81.87,45.9,122.41,7.57,20.35,10.88,22.87,26.19,24.45v6.63ZM980.75,415.79h-.47c-7.58,19.08-15,38.8-22.09,57.42h43.22Z" fill="#1d1d1b"/><path d="M1241.19,394.49c-13.09.63-18.77,3.31-19.88,13.88-.78,7.42-1.42,17.83-1.42,39.28v92.28h-7.57l-103.64-120.2h-.31l-.16,56.31c0,21.3,1,32.19,1.58,38.81,1.1,12,6.46,14.83,22.71,16.09v6.63H1076v-6.63c13.56-1,19.56-3.94,20.66-15.46,1-7.25,1.9-18.14,1.9-39.44V426.51c0-16.88-.79-18.14-5-23.66-4.89-5.68-9.94-7.57-21-8.36v-6.94h36.28l100.49,113.89h.63V447.65c0-21.45-1-31.86-1.58-38.49-1.11-10.88-6.63-13.88-23.51-14.67v-6.94h56.32Z" fill="#1d1d1b"/><path d="M1338.05,384.08c41.48,0,79,30.29,79,76.51,0,49.84-37.39,80.6-82.19,80.6-44.33,0-79.66-32.65-79.66-77.13,0-41.81,31.39-80,82.66-80Zm-5.21,8.67c-26.5,0-51.74,21.62-51.74,65.31,0,42.44,25.08,74.46,59,74.46,26.5,0,50.79-21.14,50.79-65.78,0-48.43-26.81-74-57.89-74Z" fill="#1d1d1b"/><path d="M1515,457c24.14,3.15,42.59,13.25,42.59,36.44,0,15.46-8.52,27.44-22.4,35-12.15,6.46-28.24,9.15-47,9.15H1434v-6.63c20.19-1.42,21.77-3,21.77-22.4V416.89c0-19.72-1.11-21.14-19.72-22.4v-6.94h62.47c18,0,28.23,2.68,36.12,8,8.2,5.52,13.25,15.62,13.25,26.35,0,21.92-19.09,30.92-32.81,34.23Zm-27.13-3c25.55,0,36.28-9.94,36.28-29,0-16.56-9.31-29.65-30.76-29.65-5.68,0-11,1.26-13.09,2.84-2.06,1.42-2.69,4.1-2.69,11.2V454Zm-10.26,54c0,17.19,4.58,21.61,19.41,21.45,18.45-.31,35.17-9.78,35.17-33.6,0-23.19-16.09-33.75-44.8-33.75h-9.78Z" fill="#1d1d1b"/><path d="M1664.43,384.08c41.48,0,79,30.29,79,76.51,0,49.84-37.39,80.6-82.19,80.6-44.33,0-79.66-32.65-79.66-77.13,0-41.81,31.39-80,82.66-80Zm-5.21,8.67c-26.5,0-51.74,21.62-51.74,65.31,0,42.44,25.08,74.46,59,74.46,26.5,0,50.79-21.14,50.79-65.78,0-48.43-26.82-74-57.89-74Z" fill="#1d1d1b"/></svg>