<svg id="bc58ebc2-66b7-4bad-a65b-2af9183fc14f" data-name="Layer 1" xmlns="http://www.w3.org/2000/svg" width="2038.55" height="1065.9" viewBox="0 0 2038.55 1065.9"><rect x="812.46" y="168.02" width="413.62" height="413.62" fill="#e52620"/><circle id="f87fad49-a3ad-4ad2-940e-16daea43ef77" data-name="Ellipse 1-38" cx="1105" cy="321.81" r="11.52" fill="#fff" opacity="0.51" style="isolation:isolate"/><circle id="b52661e3-7aeb-4114-b11c-c33503c48aab" data-name="Ellipse 1-45" cx="1036.5" cy="358.33" r="13.25" fill="#fff"/><circle id="addf7ccd-4aea-4a80-ae47-98dd723ddd4d" data-name="Ellipse 1-46" cx="1036.5" cy="393.26" r="13.25" fill="#fff"/><circle id="a22e02f8-6993-4a4d-a354-c1b2cabe7508" data-name="Ellipse 1-55" cx="1001.96" cy="358.33" r="13.25" fill="#fff"/><circle id="b4b96a48-3fff-4253-87b4-6ffcd81ed643" data-name="Ellipse 1-56" cx="1001.96" cy="393.26" r="13.25" fill="#fff"/><circle id="b1b22483-120b-4a2b-ab03-10a974f3d31f" data-name="Ellipse 1-34" cx="967.25" cy="321.81" r="13.16" fill="#fff" opacity="0.67" style="isolation:isolate"/><circle id="f684e017-346d-4201-94b7-24a31f30b555" data-name="Ellipse 1-35" cx="1001.77" cy="321.81" r="13.16" fill="#fff" opacity="0.67" style="isolation:isolate"/><circle id="e504aa11-43d3-4f66-adfc-74293352c8d7" data-name="Ellipse 1-36" cx="1036.7" cy="321.81" r="13.16" fill="#fff" opacity="0.67" style="isolation:isolate"/><circle id="fb909de4-ea4e-4043-8577-c4aab040edfc" data-name="Ellipse 1-37" cx="1071.3" cy="321.81" r="13.16" fill="#fff" opacity="0.67" style="isolation:isolate"/><circle id="b9c78930-a582-4cce-af3e-70091ae9449e" data-name="Ellipse 1-44" cx="967.25" cy="357.52" r="13.16" fill="#fff" opacity="0.67" style="isolation:isolate"/><circle id="aba960d2-405c-4492-9dfd-75d0c8ae455e" data-name="Ellipse 1-47" cx="1071.3" cy="357.52" r="13.16" fill="#fff" opacity="0.67" style="isolation:isolate"/><circle id="edf6b40f-72b6-41e3-9805-9327f7277c85" data-name="Ellipse 1-54" cx="967.25" cy="394.06" r="13.16" fill="#fff" opacity="0.67" style="isolation:isolate"/><circle id="afbcd0f1-c403-4b52-b4f2-fadcdf3cfe57" data-name="Ellipse 1-57" cx="1071.3" cy="394.06" r="13.16" fill="#fff" opacity="0.67" style="isolation:isolate"/><circle id="a43fc2c9-6ce1-4e2e-87dd-67f1ec20cbb0" data-name="Ellipse 1-64" cx="967.25" cy="429.78" r="13.16" fill="#fff" opacity="0.67" style="isolation:isolate"/><circle id="b90ed4c5-b0e4-40f7-ad5a-9999e27bc8e3" data-name="Ellipse 1-65" cx="1001.77" cy="429.78" r="13.16" fill="#fff" opacity="0.67" style="isolation:isolate"/><circle id="a4f36b4f-1ea3-420d-b3a2-802c05d91ab9" data-name="Ellipse 1-66" cx="1036.7" cy="429.78" r="13.16" fill="#fff" opacity="0.67" style="isolation:isolate"/><circle id="a704f2e0-a64b-4e05-a7e7-30c71750b937" data-name="Ellipse 1-67" cx="1071.3" cy="429.78" r="13.16" fill="#fff" opacity="0.67" style="isolation:isolate"/><circle id="b99e8030-a040-479d-b718-f8b6b6d6c968" data-name="Ellipse 1-23" cx="933.47" cy="288.56" r="11.52" fill="#fff" opacity="0.51" style="isolation:isolate"/><circle id="ea9ed7aa-ffae-438a-aab2-4a30e81df726" data-name="Ellipse 1-24" cx="967.25" cy="288.56" r="11.52" fill="#fff" opacity="0.51" style="isolation:isolate"/><circle id="b6e15bed-e1c1-47ef-bb49-cc2566504a7e" data-name="Ellipse 1-25" cx="1001.77" cy="288.56" r="11.52" fill="#fff" opacity="0.51" style="isolation:isolate"/><circle id="bd0bc0a5-681c-4427-afe1-bc3d3b069341" data-name="Ellipse 1-26" cx="1036.7" cy="288.56" r="11.52" fill="#fff" opacity="0.51" style="isolation:isolate"/><circle id="a19d35c9-00ae-4d0b-a853-66ab35295d58" data-name="Ellipse 1-27" cx="1071.3" cy="288.56" r="11.52" fill="#fff" opacity="0.51" style="isolation:isolate"/><circle id="b44699cb-14c5-4fa8-a7da-395bd08e2bb0" data-name="Ellipse 1-28" cx="1105" cy="288.56" r="11.52" fill="#fff" opacity="0.51" style="isolation:isolate"/><circle id="f579cad6-d48e-4ac9-ac66-7426213372e2" data-name="Ellipse 1-33" cx="933.47" cy="321.81" r="11.52" fill="#fff" opacity="0.51" style="isolation:isolate"/><circle id="ae4026cd-4d91-4931-a95d-27bd6b3ea27c" data-name="Ellipse 1-43" cx="933.47" cy="357.52" r="11.52" fill="#fff" opacity="0.51" style="isolation:isolate"/><circle id="bb7ad61d-30ca-4d54-88ed-c045e9ae1f98" data-name="Ellipse 1-48" cx="1105" cy="357.52" r="11.52" fill="#fff" opacity="0.51" style="isolation:isolate"/><circle id="b048b6b8-afcb-41ac-ae6e-fd9fd13cf244" data-name="Ellipse 1-53" cx="933.47" cy="394.06" r="11.52" fill="#fff" opacity="0.51" style="isolation:isolate"/><circle id="f240b8bf-50de-449e-88fb-b265472580d6" data-name="Ellipse 1-58" cx="1105" cy="394.06" r="11.52" fill="#fff" opacity="0.51" style="isolation:isolate"/><circle id="eba67048-3962-4999-8aef-15381fad6c95" data-name="Ellipse 1-63" cx="933.47" cy="429.78" r="11.52" fill="#fff" opacity="0.51" style="isolation:isolate"/><circle id="a870a9de-e7ed-4086-b5e5-26ebf6569ff1" data-name="Ellipse 1-68" cx="1105" cy="429.78" r="11.52" fill="#fff" opacity="0.51" style="isolation:isolate"/><circle id="f4cd539d-3123-469a-a7ef-7251677fa47c" data-name="Ellipse 1-73" cx="933.47" cy="463.03" r="11.52" fill="#fff" opacity="0.51" style="isolation:isolate"/><circle id="f88f9a60-98a4-4875-8182-920d881fee1d" data-name="Ellipse 1-74" cx="967.25" cy="463.03" r="11.52" fill="#fff" opacity="0.51" style="isolation:isolate"/><circle id="ab74e5c0-5fa6-4ec5-99e8-1125f10361f2" data-name="Ellipse 1-75" cx="1001.77" cy="463.03" r="11.52" fill="#fff" opacity="0.51" style="isolation:isolate"/><circle id="b6415238-bb2e-4419-82e6-ca6d84120e72" data-name="Ellipse 1-76" cx="1036.7" cy="463.03" r="11.52" fill="#fff" opacity="0.51" style="isolation:isolate"/><circle id="b872bcc7-82e7-47dd-9687-ebe8e932d05e" data-name="Ellipse 1-77" cx="1071.3" cy="463.03" r="11.52" fill="#fff" opacity="0.51" style="isolation:isolate"/><circle id="ef4573e7-3d8d-4b01-b239-14eb0ced9ce4" data-name="Ellipse 1-78" cx="1105" cy="463.03" r="11.52" fill="#fff" opacity="0.51" style="isolation:isolate"/><circle id="f068b1c8-e963-49e1-b318-bb4aa47a163a" data-name="Ellipse 1-12" cx="900.92" cy="257.1" r="10.7" fill="#fff" opacity="0.47" style="isolation:isolate"/><circle id="e32bbb75-85ca-4e97-bf43-c99c2c48a806" data-name="Ellipse 1-13" cx="933.47" cy="257.1" r="10.7" fill="#fff" opacity="0.47" style="isolation:isolate"/><circle id="f75abaed-64c4-45a5-ad54-a00e98eeb145" data-name="Ellipse 1-14" cx="967.25" cy="257.1" r="10.7" fill="#fff" opacity="0.47" style="isolation:isolate"/><circle id="a6147c20-4f7f-4a83-9a08-7b8b20431b30" data-name="Ellipse 1-15" cx="1001.77" cy="257.1" r="10.7" fill="#fff" opacity="0.47" style="isolation:isolate"/><circle id="acff8c43-0e14-4b1d-bf52-1dd38eb3a404" data-name="Ellipse 1-16" cx="1036.7" cy="257.1" r="10.7" fill="#fff" opacity="0.47" style="isolation:isolate"/><circle id="bd8d7dea-2c73-4b05-b34e-5bf1a88c5ec1" data-name="Ellipse 1-17" cx="1071.3" cy="257.1" r="10.7" fill="#fff" opacity="0.47" style="isolation:isolate"/><circle id="ee95e1a1-cf19-4ab1-90ed-5ebd9ccd1661" data-name="Ellipse 1-18" cx="1105" cy="257.1" r="10.7" fill="#fff" opacity="0.47" style="isolation:isolate"/><circle id="e78c14fc-3810-42f0-8bb2-f8a0959397c8" data-name="Ellipse 1-19" cx="1137.55" cy="257.1" r="10.7" fill="#fff" opacity="0.47" style="isolation:isolate"/><circle id="b5e18b05-bcd5-4fd5-937e-7e0f31bdde99" data-name="Ellipse 1-22" cx="900.92" cy="288.56" r="10.7" fill="#fff" opacity="0.47" style="isolation:isolate"/><circle id="f7963996-23e7-4e0c-8b47-97743a245cda" data-name="Ellipse 1-29" cx="1137.55" cy="288.56" r="10.7" fill="#fff" opacity="0.47" style="isolation:isolate"/><circle id="ab6f090c-bb6a-488f-9bf6-c30b4ba1990a" data-name="Ellipse 1-32" cx="900.92" cy="321.81" r="10.7" fill="#fff" opacity="0.47" style="isolation:isolate"/><circle id="a3322ca2-81ce-47e3-b775-74bcfc8b97ac" data-name="Ellipse 1-39" cx="1137.55" cy="321.81" r="10.7" fill="#fff" opacity="0.47" style="isolation:isolate"/><circle id="b60ea31c-e90d-4a9e-85e4-cd8b482298a0" data-name="Ellipse 1-42" cx="900.92" cy="357.52" r="10.7" fill="#fff" opacity="0.47" style="isolation:isolate"/><circle id="e01f5da6-04a3-4399-b73e-6c5929b39bee" data-name="Ellipse 1-49" cx="1137.55" cy="357.52" r="10.7" fill="#fff" opacity="0.47" style="isolation:isolate"/><circle id="a32aae64-6655-4203-9a5d-9cecb4c0c97a" data-name="Ellipse 1-52" cx="900.92" cy="394.06" r="10.7" fill="#fff" opacity="0.47" style="isolation:isolate"/><circle id="e6c8475f-6ab3-4a62-af11-f08828bd10cc" data-name="Ellipse 1-59" cx="1137.55" cy="394.06" r="10.7" fill="#fff" opacity="0.47" style="isolation:isolate"/><circle id="a1fc12bb-06e7-43bd-88d8-d166000bf7f9" data-name="Ellipse 1-62" cx="900.92" cy="429.78" r="10.7" fill="#fff" opacity="0.47" style="isolation:isolate"/><circle id="bd4b200d-e6e9-4684-92d6-9fb3e4070b81" data-name="Ellipse 1-69" cx="1137.55" cy="429.78" r="10.7" fill="#fff" opacity="0.47" style="isolation:isolate"/><circle id="eb52a183-a00d-4a5a-9f19-cb60bdb3b442" data-name="Ellipse 1-72" cx="900.92" cy="463.03" r="10.7" fill="#fff" opacity="0.47" style="isolation:isolate"/><circle id="fb66e9d9-09ed-4feb-bf37-94529118186d" data-name="Ellipse 1-79" cx="1137.55" cy="463.03" r="10.7" fill="#fff" opacity="0.47" style="isolation:isolate"/><circle id="e7bb98cb-0c51-4492-a2fb-0fe53bfcb621" data-name="Ellipse 1-82" cx="900.92" cy="493.8" r="10.7" fill="#fff" opacity="0.47" style="isolation:isolate"/><circle id="f7a5ec0f-a3c5-4e96-a88e-158d581d81d7" data-name="Ellipse 1-83" cx="933.47" cy="493.8" r="10.7" fill="#fff" opacity="0.47" style="isolation:isolate"/><circle id="a72a8b6d-78e9-492c-82da-9c4153b80f00" data-name="Ellipse 1-84" cx="967.25" cy="493.8" r="10.7" fill="#fff" opacity="0.47" style="isolation:isolate"/><circle id="aa2c33ce-4e79-436e-8cea-413e94c5ae48" data-name="Ellipse 1-85" cx="1001.77" cy="493.8" r="10.7" fill="#fff" opacity="0.47" style="isolation:isolate"/><circle id="a83d1f90-98a5-4537-b351-0a57f5f68e1e" data-name="Ellipse 1-86" cx="1036.7" cy="493.8" r="10.7" fill="#fff" opacity="0.47" style="isolation:isolate"/><circle id="bbeb241a-8c7b-43c0-b27e-836294caadd2" data-name="Ellipse 1-87" cx="1071.3" cy="493.8" r="10.7" fill="#fff" opacity="0.47" style="isolation:isolate"/><circle id="a7bf0a69-dfbb-4770-b8e0-bbf24a354b23" data-name="Ellipse 1-88" cx="1105" cy="493.8" r="10.7" fill="#fff" opacity="0.47" style="isolation:isolate"/><circle id="e6953568-79b3-4b79-8fb6-4ba2b7a9e00b" data-name="Ellipse 1-89" cx="1137.55" cy="493.8" r="10.7" fill="#fff" opacity="0.47" style="isolation:isolate"/><circle id="b9bb22c8-715e-4d03-b0d4-1f3ca5f8ec17" data-name="Ellipse 1" cx="869.52" cy="226.73" r="9.87" fill="#fff" opacity="0.23" style="isolation:isolate"/><circle id="b1ff924b-5158-4a74-a74c-16565758ae1f" data-name="Ellipse 1-2" cx="900.92" cy="226.73" r="9.87" fill="#fff" opacity="0.23" style="isolation:isolate"/><circle id="bccc4ea4-0f5c-46f1-a365-4c3707732960" data-name="Ellipse 1-3" cx="933.47" cy="226.73" r="9.87" fill="#fff" opacity="0.23" style="isolation:isolate"/><circle id="e6939e8c-1e76-4c96-aa21-55fa6321ca6f" data-name="Ellipse 1-4" cx="967.25" cy="226.73" r="9.87" fill="#fff" opacity="0.23" style="isolation:isolate"/><circle id="f60c4a61-ae42-4075-b718-274aedc70070" data-name="Ellipse 1-5" cx="1001.77" cy="226.73" r="9.87" fill="#fff" opacity="0.23" style="isolation:isolate"/><circle id="ad1fbe6c-8f24-4e0a-8043-338443943dd2" data-name="Ellipse 1-6" cx="1036.7" cy="226.73" r="9.87" fill="#fff" opacity="0.23" style="isolation:isolate"/><circle id="bd0ee1c2-2e24-4d77-9450-2bdf7d417655" data-name="Ellipse 1-7" cx="1071.3" cy="226.73" r="9.87" fill="#fff" opacity="0.23" style="isolation:isolate"/><circle id="a006512a-4315-4cc6-b608-2442991e2b98" data-name="Ellipse 1-8" cx="1105" cy="226.73" r="9.87" fill="#fff" opacity="0.23" style="isolation:isolate"/><circle id="a910ed6f-9159-4770-90d8-103090b59a80" data-name="Ellipse 1-9" cx="1137.55" cy="226.73" r="9.87" fill="#fff" opacity="0.23" style="isolation:isolate"/><circle id="a836e46f-4067-4bc3-9796-db20a90cda7e" data-name="Ellipse 1-11" cx="869.52" cy="257.1" r="9.87" fill="#fff" opacity="0.23" style="isolation:isolate"/><circle id="b450beb7-3ba5-4226-82d9-1177ffc3cceb" data-name="Ellipse 1-20" cx="1169.02" cy="257.1" r="9.87" fill="#fff" opacity="0.23" style="isolation:isolate"/><circle id="fbd48a1e-8baa-42a7-99ec-1c2612704ab6" data-name="Ellipse 1-21" cx="869.52" cy="288.56" r="9.87" fill="#fff" opacity="0.23" style="isolation:isolate"/><circle id="a6f62155-58ac-49cd-a8a4-2bba67e6d2fb" data-name="Ellipse 1-30" cx="1169.02" cy="288.56" r="9.87" fill="#fff" opacity="0.23" style="isolation:isolate"/><circle id="bdcc108b-1d64-4adb-9322-da89099a34e4" data-name="Ellipse 1-31" cx="869.52" cy="321.81" r="9.87" fill="#fff" opacity="0.23" style="isolation:isolate"/><circle id="fe93c7fa-e453-43c4-b1fe-101fabb2edbc" data-name="Ellipse 1-40" cx="1169.02" cy="321.81" r="9.87" fill="#fff" opacity="0.23" style="isolation:isolate"/><circle id="a54abc05-ef67-41a2-8e02-11d2dde967a2" data-name="Ellipse 1-41" cx="869.52" cy="357.52" r="9.87" fill="#fff" opacity="0.23" style="isolation:isolate"/><circle id="ed3e3229-85bf-49ca-99a1-3f4e827caee0" data-name="Ellipse 1-50" cx="1169.02" cy="357.52" r="9.87" fill="#fff" opacity="0.23" style="isolation:isolate"/><circle id="e238e76c-a33b-4a5e-8fa0-5566a2729f3d" data-name="Ellipse 1-51" cx="869.52" cy="394.06" r="9.87" fill="#fff" opacity="0.23" style="isolation:isolate"/><circle id="fbe48f28-36d5-4a2b-a70a-f0e7059a6819" data-name="Ellipse 1-60" cx="1169.02" cy="394.06" r="9.87" fill="#fff" opacity="0.23" style="isolation:isolate"/><circle id="a8711664-9086-454b-af77-838facd86776" data-name="Ellipse 1-61" cx="869.52" cy="429.78" r="9.87" fill="#fff" opacity="0.23" style="isolation:isolate"/><circle id="ff79ec98-d780-4d9a-ac9e-9250c9c8dc85" data-name="Ellipse 1-70" cx="1169.02" cy="429.78" r="9.87" fill="#fff" opacity="0.23" style="isolation:isolate"/><circle id="fdf57119-9648-453a-9d9a-903a09865b10" data-name="Ellipse 1-71" cx="869.52" cy="463.03" r="9.87" fill="#fff" opacity="0.23" style="isolation:isolate"/><circle id="b7fa8e96-3b29-4ab8-ae04-822d58672539" data-name="Ellipse 1-80" cx="1169.02" cy="463.03" r="9.87" fill="#fff" opacity="0.23" style="isolation:isolate"/><circle id="b6b524d2-b4d5-45ef-ba1f-2718a089b741" data-name="Ellipse 1-81" cx="869.52" cy="493.8" r="9.87" fill="#fff" opacity="0.23" style="isolation:isolate"/><circle id="e98afe71-ce77-457e-942d-893cf1c59937" data-name="Ellipse 1-90" cx="1169.02" cy="493.8" r="9.87" fill="#fff" opacity="0.23" style="isolation:isolate"/><circle id="e3f9ab14-93df-4891-a256-b29997453349" data-name="Ellipse 1-91" cx="869.52" cy="522.94" r="9.87" fill="#fff" opacity="0.23" style="isolation:isolate"/><circle id="e815b411-5254-46a3-9d40-016667f7d5b3" data-name="Ellipse 1-92" cx="900.92" cy="522.94" r="9.87" fill="#fff" opacity="0.23" style="isolation:isolate"/><circle id="b784fd20-cb78-408c-9d48-3401f729e6c8" data-name="Ellipse 1-93" cx="933.47" cy="522.94" r="9.87" fill="#fff" opacity="0.23" style="isolation:isolate"/><circle id="f0858ec8-fc95-4f4d-a3b9-330b49ab6f85" data-name="Ellipse 1-94" cx="967.25" cy="522.94" r="9.87" fill="#fff" opacity="0.23" style="isolation:isolate"/><circle id="fa3f3c78-d553-4b03-8572-681045663978" data-name="Ellipse 1-95" cx="1001.77" cy="522.94" r="9.87" fill="#fff" opacity="0.23" style="isolation:isolate"/><circle id="a5803e89-d247-4d8c-9a2b-f2db3a6be83e" data-name="Ellipse 1-96" cx="1036.7" cy="522.94" r="9.87" fill="#fff" opacity="0.23" style="isolation:isolate"/><circle id="ae6530d9-cb55-4b8c-b95b-91130803985d" data-name="Ellipse 1-97" cx="1071.3" cy="522.94" r="9.87" fill="#fff" opacity="0.23" style="isolation:isolate"/><circle id="b0e8a6b6-2566-4cb5-90fe-65ee8efd7559" data-name="Ellipse 1-98" cx="1105" cy="522.94" r="9.87" fill="#fff" opacity="0.23" style="isolation:isolate"/><circle id="b90ff376-c93d-44b3-8763-ecc16135ce00" data-name="Ellipse 1-99" cx="1137.55" cy="522.94" r="9.87" fill="#fff" opacity="0.23" style="isolation:isolate"/><circle id="bd5e2cdc-1efc-48ba-8cd5-04b98d2b2380" data-name="Ellipse 1-100" cx="1169.02" cy="522.94" r="9.87" fill="#fff" opacity="0.23" style="isolation:isolate"/><circle id="b780fc1a-3861-47a7-a99b-efb1b66e3109" data-name="Ellipse 1-10" cx="1169.02" cy="226.73" r="9.87" fill="#fff" opacity="0.23" style="isolation:isolate"/><path d="M804.9,879v-1.64c4.78-.36,5.29-.71,5.29-5.65V849.13c0-5-.51-5.34-5.29-5.65v-1.72h16v1.72c-4.74.31-5.25.67-5.25,5.65v22.61c0,4.94.51,5.29,5.25,5.65V879Z" fill="#1d1d1b"/><path d="M882.52,843.48c-3.25.16-4.67.82-4.94,3.45a90.92,90.92,0,0,0-.35,9.76v22.93h-1.88l-25.76-29.87h-.08l0,14a93.08,93.08,0,0,0,.39,9.64c.27,3,1.6,3.68,5.64,4V879h-14v-1.64c3.37-.24,4.86-1,5.13-3.85a73.19,73.19,0,0,0,.47-9.79V851.44c0-4.2-.19-4.51-1.25-5.88-1.21-1.41-2.47-1.88-5.21-2.08v-1.72h9l25,28.3h.16V856.69a93.23,93.23,0,0,0-.39-9.56c-.28-2.71-1.65-3.45-5.84-3.65v-1.72h14Z" fill="#1d1d1b"/><path d="M922.47,850.73c-1-3.68-2.82-7.84-7.76-7.84a6,6,0,0,0-6.47,6.24c0,4,2.7,6,7.49,8.31,5,2.43,10.15,5.13,10.15,11.44,0,6.15-5.25,11-13.25,11a18,18,0,0,1-5.88-.94,19.4,19.4,0,0,1-2.9-1.21,86.94,86.94,0,0,1-1.61-9.13l1.77-.51c1,3.64,3.84,9.64,9.83,9.64,4.28,0,6.79-2.63,6.79-6.74s-3.14-6.12-7.61-8.47c-4.08-2-9.68-4.9-9.68-11.21,0-5.72,4.62-10.47,12.27-10.47a24.84,24.84,0,0,1,7.6,1.38c.24,2,.51,4.39,1,8.15Z" fill="#1d1d1b"/><path d="M977.74,851c-.62-2.86-1.25-4.39-2-5.37-1-1.34-2-1.77-6.46-1.77h-4v28c0,4.55.51,5.21,6.07,5.57V879H954v-1.64c5.37-.36,5.88-1,5.88-5.57v-28h-3.41c-5.1,0-6.31.55-7.1,1.77-.74,1-1.25,2.66-2,5.37H945.6c.28-3.73.55-7.53.67-10.7h1.25c.86,1.45,1.61,1.45,3.33,1.45h23.76a3.2,3.2,0,0,0,3-1.45h1.26c0,2.62.31,7.05.59,10.5Z" fill="#1d1d1b"/><path d="M999.23,879v-1.64c4.78-.36,5.29-.71,5.29-5.65V849.13c0-5-.51-5.34-5.29-5.65v-1.72h16v1.72c-4.74.31-5.25.67-5.25,5.65v22.61c0,4.94.51,5.29,5.25,5.65V879Z" fill="#1d1d1b"/><path d="M1067.09,851c-.63-2.86-1.26-4.39-2-5.37-1-1.34-2-1.77-6.47-1.77h-4v28c0,4.55.51,5.21,6.08,5.57V879h-17.37v-1.64c5.37-.36,5.88-1,5.88-5.57v-28h-3.41c-5.09,0-6.31.55-7.09,1.77-.75,1-1.26,2.66-2,5.37H1035c.27-3.73.54-7.53.66-10.7h1.26c.86,1.45,1.6,1.45,3.33,1.45H1064a3.2,3.2,0,0,0,3.06-1.45h1.25c0,2.62.32,7.05.59,10.5Z" fill="#1d1d1b"/><path d="M1129.46,843.48c-3.41.2-4.9,1.06-5.14,3.41A88,88,0,0,0,1124,856v4.51c0,6.78-1.1,11.76-4.51,15.29a15,15,0,0,1-10.78,4A15.72,15.72,0,0,1,1099,877c-3.61-2.66-5.33-7-5.33-13.91V849.44c0-5.29-.51-5.57-5.14-6v-1.72h15.72v1.72c-4.58.28-5.09.63-5.09,6v12.5c0,9.45,4,14.62,11.09,14.62,8.31,0,11.17-6.66,11.17-16.19V856a55.31,55.31,0,0,0-.47-9.25c-.31-2.19-1.65-3-5.68-3.25v-1.72h14.15Z" fill="#1d1d1b"/><path d="M1181.32,851c-.63-2.86-1.25-4.39-2-5.37-1-1.34-2-1.77-6.47-1.77h-4v28c0,4.55.51,5.21,6.07,5.57V879h-17.36v-1.64c5.37-.36,5.88-1,5.88-5.57v-28H1160c-5.1,0-6.31.55-7.1,1.77-.74,1-1.25,2.66-2,5.37h-1.76c.27-3.73.55-7.53.67-10.7h1.25c.86,1.45,1.61,1.45,3.33,1.45h23.76a3.2,3.2,0,0,0,3-1.45h1.26c0,2.62.31,7.05.59,10.5Z" fill="#1d1d1b"/><path d="M1233.62,869.74c-.39,2.16-1.53,7.45-2,9.29h-28.77v-1.64c5.29-.4,5.8-.94,5.8-5.65V849.28c0-5.25-.51-5.41-5.06-5.8v-1.72h26.58c.08,1.49.31,5.29.55,8.5l-1.81.24a15.48,15.48,0,0,0-1.92-5c-.86-1.25-2.47-1.65-6.5-1.65h-4.35c-1.92,0-2,.16-2,1.88v12.86h5.37c5.25,0,5.64-.47,6.39-4.35h1.76v11.25h-1.76c-.83-4.19-1.26-4.51-6.39-4.51h-5.37v10.55c0,2.7.31,4,1.41,4.7s3.33.67,6,.67c4.27,0,6-.4,7.37-1.89a19.94,19.94,0,0,0,3-5.52Z" fill="#1d1d1b"/><path d="M781.58,766.37c-2.15,7.5-6.54,19.83-9.33,24.87-4.72,1.07-18.87,4.5-30.77,4.5-41.39,0-59.83-27.34-59.83-52.1,0-33,26.7-54.68,63.9-54.68,13.72,0,25.3,3.75,29.81,4.5,1.28,8.9,2.46,15.65,3.43,24.55L774,719.08c-4.39-17.36-15.11-24.23-32.59-24.23-27.34,0-41.92,22.09-41.92,45.46,0,29.6,18.12,49.32,43.31,49.32,16.62,0,25.74-8.9,34.21-25.09Z" fill="#1d1d1b"/><path d="M854.27,793.28v-4.5c10-1.4,11.36-2.79,9.22-9.12s-5.15-14-8.58-23H820.5c-2.69,7.18-4.83,13.3-6.87,19.51-3.43,9.55-2.14,11.37,10,12.66v4.5H788.22v-4.5c10.4-1.61,12.65-2.68,18.34-16.62l33.66-81.81L845.8,689c10.29,27.77,20.58,55.64,31.2,83.2,5.14,13.83,7.4,15.54,17.8,16.62v4.5Zm-15.76-82.77h-.32c-5.15,13-10.19,26.37-15,39h29.37Z" fill="#1d1d1b"/><path d="M1015.52,696c-8.9.43-12.76,2.26-13.51,9.44-.53,5-1,12.11-1,26.7v62.72H995.9l-70.44-81.7h-.21l-.11,38.27a256.47,256.47,0,0,0,1.07,26.38c.75,8.15,4.4,10.08,15.44,10.94v4.5H903.27v-4.5c9.22-.65,13.29-2.68,14-10.51.64-4.93,1.29-12.33,1.29-26.81V717.8c0-11.47-.54-12.33-3.43-16.08-3.33-3.86-6.76-5.15-14.26-5.69v-4.71h24.66l68.29,77.41h.43V732.17A249.43,249.43,0,0,0,993.22,706c-.75-7.39-4.5-9.43-16-10v-4.71h38.27Z" fill="#1d1d1b"/><path d="M1081.35,689c28.2,0,53.72,20.58,53.72,52,0,33.88-25.41,54.78-55.86,54.78-30.13,0-54.15-22.19-54.15-52.42,0-28.42,21.34-54.36,56.18-54.36Zm-3.54,5.89c-18,0-35.16,14.69-35.16,44.39,0,28.84,17,50.61,40.1,50.61,18,0,34.52-14.37,34.52-44.71,0-32.92-18.23-50.29-39.35-50.29Z" fill="#1d1d1b"/><path d="M1201.65,738.49c16.4,2.15,28.95,9,28.95,24.77,0,10.51-5.79,18.65-15.23,23.8-8.25,4.4-19.19,6.22-31.95,6.22h-36.88v-4.5c13.72-1,14.8-2,14.8-15.23V711.26c0-13.4-.76-14.37-13.41-15.23v-4.71h42.46c12.22,0,19.19,1.82,24.55,5.46,5.58,3.76,9,10.62,9,17.91,0,14.9-13,21-22.3,23.27Zm-18.44-2c17.37,0,24.66-6.75,24.66-19.72,0-11.26-6.33-20.16-20.91-20.16-3.86,0-7.51.86-8.9,1.93s-1.82,2.79-1.82,7.61v30.34Zm-7,36.67c0,11.69,3.11,14.69,13.19,14.58,12.54-.21,23.9-6.64,23.9-22.83,0-15.76-10.93-23-30.44-23h-6.65Z" fill="#1d1d1b"/><path d="M1303.18,689c28.2,0,53.72,20.58,53.72,52,0,33.88-25.41,54.78-55.86,54.78-30.13,0-54.15-22.19-54.15-52.42,0-28.42,21.34-54.36,56.18-54.36Zm-3.54,5.89c-18,0-35.16,14.69-35.16,44.39,0,28.84,17,50.61,40.1,50.61,18,0,34.52-14.37,34.52-44.71,0-32.92-18.23-50.29-39.35-50.29Z" fill="#1d1d1b"/></svg>