<svg id="a164929c-1001-4a2c-885c-d6bb67a1c462" data-name="Layer 1" xmlns="http://www.w3.org/2000/svg" width="719.15mm" height="376.02mm" viewBox="0 0 2038.55 1065.9"><rect x="812.46" y="168.02" width="413.62" height="413.62" fill="#e42520"/><circle id="eb93fb7a-ba13-4475-8a11-676d93176d0b" data-name="Ellipse 1-38" cx="1105" cy="321.81" r="11.52" fill="#fff" opacity="0.51" style="isolation:isolate"/><circle id="f621e3ff-02c9-4393-af98-b4b790696eb1" data-name="Ellipse 1-45" cx="1036.5" cy="358.33" r="13.25" fill="#fff"/><circle id="e47d7ae3-e4ba-4134-b30b-cc2cdd617443" data-name="Ellipse 1-46" cx="1036.5" cy="393.26" r="13.25" fill="#fff"/><circle id="bcdd760e-7d6e-42e2-9583-b0fdbc9f5abf" data-name="Ellipse 1-55" cx="1001.96" cy="358.33" r="13.25" fill="#fff"/><circle id="ae8fc7de-24be-4788-956d-b1c2597963e0" data-name="Ellipse 1-56" cx="1001.96" cy="393.26" r="13.25" fill="#fff"/><circle id="a8faa7d5-d2b5-4ff1-a16d-4d8678fe0e65" data-name="Ellipse 1-34" cx="967.25" cy="321.81" r="13.16" fill="#fff" opacity="0.67" style="isolation:isolate"/><circle id="a9f118b4-08bb-4a19-beb2-cc10e74cee22" data-name="Ellipse 1-35" cx="1001.77" cy="321.81" r="13.16" fill="#fff" opacity="0.67" style="isolation:isolate"/><circle id="fdfeb2a5-d466-4c8b-bcce-43d187d6bee9" data-name="Ellipse 1-36" cx="1036.7" cy="321.81" r="13.16" fill="#fff" opacity="0.67" style="isolation:isolate"/><circle id="a0a00aa8-8425-4e1f-af62-2a0c5e66d0b6" data-name="Ellipse 1-37" cx="1071.3" cy="321.81" r="13.16" fill="#fff" opacity="0.67" style="isolation:isolate"/><circle id="fd2aa031-36ca-4418-8827-28c12146a673" data-name="Ellipse 1-44" cx="967.25" cy="357.52" r="13.16" fill="#fff" opacity="0.67" style="isolation:isolate"/><circle id="e9262d6f-7a59-4327-ba9c-e4d2c9889907" data-name="Ellipse 1-47" cx="1071.3" cy="357.52" r="13.16" fill="#fff" opacity="0.67" style="isolation:isolate"/><circle id="ed35fdcd-6786-42eb-afff-5ec82cb10aad" data-name="Ellipse 1-54" cx="967.25" cy="394.06" r="13.16" fill="#fff" opacity="0.67" style="isolation:isolate"/><circle id="b305f5de-4a79-49a4-b97a-1c438e8ce397" data-name="Ellipse 1-57" cx="1071.3" cy="394.06" r="13.16" fill="#fff" opacity="0.67" style="isolation:isolate"/><circle id="bcb6fe18-6395-4766-abaa-6be674b39f84" data-name="Ellipse 1-64" cx="967.25" cy="429.78" r="13.16" fill="#fff" opacity="0.67" style="isolation:isolate"/><circle id="f747a5c8-4c42-403f-a320-dcf01911bfb4" data-name="Ellipse 1-65" cx="1001.77" cy="429.78" r="13.16" fill="#fff" opacity="0.67" style="isolation:isolate"/><circle id="f5526abd-53f9-4319-a19e-f909a0b88157" data-name="Ellipse 1-66" cx="1036.7" cy="429.78" r="13.16" fill="#fff" opacity="0.67" style="isolation:isolate"/><circle id="b77bd744-c161-4b7e-a7e9-bf78154dfe3a" data-name="Ellipse 1-67" cx="1071.3" cy="429.78" r="13.16" fill="#fff" opacity="0.67" style="isolation:isolate"/><circle id="e9d6398e-4136-43e6-93b2-c1837ff3d01f" data-name="Ellipse 1-23" cx="933.47" cy="288.56" r="11.52" fill="#fff" opacity="0.51" style="isolation:isolate"/><circle id="e9e0e0d2-2955-44a1-a00b-763a4289d356" data-name="Ellipse 1-24" cx="967.25" cy="288.56" r="11.52" fill="#fff" opacity="0.51" style="isolation:isolate"/><circle id="afd8c3ef-cba4-4a69-b3bf-da360a4e1d88" data-name="Ellipse 1-25" cx="1001.77" cy="288.56" r="11.52" fill="#fff" opacity="0.51" style="isolation:isolate"/><circle id="a278c1ac-aafb-4612-b53b-0926cdb8e9ae" data-name="Ellipse 1-26" cx="1036.7" cy="288.56" r="11.52" fill="#fff" opacity="0.51" style="isolation:isolate"/><circle id="efa83eac-266d-4919-8220-5b0ed1686a9b" data-name="Ellipse 1-27" cx="1071.3" cy="288.56" r="11.52" fill="#fff" opacity="0.51" style="isolation:isolate"/><circle id="bfdfb257-af28-4efd-ade1-b6ea43a62f8e" data-name="Ellipse 1-28" cx="1105" cy="288.56" r="11.52" fill="#fff" opacity="0.51" style="isolation:isolate"/><circle id="acad2a56-f56f-4ab9-8979-378546ef1adf" data-name="Ellipse 1-33" cx="933.47" cy="321.81" r="11.52" fill="#fff" opacity="0.51" style="isolation:isolate"/><circle id="a618892a-4443-4526-b05a-15aeddbe5af8" data-name="Ellipse 1-43" cx="933.47" cy="357.52" r="11.52" fill="#fff" opacity="0.51" style="isolation:isolate"/><circle id="e3216a47-1742-49eb-b16b-149102c910dc" data-name="Ellipse 1-48" cx="1105" cy="357.52" r="11.52" fill="#fff" opacity="0.51" style="isolation:isolate"/><circle id="f5e46d08-e635-4073-9c4d-1357c659f91d" data-name="Ellipse 1-53" cx="933.47" cy="394.06" r="11.52" fill="#fff" opacity="0.51" style="isolation:isolate"/><circle id="a9305596-be73-44e6-bf64-bb4edb29eb07" data-name="Ellipse 1-58" cx="1105" cy="394.06" r="11.52" fill="#fff" opacity="0.51" style="isolation:isolate"/><circle id="b2d2a444-c8ce-4e23-ad12-d2cb53a663bc" data-name="Ellipse 1-63" cx="933.47" cy="429.78" r="11.52" fill="#fff" opacity="0.51" style="isolation:isolate"/><circle id="b5dfd6f1-1a1a-4e8b-966e-0bb8aff7ec4f" data-name="Ellipse 1-68" cx="1105" cy="429.78" r="11.52" fill="#fff" opacity="0.51" style="isolation:isolate"/><circle id="aaab7aa5-84b5-426d-8c7f-04c3148e48b3" data-name="Ellipse 1-73" cx="933.47" cy="463.03" r="11.52" fill="#fff" opacity="0.51" style="isolation:isolate"/><circle id="babc3786-712c-4f5b-834b-1e5d5d50a3d1" data-name="Ellipse 1-74" cx="967.25" cy="463.03" r="11.52" fill="#fff" opacity="0.51" style="isolation:isolate"/><circle id="f431a259-97f6-4f3c-bfc1-5fc9492aaedc" data-name="Ellipse 1-75" cx="1001.77" cy="463.03" r="11.52" fill="#fff" opacity="0.51" style="isolation:isolate"/><circle id="bf5cc96a-99db-4d06-9d95-d783f32dd2ce" data-name="Ellipse 1-76" cx="1036.7" cy="463.03" r="11.52" fill="#fff" opacity="0.51" style="isolation:isolate"/><circle id="b748cb5a-3bd5-4047-983d-5c1d559cf692" data-name="Ellipse 1-77" cx="1071.3" cy="463.03" r="11.52" fill="#fff" opacity="0.51" style="isolation:isolate"/><circle id="b8f11cb3-a94c-49b9-8398-cbda741b72bb" data-name="Ellipse 1-78" cx="1105" cy="463.03" r="11.52" fill="#fff" opacity="0.51" style="isolation:isolate"/><circle id="aa19ec3a-ffd0-4b34-bc56-ef509f2ea33d" data-name="Ellipse 1-12" cx="900.92" cy="257.1" r="10.7" fill="#fff" opacity="0.47" style="isolation:isolate"/><circle id="badc85b5-293f-4286-9059-80f592a3ec85" data-name="Ellipse 1-13" cx="933.47" cy="257.1" r="10.7" fill="#fff" opacity="0.47" style="isolation:isolate"/><circle id="f7542704-a0b0-46d6-8902-b99b6f3e2a24" data-name="Ellipse 1-14" cx="967.25" cy="257.1" r="10.7" fill="#fff" opacity="0.47" style="isolation:isolate"/><circle id="f5f28fb5-353a-4009-8e98-2c8686b8ce38" data-name="Ellipse 1-15" cx="1001.77" cy="257.1" r="10.7" fill="#fff" opacity="0.47" style="isolation:isolate"/><circle id="b6def7e2-cf19-424e-b690-d1a4c2cefba3" data-name="Ellipse 1-16" cx="1036.7" cy="257.1" r="10.7" fill="#fff" opacity="0.47" style="isolation:isolate"/><circle id="e07731f9-103a-4637-bc99-f50000d7c777" data-name="Ellipse 1-17" cx="1071.3" cy="257.1" r="10.7" fill="#fff" opacity="0.47" style="isolation:isolate"/><circle id="f03a7859-21d8-46f8-935c-066bfb9ce983" data-name="Ellipse 1-18" cx="1105" cy="257.1" r="10.7" fill="#fff" opacity="0.47" style="isolation:isolate"/><circle id="a672c339-e0fa-4624-8a9d-bb5c5b890da7" data-name="Ellipse 1-19" cx="1137.55" cy="257.1" r="10.7" fill="#fff" opacity="0.47" style="isolation:isolate"/><circle id="b38b21f2-9d02-4f4d-8cb8-2db35f4947b2" data-name="Ellipse 1-22" cx="900.92" cy="288.56" r="10.7" fill="#fff" opacity="0.47" style="isolation:isolate"/><circle id="b76a81fb-87f5-42c3-a411-54cc2f558bd3" data-name="Ellipse 1-29" cx="1137.55" cy="288.56" r="10.7" fill="#fff" opacity="0.47" style="isolation:isolate"/><circle id="e156f8d2-ca39-4fdd-a69c-bf7951f5c92d" data-name="Ellipse 1-32" cx="900.92" cy="321.81" r="10.7" fill="#fff" opacity="0.47" style="isolation:isolate"/><circle id="a592e18e-d322-4532-af60-bcc1df010e2b" data-name="Ellipse 1-39" cx="1137.55" cy="321.81" r="10.7" fill="#fff" opacity="0.47" style="isolation:isolate"/><circle id="af018c26-0b19-42b4-af43-27173b0c6499" data-name="Ellipse 1-42" cx="900.92" cy="357.52" r="10.7" fill="#fff" opacity="0.47" style="isolation:isolate"/><circle id="fd7dd607-45d2-4807-8e0d-7f579b033abf" data-name="Ellipse 1-49" cx="1137.55" cy="357.52" r="10.7" fill="#fff" opacity="0.47" style="isolation:isolate"/><circle id="f08e3c6c-d525-40a8-9387-11c9d4d85ea1" data-name="Ellipse 1-52" cx="900.92" cy="394.06" r="10.7" fill="#fff" opacity="0.47" style="isolation:isolate"/><circle id="abe81fe0-b9a9-4f63-ab56-ab770bd9053f" data-name="Ellipse 1-59" cx="1137.55" cy="394.06" r="10.7" fill="#fff" opacity="0.47" style="isolation:isolate"/><circle id="f19a6031-0e6d-43c7-8fda-e02e38775960" data-name="Ellipse 1-62" cx="900.92" cy="429.78" r="10.7" fill="#fff" opacity="0.47" style="isolation:isolate"/><circle id="b8e48811-60a7-4cc7-b83f-9759f235ea86" data-name="Ellipse 1-69" cx="1137.55" cy="429.78" r="10.7" fill="#fff" opacity="0.47" style="isolation:isolate"/><circle id="ece7c524-b455-4b50-8f64-672368f63e4b" data-name="Ellipse 1-72" cx="900.92" cy="463.03" r="10.7" fill="#fff" opacity="0.47" style="isolation:isolate"/><circle id="e149be3c-16de-4dbf-b306-abec6db977ff" data-name="Ellipse 1-79" cx="1137.55" cy="463.03" r="10.7" fill="#fff" opacity="0.47" style="isolation:isolate"/><circle id="f30195cb-38c1-4a74-880f-c96f28e2f0bc" data-name="Ellipse 1-82" cx="900.92" cy="493.8" r="10.7" fill="#fff" opacity="0.47" style="isolation:isolate"/><circle id="a90c267f-f365-4eb5-a99a-ee5926efc900" data-name="Ellipse 1-83" cx="933.47" cy="493.8" r="10.7" fill="#fff" opacity="0.47" style="isolation:isolate"/><circle id="b33e3a06-c814-43de-8d67-e88b3d9cb696" data-name="Ellipse 1-84" cx="967.25" cy="493.8" r="10.7" fill="#fff" opacity="0.47" style="isolation:isolate"/><circle id="f3d4d0f0-4a7a-4da1-9040-beb00cb8f047" data-name="Ellipse 1-85" cx="1001.77" cy="493.8" r="10.7" fill="#fff" opacity="0.47" style="isolation:isolate"/><circle id="ba4d8f48-a9d9-4072-a139-b1471a8a35c4" data-name="Ellipse 1-86" cx="1036.7" cy="493.8" r="10.7" fill="#fff" opacity="0.47" style="isolation:isolate"/><circle id="f2359a86-17c3-4196-9bff-c93b75b06225" data-name="Ellipse 1-87" cx="1071.3" cy="493.8" r="10.7" fill="#fff" opacity="0.47" style="isolation:isolate"/><circle id="e3de526f-1ea5-48b2-b506-259093375df6" data-name="Ellipse 1-88" cx="1105" cy="493.8" r="10.7" fill="#fff" opacity="0.47" style="isolation:isolate"/><circle id="aec3f486-167f-468e-a0d8-998cd15fede2" data-name="Ellipse 1-89" cx="1137.55" cy="493.8" r="10.7" fill="#fff" opacity="0.47" style="isolation:isolate"/><circle id="ad210512-e9f3-4b54-9bf0-29572e6fe26c" data-name="Ellipse 1" cx="869.52" cy="226.73" r="9.87" fill="#fff" opacity="0.23" style="isolation:isolate"/><circle id="e1f965d0-50d5-419b-ae09-65a69745536c" data-name="Ellipse 1-2" cx="900.92" cy="226.73" r="9.87" fill="#fff" opacity="0.23" style="isolation:isolate"/><circle id="fbda921b-019c-4f09-870e-1ddeb1d20050" data-name="Ellipse 1-3" cx="933.47" cy="226.73" r="9.87" fill="#fff" opacity="0.23" style="isolation:isolate"/><circle id="e1d83a96-ef34-4f1a-a302-a91dfad085bb" data-name="Ellipse 1-4" cx="967.25" cy="226.73" r="9.87" fill="#fff" opacity="0.23" style="isolation:isolate"/><circle id="b026e819-8528-4be3-9266-be8df0a5b08e" data-name="Ellipse 1-5" cx="1001.77" cy="226.73" r="9.87" fill="#fff" opacity="0.23" style="isolation:isolate"/><circle id="a801c28f-4a55-4ebc-9b6c-27321f3b1ad0" data-name="Ellipse 1-6" cx="1036.7" cy="226.73" r="9.87" fill="#fff" opacity="0.23" style="isolation:isolate"/><circle id="aecbaaef-1bfc-4d75-976d-6c08c2a7c2af" data-name="Ellipse 1-7" cx="1071.3" cy="226.73" r="9.87" fill="#fff" opacity="0.23" style="isolation:isolate"/><circle id="a76e68ba-9823-419d-a23f-3e839889bd9e" data-name="Ellipse 1-8" cx="1105" cy="226.73" r="9.87" fill="#fff" opacity="0.23" style="isolation:isolate"/><circle id="ea41df4e-d3c7-4e03-8547-e7630dfb49f6" data-name="Ellipse 1-9" cx="1137.55" cy="226.73" r="9.87" fill="#fff" opacity="0.23" style="isolation:isolate"/><circle id="ee81badf-d1d4-4443-b210-4a770f0be638" data-name="Ellipse 1-11" cx="869.52" cy="257.1" r="9.87" fill="#fff" opacity="0.23" style="isolation:isolate"/><circle id="aeaca7d5-9479-40d9-9bdc-033c548a7faf" data-name="Ellipse 1-20" cx="1169.02" cy="257.1" r="9.87" fill="#fff" opacity="0.23" style="isolation:isolate"/><circle id="b5c5ae39-5a84-49b0-93ff-01f825042ef6" data-name="Ellipse 1-21" cx="869.52" cy="288.56" r="9.87" fill="#fff" opacity="0.23" style="isolation:isolate"/><circle id="a4dbbed0-f109-43f2-bf8c-859d970d2b7a" data-name="Ellipse 1-30" cx="1169.02" cy="288.56" r="9.87" fill="#fff" opacity="0.23" style="isolation:isolate"/><circle id="bffb38dd-926d-4de1-9efa-4b00ed484a69" data-name="Ellipse 1-31" cx="869.52" cy="321.81" r="9.87" fill="#fff" opacity="0.23" style="isolation:isolate"/><circle id="b6b3060c-5de7-4e42-a3c0-aac9ca9f6513" data-name="Ellipse 1-40" cx="1169.02" cy="321.81" r="9.87" fill="#fff" opacity="0.23" style="isolation:isolate"/><circle id="f6cbc9ee-0313-43a7-b9cf-01231973e197" data-name="Ellipse 1-41" cx="869.52" cy="357.52" r="9.87" fill="#fff" opacity="0.23" style="isolation:isolate"/><circle id="b86fbdd4-2410-4c57-b77e-9b37f3158d9c" data-name="Ellipse 1-50" cx="1169.02" cy="357.52" r="9.87" fill="#fff" opacity="0.23" style="isolation:isolate"/><circle id="a1b0f773-4a27-481f-af39-1ec824540c72" data-name="Ellipse 1-51" cx="869.52" cy="394.06" r="9.87" fill="#fff" opacity="0.23" style="isolation:isolate"/><circle id="e3ffdce4-1d65-4795-95de-7d4e8078cfdc" data-name="Ellipse 1-60" cx="1169.02" cy="394.06" r="9.87" fill="#fff" opacity="0.23" style="isolation:isolate"/><circle id="a3104f49-1c4f-4d41-af3a-0094dd45b0bf" data-name="Ellipse 1-61" cx="869.52" cy="429.78" r="9.87" fill="#fff" opacity="0.23" style="isolation:isolate"/><circle id="e59c96f3-fe32-45b6-8238-18f692856539" data-name="Ellipse 1-70" cx="1169.02" cy="429.78" r="9.87" fill="#fff" opacity="0.23" style="isolation:isolate"/><circle id="f56dac0a-86b6-47a5-b77e-6b2902fe4a16" data-name="Ellipse 1-71" cx="869.52" cy="463.03" r="9.87" fill="#fff" opacity="0.23" style="isolation:isolate"/><circle id="a702c853-0e98-483c-aca6-1e509d0d5b25" data-name="Ellipse 1-80" cx="1169.02" cy="463.03" r="9.87" fill="#fff" opacity="0.23" style="isolation:isolate"/><circle id="be191e35-cbfa-43a5-b55a-57efa3efacb6" data-name="Ellipse 1-81" cx="869.52" cy="493.8" r="9.87" fill="#fff" opacity="0.23" style="isolation:isolate"/><circle id="a30c6a7d-4e5d-436e-84fe-d1793290ebd7" data-name="Ellipse 1-90" cx="1169.02" cy="493.8" r="9.87" fill="#fff" opacity="0.23" style="isolation:isolate"/><circle id="fb9b85d0-be98-4287-b580-7b10cb398454" data-name="Ellipse 1-91" cx="869.52" cy="522.94" r="9.87" fill="#fff" opacity="0.23" style="isolation:isolate"/><circle id="bdc01df5-64ad-4ea5-8efb-6ad9dcf70f02" data-name="Ellipse 1-92" cx="900.92" cy="522.94" r="9.87" fill="#fff" opacity="0.23" style="isolation:isolate"/><circle id="a55f4a04-5f1a-4b03-bbe1-0724b290ee25" data-name="Ellipse 1-93" cx="933.47" cy="522.94" r="9.87" fill="#fff" opacity="0.23" style="isolation:isolate"/><circle id="b816d41a-9dcd-447c-aa9e-f172c9a9fc02" data-name="Ellipse 1-94" cx="967.25" cy="522.94" r="9.87" fill="#fff" opacity="0.23" style="isolation:isolate"/><circle id="bf8e5945-a562-467e-8bfd-8437ade0390e" data-name="Ellipse 1-95" cx="1001.77" cy="522.94" r="9.87" fill="#fff" opacity="0.23" style="isolation:isolate"/><circle id="f04689b5-07e9-4c4c-9480-8a4b9f07506c" data-name="Ellipse 1-96" cx="1036.7" cy="522.94" r="9.87" fill="#fff" opacity="0.23" style="isolation:isolate"/><circle id="e4b77277-5026-4250-8485-bb4788e8d183" data-name="Ellipse 1-97" cx="1071.3" cy="522.94" r="9.87" fill="#fff" opacity="0.23" style="isolation:isolate"/><circle id="b4e47758-5632-4dec-8906-7059560130e9" data-name="Ellipse 1-98" cx="1105" cy="522.94" r="9.87" fill="#fff" opacity="0.23" style="isolation:isolate"/><circle id="b7b3e9af-e201-44d6-869b-f0d8a6faaa73" data-name="Ellipse 1-99" cx="1137.55" cy="522.94" r="9.87" fill="#fff" opacity="0.23" style="isolation:isolate"/><circle id="ee835991-a409-48ba-b7d8-39af7c9d2919" data-name="Ellipse 1-100" cx="1169.02" cy="522.94" r="9.87" fill="#fff" opacity="0.23" style="isolation:isolate"/><circle id="a046a838-c399-4fdc-b96e-f532b5787e02" data-name="Ellipse 1-10" cx="1169.02" cy="226.73" r="9.87" fill="#fff" opacity="0.23" style="isolation:isolate"/><path d="M804.9,879v-1.64c4.78-.36,5.29-.71,5.29-5.65V849.13c0-5-.51-5.34-5.29-5.65v-1.72h16v1.72c-4.74.31-5.25.67-5.25,5.65v22.61c0,4.94.51,5.29,5.25,5.65V879Z" fill="#1d1d1b"/><path d="M882.52,843.48c-3.25.16-4.67.82-4.94,3.45a90.92,90.92,0,0,0-.35,9.76v22.93h-1.88l-25.76-29.87h-.08l0,14a93.08,93.08,0,0,0,.39,9.64c.27,3,1.6,3.68,5.64,4V879h-14v-1.64c3.37-.24,4.86-1,5.13-3.85a73.19,73.19,0,0,0,.47-9.79V851.44c0-4.2-.19-4.51-1.25-5.88-1.21-1.41-2.47-1.88-5.21-2.08v-1.72h9l25,28.3h.16V856.69a93.23,93.23,0,0,0-.39-9.56c-.28-2.71-1.65-3.45-5.84-3.65v-1.72h14Z" fill="#1d1d1b"/><path d="M922.47,850.73c-1-3.68-2.82-7.84-7.76-7.84a6,6,0,0,0-6.47,6.24c0,4,2.7,6,7.49,8.31,5,2.43,10.15,5.13,10.15,11.44,0,6.15-5.25,11-13.25,11a18,18,0,0,1-5.88-.94,19.4,19.4,0,0,1-2.9-1.21,86.94,86.94,0,0,1-1.61-9.13l1.77-.51c1,3.64,3.84,9.64,9.83,9.64,4.28,0,6.79-2.63,6.79-6.74s-3.14-6.12-7.61-8.47c-4.08-2-9.68-4.9-9.68-11.21,0-5.72,4.62-10.47,12.27-10.47a24.84,24.84,0,0,1,7.6,1.38c.24,2,.51,4.39,1,8.15Z" fill="#1d1d1b"/><path d="M977.74,851c-.62-2.86-1.25-4.39-2-5.37-1-1.34-2-1.77-6.46-1.77h-4v28c0,4.55.51,5.21,6.07,5.57V879H954v-1.64c5.37-.36,5.88-1,5.88-5.57v-28h-3.41c-5.1,0-6.31.55-7.1,1.77-.74,1-1.25,2.66-2,5.37H945.6c.28-3.73.55-7.53.67-10.7h1.25c.86,1.45,1.61,1.45,3.33,1.45h23.76a3.2,3.2,0,0,0,3-1.45h1.26c0,2.62.31,7.05.59,10.5Z" fill="#1d1d1b"/><path d="M999.23,879v-1.64c4.78-.36,5.29-.71,5.29-5.65V849.13c0-5-.51-5.34-5.29-5.65v-1.72h16v1.72c-4.74.31-5.25.67-5.25,5.65v22.61c0,4.94.51,5.29,5.25,5.65V879Z" fill="#1d1d1b"/><path d="M1067.09,851c-.63-2.86-1.26-4.39-2-5.37-1-1.34-2-1.77-6.47-1.77h-4v28c0,4.55.51,5.21,6.08,5.57V879h-17.37v-1.64c5.37-.36,5.88-1,5.88-5.57v-28h-3.41c-5.09,0-6.31.55-7.09,1.77-.75,1-1.26,2.66-2,5.37H1035c.27-3.73.54-7.53.66-10.7h1.26c.86,1.45,1.6,1.45,3.33,1.45H1064a3.2,3.2,0,0,0,3.06-1.45h1.25c0,2.62.32,7.05.59,10.5Z" fill="#1d1d1b"/><path d="M1129.46,843.48c-3.41.2-4.9,1.06-5.14,3.41A88,88,0,0,0,1124,856v4.51c0,6.78-1.1,11.76-4.51,15.29a15,15,0,0,1-10.78,4A15.72,15.72,0,0,1,1099,877c-3.61-2.66-5.33-7-5.33-13.91V849.44c0-5.29-.51-5.57-5.14-6v-1.72h15.72v1.72c-4.58.28-5.09.63-5.09,6v12.5c0,9.45,4,14.62,11.09,14.62,8.31,0,11.17-6.66,11.17-16.19V856a55.31,55.31,0,0,0-.47-9.25c-.31-2.19-1.65-3-5.68-3.25v-1.72h14.15Z" fill="#1d1d1b"/><path d="M1181.32,851c-.63-2.86-1.25-4.39-2-5.37-1-1.34-2-1.77-6.47-1.77h-4v28c0,4.55.51,5.21,6.07,5.57V879h-17.36v-1.64c5.37-.36,5.88-1,5.88-5.57v-28H1160c-5.1,0-6.31.55-7.1,1.77-.74,1-1.25,2.66-2,5.37h-1.76c.27-3.73.55-7.53.67-10.7h1.25c.86,1.45,1.61,1.45,3.33,1.45h23.76a3.2,3.2,0,0,0,3-1.45h1.26c0,2.62.31,7.05.59,10.5Z" fill="#1d1d1b"/><path d="M1233.62,869.74c-.39,2.16-1.53,7.45-2,9.29h-28.77v-1.64c5.29-.4,5.8-.94,5.8-5.65V849.28c0-5.25-.51-5.41-5.06-5.8v-1.72h26.58c.08,1.49.31,5.29.55,8.5l-1.81.24a15.48,15.48,0,0,0-1.92-5c-.86-1.25-2.47-1.65-6.5-1.65h-4.35c-1.92,0-2,.16-2,1.88v12.86h5.37c5.25,0,5.64-.47,6.39-4.35h1.76v11.25h-1.76c-.83-4.19-1.26-4.51-6.39-4.51h-5.37v10.55c0,2.7.31,4,1.41,4.7s3.33.67,6,.67c4.27,0,6-.4,7.37-1.89a19.94,19.94,0,0,0,3-5.52Z" fill="#1d1d1b"/><path d="M781.58,766.37c-2.15,7.5-6.54,19.83-9.33,24.87-4.72,1.07-18.87,4.5-30.77,4.5-41.39,0-59.83-27.34-59.83-52.1,0-33,26.7-54.68,63.9-54.68,13.72,0,25.3,3.75,29.81,4.5,1.28,8.9,2.46,15.65,3.43,24.55L774,719.08c-4.39-17.36-15.11-24.23-32.59-24.23-27.34,0-41.92,22.09-41.92,45.46,0,29.6,18.12,49.32,43.31,49.32,16.62,0,25.74-8.9,34.21-25.09Z" fill="#1d1d1b"/><path d="M854.27,793.28v-4.5c10-1.4,11.36-2.79,9.22-9.12s-5.15-14-8.58-23H820.5c-2.69,7.18-4.83,13.3-6.87,19.51-3.43,9.55-2.14,11.37,10,12.66v4.5H788.22v-4.5c10.4-1.61,12.65-2.68,18.34-16.62l33.66-81.81L845.8,689c10.29,27.77,20.58,55.64,31.2,83.2,5.14,13.83,7.4,15.54,17.8,16.62v4.5Zm-15.76-82.77h-.32c-5.15,13-10.19,26.37-15,39h29.37Z" fill="#1d1d1b"/><path d="M1015.52,696c-8.9.43-12.76,2.26-13.51,9.44-.53,5-1,12.11-1,26.7v62.72H995.9l-70.44-81.7h-.21l-.11,38.27a256.47,256.47,0,0,0,1.07,26.38c.75,8.15,4.4,10.08,15.44,10.94v4.5H903.27v-4.5c9.22-.65,13.29-2.68,14-10.51.64-4.93,1.29-12.33,1.29-26.81V717.8c0-11.47-.54-12.33-3.43-16.08-3.33-3.86-6.76-5.15-14.26-5.69v-4.71h24.66l68.29,77.41h.43V732.17A249.43,249.43,0,0,0,993.22,706c-.75-7.39-4.5-9.43-16-10v-4.71h38.27Z" fill="#1d1d1b"/><path d="M1081.35,689c28.2,0,53.72,20.58,53.72,52,0,33.88-25.41,54.78-55.86,54.78-30.13,0-54.15-22.19-54.15-52.42,0-28.42,21.34-54.36,56.18-54.36Zm-3.54,5.89c-18,0-35.16,14.69-35.16,44.39,0,28.84,17,50.61,40.1,50.61,18,0,34.52-14.37,34.52-44.71,0-32.92-18.23-50.29-39.35-50.29Z" fill="#1d1d1b"/><path d="M1201.65,738.49c16.4,2.15,28.95,9,28.95,24.77,0,10.51-5.79,18.65-15.23,23.8-8.25,4.4-19.19,6.22-31.95,6.22h-36.88v-4.5c13.72-1,14.8-2,14.8-15.23V711.26c0-13.4-.76-14.37-13.41-15.23v-4.71h42.46c12.22,0,19.19,1.82,24.55,5.46,5.58,3.76,9,10.62,9,17.91,0,14.9-13,21-22.3,23.27Zm-18.44-2c17.37,0,24.66-6.75,24.66-19.72,0-11.26-6.33-20.16-20.91-20.16-3.86,0-7.51.86-8.9,1.93s-1.82,2.79-1.82,7.61v30.34Zm-7,36.67c0,11.69,3.11,14.69,13.19,14.58,12.54-.21,23.9-6.64,23.9-22.83,0-15.76-10.93-23-30.44-23h-6.65Z" fill="#1d1d1b"/><path d="M1303.18,689c28.2,0,53.72,20.58,53.72,52,0,33.88-25.41,54.78-55.86,54.78-30.13,0-54.15-22.19-54.15-52.42,0-28.42,21.34-54.36,56.18-54.36Zm-3.54,5.89c-18,0-35.16,14.69-35.16,44.39,0,28.84,17,50.61,40.1,50.61,18,0,34.52-14.37,34.52-44.71,0-32.92-18.23-50.29-39.35-50.29Z" fill="#1d1d1b"/></svg>