<svg id="ff53d5bd-4a83-4f65-bbfc-fb00d4deb64d" data-name="Layer 1" xmlns="http://www.w3.org/2000/svg" width="719.15mm" height="376.02mm" viewBox="0 0 2038.55 1065.9"><rect x="196.41" y="326.14" width="413.62" height="413.62" fill="#e42520"/><circle id="ea817087-7deb-4635-bef0-7397b4f296c1" data-name="Ellipse 1-38" cx="488.95" cy="479.92" r="11.52" fill="#fff" opacity="0.51" style="isolation:isolate"/><circle id="ff95d4cf-a9b1-4309-8f4f-4c435b0a4642" data-name="Ellipse 1-45" cx="420.45" cy="516.44" r="13.25" fill="#fff"/><circle id="b474e306-c9f3-4a0c-ba73-2735e225d8f1" data-name="Ellipse 1-46" cx="420.45" cy="551.37" r="13.25" fill="#fff"/><circle id="ba05101d-4f46-4c66-aace-e198a833a3b0" data-name="Ellipse 1-55" cx="385.91" cy="516.44" r="13.25" fill="#fff"/><circle id="fe3d66ba-7602-45e2-a8f4-7b86e8fa1eb9" data-name="Ellipse 1-56" cx="385.91" cy="551.37" r="13.25" fill="#fff"/><circle id="af37a0b3-d414-4692-9294-c72f2f8251bc" data-name="Ellipse 1-34" cx="351.19" cy="479.92" r="13.16" fill="#fff" opacity="0.67" style="isolation:isolate"/><circle id="b8a72eb0-fc01-449a-9e23-dd660b584cd5" data-name="Ellipse 1-35" cx="385.71" cy="479.92" r="13.16" fill="#fff" opacity="0.67" style="isolation:isolate"/><circle id="b4bf8534-1464-4a1e-8168-1296593ed991" data-name="Ellipse 1-36" cx="420.65" cy="479.92" r="13.16" fill="#fff" opacity="0.67" style="isolation:isolate"/><circle id="b657772c-5a1b-40b1-b942-99d093d67c5c" data-name="Ellipse 1-37" cx="455.25" cy="479.92" r="13.16" fill="#fff" opacity="0.67" style="isolation:isolate"/><circle id="e65c8184-1838-4e0c-8c82-4b9f4362a3aa" data-name="Ellipse 1-44" cx="351.19" cy="515.64" r="13.16" fill="#fff" opacity="0.67" style="isolation:isolate"/><circle id="e96eca86-3688-4b10-81c2-fe55c01b2674" data-name="Ellipse 1-47" cx="455.25" cy="515.64" r="13.16" fill="#fff" opacity="0.67" style="isolation:isolate"/><circle id="bfa3bd2d-c76d-4927-9ba9-983ca1afe3eb" data-name="Ellipse 1-54" cx="351.19" cy="552.18" r="13.16" fill="#fff" opacity="0.67" style="isolation:isolate"/><circle id="ba6df276-a21b-45d0-b8a3-c173031beeda" data-name="Ellipse 1-57" cx="455.25" cy="552.18" r="13.16" fill="#fff" opacity="0.67" style="isolation:isolate"/><circle id="a788a7ae-1dd5-4e48-9349-f1e258b79806" data-name="Ellipse 1-64" cx="351.19" cy="587.89" r="13.16" fill="#fff" opacity="0.67" style="isolation:isolate"/><circle id="b46bf4c6-c7ef-4f7c-9b04-be6ec8c1c682" data-name="Ellipse 1-65" cx="385.71" cy="587.89" r="13.16" fill="#fff" opacity="0.67" style="isolation:isolate"/><circle id="e544f382-1c53-442c-9af8-6b116cc46628" data-name="Ellipse 1-66" cx="420.65" cy="587.89" r="13.16" fill="#fff" opacity="0.67" style="isolation:isolate"/><circle id="fa5c7b20-7591-4a0c-9c50-5b93352b43a3" data-name="Ellipse 1-67" cx="455.25" cy="587.89" r="13.16" fill="#fff" opacity="0.67" style="isolation:isolate"/><circle id="a58a7727-5d52-4e2b-9fe3-e0a8f97b5ac8" data-name="Ellipse 1-23" cx="317.41" cy="446.68" r="11.52" fill="#fff" opacity="0.51" style="isolation:isolate"/><circle id="b1d186ca-545d-4a27-b65b-c9d6042b3f87" data-name="Ellipse 1-24" cx="351.19" cy="446.68" r="11.52" fill="#fff" opacity="0.51" style="isolation:isolate"/><circle id="fb2ccbf2-54eb-4a21-a3f8-74f54ce8505f" data-name="Ellipse 1-25" cx="385.71" cy="446.68" r="11.52" fill="#fff" opacity="0.51" style="isolation:isolate"/><circle id="eddf90f2-acf3-4e23-8f18-3f5c9f5f7617" data-name="Ellipse 1-26" cx="420.65" cy="446.68" r="11.52" fill="#fff" opacity="0.51" style="isolation:isolate"/><circle id="f41f80f9-c8c0-4d6b-b040-0a19a4c5e823" data-name="Ellipse 1-27" cx="455.25" cy="446.68" r="11.52" fill="#fff" opacity="0.51" style="isolation:isolate"/><circle id="a1faccf6-c8f5-4697-b9f1-2d3cb5c5bd0d" data-name="Ellipse 1-28" cx="488.95" cy="446.68" r="11.52" fill="#fff" opacity="0.51" style="isolation:isolate"/><circle id="fcbd769c-d91f-4e17-ab70-9489c888a97d" data-name="Ellipse 1-33" cx="317.41" cy="479.92" r="11.52" fill="#fff" opacity="0.51" style="isolation:isolate"/><circle id="bfc60bb9-db47-4126-ae8d-8ea708d5776f" data-name="Ellipse 1-43" cx="317.41" cy="515.64" r="11.52" fill="#fff" opacity="0.51" style="isolation:isolate"/><circle id="e66c6022-2e6f-4020-8801-6de87a828abd" data-name="Ellipse 1-48" cx="488.95" cy="515.64" r="11.52" fill="#fff" opacity="0.51" style="isolation:isolate"/><circle id="f6e95f9a-312b-4e95-8256-ad1c52e4d679" data-name="Ellipse 1-53" cx="317.41" cy="552.18" r="11.52" fill="#fff" opacity="0.51" style="isolation:isolate"/><circle id="bc24cb3e-ac16-4490-af84-6aeffa6b928d" data-name="Ellipse 1-58" cx="488.95" cy="552.18" r="11.52" fill="#fff" opacity="0.51" style="isolation:isolate"/><circle id="a55f1305-0815-486a-b39a-2d1425c835cb" data-name="Ellipse 1-63" cx="317.41" cy="587.89" r="11.52" fill="#fff" opacity="0.51" style="isolation:isolate"/><circle id="f0969557-f22a-451a-af20-95f97d14d758" data-name="Ellipse 1-68" cx="488.95" cy="587.89" r="11.52" fill="#fff" opacity="0.51" style="isolation:isolate"/><circle id="e61c3f2e-f640-429e-90fe-e10b371076d0" data-name="Ellipse 1-73" cx="317.41" cy="621.14" r="11.52" fill="#fff" opacity="0.51" style="isolation:isolate"/><circle id="a216f660-bd74-40a9-893e-0f032ffee98a" data-name="Ellipse 1-74" cx="351.19" cy="621.14" r="11.52" fill="#fff" opacity="0.51" style="isolation:isolate"/><circle id="ed940abb-4aa0-4b40-90ef-f0ae2628ec06" data-name="Ellipse 1-75" cx="385.71" cy="621.14" r="11.52" fill="#fff" opacity="0.51" style="isolation:isolate"/><circle id="ab0855a2-fbcc-42a7-b6fd-56572b09e9c9" data-name="Ellipse 1-76" cx="420.65" cy="621.14" r="11.52" fill="#fff" opacity="0.51" style="isolation:isolate"/><circle id="f3d29584-fc95-4a9c-8fd5-76906ac7028a" data-name="Ellipse 1-77" cx="455.25" cy="621.14" r="11.52" fill="#fff" opacity="0.51" style="isolation:isolate"/><circle id="a7b6c1c5-6e4d-401a-bde9-9de050577769" data-name="Ellipse 1-78" cx="488.95" cy="621.14" r="11.52" fill="#fff" opacity="0.51" style="isolation:isolate"/><circle id="a5897079-b085-41d2-866a-6bcef2af9630" data-name="Ellipse 1-12" cx="284.87" cy="415.21" r="10.7" fill="#fff" opacity="0.47" style="isolation:isolate"/><circle id="a974720a-e82d-4598-b2ae-59ac0850082a" data-name="Ellipse 1-13" cx="317.41" cy="415.21" r="10.7" fill="#fff" opacity="0.47" style="isolation:isolate"/><circle id="ae85c061-716f-43d6-932d-727c2ac8e61d" data-name="Ellipse 1-14" cx="351.19" cy="415.21" r="10.7" fill="#fff" opacity="0.47" style="isolation:isolate"/><circle id="b108eb9f-4410-471f-8507-fc9e3c6aa2ff" data-name="Ellipse 1-15" cx="385.71" cy="415.21" r="10.7" fill="#fff" opacity="0.47" style="isolation:isolate"/><circle id="bc7b48e1-c3aa-4730-a3d8-d5ae4335360e" data-name="Ellipse 1-16" cx="420.65" cy="415.21" r="10.7" fill="#fff" opacity="0.47" style="isolation:isolate"/><circle id="b64a5f1c-2329-4a55-a6e3-bcdf8c3b8e95" data-name="Ellipse 1-17" cx="455.25" cy="415.21" r="10.7" fill="#fff" opacity="0.47" style="isolation:isolate"/><circle id="efd473a9-6e0c-4104-9cb1-253c8e9b53dd" data-name="Ellipse 1-18" cx="488.95" cy="415.21" r="10.7" fill="#fff" opacity="0.47" style="isolation:isolate"/><circle id="b4f0e835-22e7-411e-a545-244363dede99" data-name="Ellipse 1-19" cx="521.49" cy="415.21" r="10.7" fill="#fff" opacity="0.47" style="isolation:isolate"/><circle id="ad6228da-154f-4db0-9bc7-0f545722dfb4" data-name="Ellipse 1-22" cx="284.87" cy="446.68" r="10.7" fill="#fff" opacity="0.47" style="isolation:isolate"/><circle id="b5399134-1f69-4b9a-94aa-587aae524134" data-name="Ellipse 1-29" cx="521.49" cy="446.68" r="10.7" fill="#fff" opacity="0.47" style="isolation:isolate"/><circle id="a1c16e88-3048-4025-a711-847366cc2c77" data-name="Ellipse 1-32" cx="284.87" cy="479.92" r="10.7" fill="#fff" opacity="0.47" style="isolation:isolate"/><circle id="f1107c7a-4457-4d26-8816-54392c908a04" data-name="Ellipse 1-39" cx="521.49" cy="479.92" r="10.7" fill="#fff" opacity="0.47" style="isolation:isolate"/><circle id="b0059aa9-9be3-4f01-8065-84afe29b91b9" data-name="Ellipse 1-42" cx="284.87" cy="515.64" r="10.7" fill="#fff" opacity="0.47" style="isolation:isolate"/><circle id="b9d300e3-e105-43c0-9853-8ea45e84c6d1" data-name="Ellipse 1-49" cx="521.49" cy="515.64" r="10.7" fill="#fff" opacity="0.47" style="isolation:isolate"/><circle id="b4310cbc-dca6-4714-abb4-73a380db1490" data-name="Ellipse 1-52" cx="284.87" cy="552.18" r="10.7" fill="#fff" opacity="0.47" style="isolation:isolate"/><circle id="b655eca4-9a04-45b5-802f-d52b6b36b5be" data-name="Ellipse 1-59" cx="521.49" cy="552.18" r="10.7" fill="#fff" opacity="0.47" style="isolation:isolate"/><circle id="aac91698-b33c-4cfb-b58e-8bc2cc4fc027" data-name="Ellipse 1-62" cx="284.87" cy="587.89" r="10.7" fill="#fff" opacity="0.47" style="isolation:isolate"/><circle id="b24ada7b-b6be-4040-9b86-03089206a4e9" data-name="Ellipse 1-69" cx="521.49" cy="587.89" r="10.7" fill="#fff" opacity="0.47" style="isolation:isolate"/><circle id="a79f1f82-555e-460f-a172-85482f1b0c94" data-name="Ellipse 1-72" cx="284.87" cy="621.14" r="10.7" fill="#fff" opacity="0.47" style="isolation:isolate"/><circle id="b38a9a50-7c26-4e00-b39f-e396d4d6aa2f" data-name="Ellipse 1-79" cx="521.49" cy="621.14" r="10.7" fill="#fff" opacity="0.47" style="isolation:isolate"/><circle id="b25389e2-46a2-4828-b4a5-34e59e233d92" data-name="Ellipse 1-82" cx="284.87" cy="651.92" r="10.7" fill="#fff" opacity="0.47" style="isolation:isolate"/><circle id="eac41389-8b71-482d-97ae-cf66785a727c" data-name="Ellipse 1-83" cx="317.41" cy="651.92" r="10.7" fill="#fff" opacity="0.47" style="isolation:isolate"/><circle id="b721bbf5-3ca6-431c-94ad-c68094ed5779" data-name="Ellipse 1-84" cx="351.19" cy="651.92" r="10.7" fill="#fff" opacity="0.47" style="isolation:isolate"/><circle id="fd8c9490-107f-400f-95bf-47429fbf267f" data-name="Ellipse 1-85" cx="385.71" cy="651.92" r="10.7" fill="#fff" opacity="0.47" style="isolation:isolate"/><circle id="f94e6a75-df8f-4dc1-ba0d-f8606c9d118b" data-name="Ellipse 1-86" cx="420.65" cy="651.92" r="10.7" fill="#fff" opacity="0.47" style="isolation:isolate"/><circle id="b8b5b6a0-e4c7-48f0-8a71-fe43ac35401e" data-name="Ellipse 1-87" cx="455.25" cy="651.92" r="10.7" fill="#fff" opacity="0.47" style="isolation:isolate"/><circle id="fd707a0b-4f65-4054-9bf3-da8762f806f4" data-name="Ellipse 1-88" cx="488.95" cy="651.92" r="10.7" fill="#fff" opacity="0.47" style="isolation:isolate"/><circle id="ecfb35d4-5f12-4c0e-9b9c-dd8792dd40d6" data-name="Ellipse 1-89" cx="521.49" cy="651.92" r="10.7" fill="#fff" opacity="0.47" style="isolation:isolate"/><circle id="e75e83d9-7e56-4672-96aa-4824d19fc596" data-name="Ellipse 1" cx="253.47" cy="384.85" r="9.87" fill="#fff" opacity="0.23" style="isolation:isolate"/><circle id="a0809b62-025c-4865-91ad-d32e247c14d3" data-name="Ellipse 1-2" cx="284.87" cy="384.85" r="9.87" fill="#fff" opacity="0.23" style="isolation:isolate"/><circle id="fb3182da-eda5-4aff-bd33-b7d7798802ea" data-name="Ellipse 1-3" cx="317.41" cy="384.85" r="9.87" fill="#fff" opacity="0.23" style="isolation:isolate"/><circle id="a30b56c3-6613-489f-8db5-38e2c186b97d" data-name="Ellipse 1-4" cx="351.19" cy="384.85" r="9.87" fill="#fff" opacity="0.23" style="isolation:isolate"/><circle id="bbad70e6-e3b0-4d06-9f04-f4bf594dadba" data-name="Ellipse 1-5" cx="385.71" cy="384.85" r="9.87" fill="#fff" opacity="0.23" style="isolation:isolate"/><circle id="b955ef43-0677-444c-a25c-fe6fb249986f" data-name="Ellipse 1-6" cx="420.65" cy="384.85" r="9.87" fill="#fff" opacity="0.23" style="isolation:isolate"/><circle id="b8e7f00d-9779-4102-bb6e-0e243780fbf5" data-name="Ellipse 1-7" cx="455.25" cy="384.85" r="9.87" fill="#fff" opacity="0.23" style="isolation:isolate"/><circle id="b1ae4fe0-1cf1-4838-a37d-087bf1056388" data-name="Ellipse 1-8" cx="488.95" cy="384.85" r="9.87" fill="#fff" opacity="0.23" style="isolation:isolate"/><circle id="a23e7242-c57d-4ab4-88a3-83f31a48d53d" data-name="Ellipse 1-9" cx="521.49" cy="384.85" r="9.87" fill="#fff" opacity="0.23" style="isolation:isolate"/><circle id="ef7fc11b-f537-45cb-ac99-a8b76dfb88cd" data-name="Ellipse 1-11" cx="253.47" cy="415.21" r="9.87" fill="#fff" opacity="0.23" style="isolation:isolate"/><circle id="ee21db4b-a860-4bcf-bb83-d968e970933d" data-name="Ellipse 1-20" cx="552.97" cy="415.21" r="9.87" fill="#fff" opacity="0.23" style="isolation:isolate"/><circle id="bfbe6480-a98c-4d68-a873-9e2c7ab7c381" data-name="Ellipse 1-21" cx="253.47" cy="446.68" r="9.87" fill="#fff" opacity="0.23" style="isolation:isolate"/><circle id="eba98660-95b2-4d70-82d7-05006a8d7fb7" data-name="Ellipse 1-30" cx="552.97" cy="446.68" r="9.87" fill="#fff" opacity="0.23" style="isolation:isolate"/><circle id="a67fbb96-8883-40a6-ac41-530fb6d0f5b4" data-name="Ellipse 1-31" cx="253.47" cy="479.92" r="9.87" fill="#fff" opacity="0.23" style="isolation:isolate"/><circle id="e1de5ba2-d855-4c86-afcb-9f0d7d4f1a0f" data-name="Ellipse 1-40" cx="552.97" cy="479.92" r="9.87" fill="#fff" opacity="0.23" style="isolation:isolate"/><circle id="f3c14709-0779-4199-a034-dfd0cae857eb" data-name="Ellipse 1-41" cx="253.47" cy="515.64" r="9.87" fill="#fff" opacity="0.23" style="isolation:isolate"/><circle id="b9cdda74-acc5-49db-9441-79eccc720038" data-name="Ellipse 1-50" cx="552.97" cy="515.64" r="9.87" fill="#fff" opacity="0.23" style="isolation:isolate"/><circle id="b931e0d3-3db5-4b7d-8488-2d54b6870322" data-name="Ellipse 1-51" cx="253.47" cy="552.18" r="9.87" fill="#fff" opacity="0.23" style="isolation:isolate"/><circle id="b8d450e0-25ec-4e21-b93a-c2afbd737687" data-name="Ellipse 1-60" cx="552.97" cy="552.18" r="9.87" fill="#fff" opacity="0.23" style="isolation:isolate"/><circle id="b0a39eb3-8071-4aef-a4dd-e3adf5e8618d" data-name="Ellipse 1-61" cx="253.47" cy="587.89" r="9.87" fill="#fff" opacity="0.23" style="isolation:isolate"/><circle id="a52ed9bc-2c80-4c9f-a130-c46035660ebb" data-name="Ellipse 1-70" cx="552.97" cy="587.89" r="9.87" fill="#fff" opacity="0.23" style="isolation:isolate"/><circle id="a03225a9-ae9b-4257-a564-9e169296238e" data-name="Ellipse 1-71" cx="253.47" cy="621.14" r="9.87" fill="#fff" opacity="0.23" style="isolation:isolate"/><circle id="b55ecaa4-ae8e-4106-8ed7-c586a37da6d6" data-name="Ellipse 1-80" cx="552.97" cy="621.14" r="9.87" fill="#fff" opacity="0.23" style="isolation:isolate"/><circle id="a21eae5a-2dc0-41e8-8470-bfeae44f6d26" data-name="Ellipse 1-81" cx="253.47" cy="651.92" r="9.87" fill="#fff" opacity="0.23" style="isolation:isolate"/><circle id="e6291492-46e2-4c1f-9503-1eb87231b447" data-name="Ellipse 1-90" cx="552.97" cy="651.92" r="9.87" fill="#fff" opacity="0.23" style="isolation:isolate"/><circle id="f8fd37f2-bafc-412e-932e-c1c16c0a3612" data-name="Ellipse 1-91" cx="253.47" cy="681.05" r="9.87" fill="#fff" opacity="0.23" style="isolation:isolate"/><circle id="adc71e9c-d9b3-4718-92d9-1196ae17c950" data-name="Ellipse 1-92" cx="284.87" cy="681.05" r="9.87" fill="#fff" opacity="0.23" style="isolation:isolate"/><circle id="bed2a7dc-b149-40f7-acf8-52e89029aa4d" data-name="Ellipse 1-93" cx="317.41" cy="681.05" r="9.87" fill="#fff" opacity="0.23" style="isolation:isolate"/><circle id="af6ee801-9267-4dab-a73a-e5a90d766a9e" data-name="Ellipse 1-94" cx="351.19" cy="681.05" r="9.87" fill="#fff" opacity="0.23" style="isolation:isolate"/><circle id="a29999c1-757a-4725-b5c9-64bbfe54282d" data-name="Ellipse 1-95" cx="385.71" cy="681.05" r="9.87" fill="#fff" opacity="0.23" style="isolation:isolate"/><circle id="a5b0992a-5618-47df-8475-a93a6638199c" data-name="Ellipse 1-96" cx="420.65" cy="681.05" r="9.87" fill="#fff" opacity="0.23" style="isolation:isolate"/><circle id="b0a11f46-4114-478c-812d-c2d0b366def7" data-name="Ellipse 1-97" cx="455.25" cy="681.05" r="9.87" fill="#fff" opacity="0.23" style="isolation:isolate"/><circle id="e8e49924-018e-4a7a-928c-7d37e64d0362" data-name="Ellipse 1-98" cx="488.95" cy="681.05" r="9.87" fill="#fff" opacity="0.23" style="isolation:isolate"/><circle id="aaeebce1-d67e-457a-924c-d7c86c995fa6" data-name="Ellipse 1-99" cx="521.49" cy="681.05" r="9.87" fill="#fff" opacity="0.23" style="isolation:isolate"/><circle id="b8da9f50-f6df-4397-9fb5-6e99a1c0dd58" data-name="Ellipse 1-100" cx="552.97" cy="681.05" r="9.87" fill="#fff" opacity="0.23" style="isolation:isolate"/><circle id="f678bc13-51da-4af2-9635-2c1f1fd856ad" data-name="Ellipse 1-10" cx="552.97" cy="384.85" r="9.87" fill="#fff" opacity="0.23" style="isolation:isolate"/><path d="M750,679.73v-3.81c11.08-.82,12.26-1.64,12.26-13.08v-52.4c0-11.54-1.18-12.36-12.26-13.08v-4h37.06v4c-11,.72-12.17,1.54-12.17,13.08v52.4c0,11.44,1.18,12.26,12.17,13.08v3.81Z" fill="#1d1d1b"/><path d="M929.85,597.36c-7.53.36-10.8,1.9-11.44,8a213.55,213.55,0,0,0-.82,22.61v53.13h-4.36l-59.66-69.2h-.19l-.09,32.42a218,218,0,0,0,.91,22.34c.64,6.91,3.72,8.54,13.08,9.27v3.81H834.77v-3.81c7.81-.55,11.26-2.27,11.89-8.9.55-4.18,1.09-10.45,1.09-22.71V615.79c0-9.71-.45-10.44-2.9-13.62-2.82-3.27-5.73-4.36-12.08-4.81v-4h20.89l57.85,65.57h.36V628A209.13,209.13,0,0,0,911,605.8c-.63-6.26-3.81-8-13.53-8.44v-4h32.42Z" fill="#1d1d1b"/><path d="M1022.42,614.16c-2.36-8.54-6.54-18.16-18-18.16-10.18,0-15,7.17-15,14.44,0,9.35,6.27,13.89,17.35,19.25,11.53,5.63,23.52,11.9,23.52,26.52,0,14.26-12.17,25.61-30.7,25.61A41.82,41.82,0,0,1,986,679.64a42.94,42.94,0,0,1-6.72-2.82c-.91-2.63-2.91-14.71-3.72-21.16l4.08-1.18c2.27,8.45,8.9,22.34,22.8,22.34,9.9,0,15.71-6.08,15.71-15.62s-7.27-14.16-17.62-19.61c-9.44-4.73-22.43-11.36-22.43-26,0-13.26,10.71-24.25,28.42-24.25a58.08,58.08,0,0,1,17.62,3.18c.55,4.72,1.18,10.17,2.37,18.89Z" fill="#1d1d1b"/><path d="M1150.49,614.79c-1.45-6.63-2.9-10.17-4.63-12.44-2.27-3.09-4.63-4.08-15-4.08h-9.27V663c0,10.54,1.18,12.08,14.08,12.9v3.81h-40.23v-3.81c12.44-.82,13.62-2.27,13.62-12.9V598.27h-7.9c-11.81,0-14.62,1.27-16.44,4.08-1.73,2.27-2.91,6.18-4.63,12.44H1076c.64-8.62,1.27-17.43,1.54-24.79h2.91c2,3.36,3.72,3.36,7.72,3.36h55c3.72,0,5-.82,7.08-3.36h2.91c0,6.09.72,16.35,1.36,24.34Z" fill="#1d1d1b"/><path d="M1200.28,679.73v-3.81c11.08-.82,12.26-1.64,12.26-13.08v-52.4c0-11.54-1.18-12.36-12.26-13.08v-4h37.06v4c-11,.72-12.17,1.54-12.17,13.08v52.4c0,11.44,1.18,12.26,12.17,13.08v3.81Z" fill="#1d1d1b"/><path d="M1357.51,614.79c-1.45-6.63-2.91-10.17-4.63-12.44-2.27-3.09-4.63-4.08-15-4.08h-9.26V663c0,10.54,1.18,12.08,14.08,12.9v3.81h-40.24v-3.81c12.44-.82,13.62-2.27,13.62-12.9V598.27h-7.9c-11.8,0-14.62,1.27-16.43,4.08-1.73,2.27-2.91,6.18-4.64,12.44H1283c.63-8.62,1.27-17.43,1.54-24.79h2.91c2,3.36,3.72,3.36,7.72,3.36h55c3.73,0,5-.82,7.09-3.36h2.9c0,6.09.73,16.35,1.37,24.34Z" fill="#1d1d1b"/><path d="M1502,597.36c-7.9.45-11.35,2.45-11.9,7.9a200.08,200.08,0,0,0-.81,21.07v10.44c0,15.72-2.55,27.25-10.45,35.42-6.35,6.45-15.62,9.36-25,9.36-8.36,0-16.26-1.82-22.34-6.45-8.36-6.18-12.36-16.26-12.36-32.24v-31.7c0-12.26-1.18-12.89-11.89-13.8v-4h36.42v4c-10.63.63-11.81,1.45-11.81,13.8v29c0,21.89,9.17,33.88,25.7,33.88,19.26,0,25.88-15.44,25.88-37.51V626.33c0-12-.36-17.26-1.08-21.43-.73-5.09-3.82-6.91-13.17-7.54v-4H1502Z" fill="#1d1d1b"/><path d="M1622.2,614.79c-1.46-6.63-2.91-10.17-4.64-12.44-2.27-3.09-4.63-4.08-15-4.08h-9.27V663c0,10.54,1.19,12.08,14.08,12.9v3.81h-40.23v-3.81c12.44-.82,13.62-2.27,13.62-12.9V598.27h-7.9c-11.81,0-14.62,1.27-16.44,4.08-1.72,2.27-2.9,6.18-4.63,12.44h-4.09c.64-8.62,1.27-17.43,1.55-24.79h2.9c2,3.36,3.73,3.36,7.72,3.36h55c3.72,0,5-.82,7.08-3.36h2.91c0,6.09.73,16.35,1.36,24.34Z" fill="#1d1d1b"/><path d="M1743.37,658.21c-.91,5-3.54,17.25-4.72,21.52H1672v-3.81c12.26-.91,13.44-2.18,13.44-13.08v-52c0-12.17-1.18-12.53-11.71-13.44v-4h61.58c.18,3.45.72,12.26,1.27,19.71l-4.18.54a36.8,36.8,0,0,0-4.45-11.53c-2-2.91-5.72-3.81-15.08-3.81h-10.08c-4.45,0-4.72.36-4.72,4.35v29.79h12.44c12.17,0,13.08-1.09,14.81-10.08h4.08V648.4h-4.08c-1.91-9.72-2.91-10.45-14.81-10.45h-12.44v24.43c0,6.27.73,9.27,3.27,10.9s7.72,1.55,13.89,1.55c9.9,0,14-.91,17.08-4.36a46.15,46.15,0,0,0,6.9-12.81Z" fill="#1d1d1b"/><path d="M897,498c-3.16,11-9.63,29.18-13.73,36.6-6.94,1.58-27.76,6.62-45.27,6.62-60.89,0-88-40.22-88-76.66,0-48.59,39.28-80.45,94-80.45,20.19,0,37.23,5.52,43.86,6.62,1.89,13.1,3.62,23,5,36.13l-7.09,1.57c-6.47-25.55-22.25-35.65-48-35.65-40.23,0-61.68,32.5-61.68,66.89,0,43.54,26.66,72.56,63.73,72.56,24.45,0,37.86-13.09,50.32-36.91Z" fill="#1d1d1b"/><path d="M1003.94,537.57v-6.63c14.67-2.05,16.72-4.1,13.56-13.41-3.31-9.15-7.57-20.66-12.62-33.91H954.25c-4,10.57-7.1,19.56-10.1,28.71-5,14-3.15,16.72,14.67,18.61v6.63H906.77v-6.63c15.3-2.37,18.61-3.94,27-24.45l49.53-120.36,8.21-2.05c15.14,40.85,30.28,81.87,45.9,122.41,7.57,20.35,10.88,22.87,26.19,24.45v6.63ZM980.75,415.79h-.47c-7.58,19.08-15,38.8-22.09,57.42h43.22Z" fill="#1d1d1b"/><path d="M1241.19,394.49c-13.09.63-18.77,3.31-19.88,13.88-.78,7.42-1.42,17.83-1.42,39.28v92.28h-7.57l-103.64-120.2h-.31l-.16,56.31c0,21.3,1,32.19,1.58,38.81,1.1,12,6.46,14.83,22.71,16.09v6.63H1076v-6.63c13.56-1,19.56-3.94,20.66-15.46,1-7.25,1.9-18.14,1.9-39.44V426.51c0-16.88-.79-18.14-5-23.66-4.89-5.68-9.94-7.57-21-8.36v-6.94h36.28l100.49,113.89h.63V447.65c0-21.45-1-31.86-1.58-38.49-1.11-10.88-6.63-13.88-23.51-14.67v-6.94h56.32Z" fill="#1d1d1b"/><path d="M1338.05,384.08c41.48,0,79,30.29,79,76.51,0,49.84-37.39,80.6-82.19,80.6-44.33,0-79.66-32.65-79.66-77.13,0-41.81,31.39-80,82.66-80Zm-5.21,8.67c-26.5,0-51.74,21.62-51.74,65.31,0,42.44,25.08,74.46,59,74.46,26.5,0,50.79-21.14,50.79-65.78,0-48.43-26.81-74-57.89-74Z" fill="#1d1d1b"/><path d="M1515,457c24.14,3.15,42.59,13.25,42.59,36.44,0,15.46-8.52,27.44-22.4,35-12.15,6.46-28.24,9.15-47,9.15H1434v-6.63c20.19-1.42,21.77-3,21.77-22.4V416.89c0-19.72-1.11-21.14-19.72-22.4v-6.94h62.47c18,0,28.23,2.68,36.12,8,8.2,5.52,13.25,15.62,13.25,26.35,0,21.92-19.09,30.92-32.81,34.23Zm-27.13-3c25.55,0,36.28-9.94,36.28-29,0-16.56-9.31-29.65-30.76-29.65-5.68,0-11,1.26-13.09,2.84-2.06,1.42-2.69,4.1-2.69,11.2V454Zm-10.26,54c0,17.19,4.58,21.61,19.41,21.45,18.45-.31,35.17-9.78,35.17-33.6,0-23.19-16.09-33.75-44.8-33.75h-9.78Z" fill="#1d1d1b"/><path d="M1664.43,384.08c41.48,0,79,30.29,79,76.51,0,49.84-37.39,80.6-82.19,80.6-44.33,0-79.66-32.65-79.66-77.13,0-41.81,31.39-80,82.66-80Zm-5.21,8.67c-26.5,0-51.74,21.62-51.74,65.31,0,42.44,25.08,74.46,59,74.46,26.5,0,50.79-21.14,50.79-65.78,0-48.43-26.82-74-57.89-74Z" fill="#1d1d1b"/></svg>