<svg xmlns="http://www.w3.org/2000/svg" width="29.795" height="24.199" viewBox="0 0 29.795 24.199">
  <path id="Icon_awesome-twitter" data-name="Icon awesome-twitter" d="M26.732,9.412c.019.265.019.529.019.794,0,8.073-6.144,17.374-17.374,17.374A17.256,17.256,0,0,1,0,24.839a12.633,12.633,0,0,0,1.475.076,12.23,12.23,0,0,0,7.581-2.609,6.117,6.117,0,0,1-5.71-4.235,7.7,7.7,0,0,0,1.153.095,6.458,6.458,0,0,0,1.607-.208,6.107,6.107,0,0,1-4.9-5.993v-.076a6.15,6.15,0,0,0,2.76.775A6.116,6.116,0,0,1,2.08,4.5a17.357,17.357,0,0,0,12.591,6.39,6.894,6.894,0,0,1-.151-1.4A6.112,6.112,0,0,1,25.088,5.309a12.023,12.023,0,0,0,3.876-1.475A6.09,6.09,0,0,1,26.279,7.2,12.242,12.242,0,0,0,29.8,6.254a13.127,13.127,0,0,1-3.063,3.157Z" transform="translate(0 -3.381)" fill="#fff"/>
</svg>
