<svg xmlns="http://www.w3.org/2000/svg" width="27.469" height="27.469" viewBox="0 0 27.469 27.469">
  <path id="Icon_awesome-telegram" data-name="Icon awesome-telegram" d="M13.735.563A13.735,13.735,0,1,0,27.469,14.3,13.732,13.732,0,0,0,13.735.563ZM20.48,9.972,18.226,20.594c-.166.753-.615.936-1.241.582l-3.434-2.531L11.9,20.24a.867.867,0,0,1-.692.338l.244-3.495,6.363-5.749c.277-.244-.061-.382-.426-.138L9.52,16.147,6.131,15.089c-.737-.233-.753-.737.155-1.091L19.528,8.892c.615-.222,1.152.15.953,1.08Z" transform="translate(0 -0.563)" fill="#e8e8e8"/>
</svg>
