<svg xmlns="http://www.w3.org/2000/svg" width="28.355" height="23.03" viewBox="0 0 28.355 23.03">
  <path id="Icon_awesome-twitter" data-name="Icon awesome-twitter" d="M25.441,9.12c.018.252.018.5.018.756,0,7.683-5.847,16.535-16.535,16.535A16.423,16.423,0,0,1,0,23.8a12.022,12.022,0,0,0,1.4.072,11.639,11.639,0,0,0,7.215-2.483,5.822,5.822,0,0,1-5.434-4.03,7.328,7.328,0,0,0,1.1.09,6.146,6.146,0,0,0,1.529-.2,5.812,5.812,0,0,1-4.66-5.7v-.072a5.853,5.853,0,0,0,2.627.738,5.82,5.82,0,0,1-1.8-7.773,16.519,16.519,0,0,0,11.983,6.081,6.56,6.56,0,0,1-.144-1.331A5.817,5.817,0,0,1,23.875,5.216a11.442,11.442,0,0,0,3.688-1.4,5.8,5.8,0,0,1-2.555,3.2,11.65,11.65,0,0,0,3.346-.9,12.492,12.492,0,0,1-2.915,3Z" transform="translate(0 -3.381)" fill="#e8e8e8"/>
</svg>
