<svg xmlns="http://www.w3.org/2000/svg" width="27.469" height="26.783" viewBox="0 0 27.469 26.783">
  <path id="Icon_awesome-github" data-name="Icon awesome-github" d="M9.188,22.128c0,.111-.127.2-.288.2-.183.017-.31-.072-.31-.2,0-.111.127-.2.288-.2C9.044,21.912,9.188,22,9.188,22.128Zm-1.722-.249c-.039.111.072.238.238.271a.26.26,0,0,0,.343-.111c.033-.111-.072-.238-.238-.288A.284.284,0,0,0,7.465,21.879Zm2.448-.094c-.161.039-.271.144-.255.271.017.111.161.183.327.144s.271-.144.255-.255S10.074,21.768,9.913,21.785ZM13.557.563A13.28,13.28,0,0,0,0,14.076,13.885,13.885,0,0,0,9.387,27.323c.709.127.958-.31.958-.67,0-.343-.017-2.237-.017-3.4,0,0-3.877.831-4.691-1.65,0,0-.631-1.612-1.54-2.027,0,0-1.268-.869.089-.853a2.923,2.923,0,0,1,2.138,1.429,2.928,2.928,0,0,0,4.037,1.157,3.078,3.078,0,0,1,.886-1.866c-3.1-.343-6.219-.792-6.219-6.12A4.2,4.2,0,0,1,6.336,10.06,5.233,5.233,0,0,1,6.48,6.3C7.637,5.94,10.3,7.8,10.3,7.8a13.083,13.083,0,0,1,6.956,0s2.664-1.861,3.821-1.5a5.23,5.23,0,0,1,.144,3.76,4.3,4.3,0,0,1,1.429,3.262c0,5.344-3.262,5.771-6.358,6.12a3.275,3.275,0,0,1,.941,2.57c0,1.866-.017,4.176-.017,4.63,0,.36.255.8.958.67a13.757,13.757,0,0,0,9.293-13.236A13.579,13.579,0,0,0,13.557.563Zm-8.174,19.1c-.072.055-.055.183.039.288.089.089.216.127.288.055.072-.055.055-.183-.039-.288C5.582,19.63,5.455,19.592,5.383,19.664Zm-.6-.449c-.039.072.017.161.127.216a.165.165,0,0,0,.238-.039c.039-.072-.017-.161-.127-.216C4.912,19.143,4.824,19.16,4.785,19.215Zm1.794,1.972c-.089.072-.055.238.072.343.127.127.288.144.36.055.072-.072.039-.238-.072-.343C6.817,21.115,6.651,21.1,6.579,21.187Zm-.631-.814c-.089.055-.089.2,0,.327s.238.183.31.127a.253.253,0,0,0,0-.343C6.181,20.356,6.037,20.3,5.948,20.373Z" transform="translate(0 -0.563)" fill="#e8e8e8"/>
</svg>
