<svg xmlns="http://www.w3.org/2000/svg" width="143.822" height="142.505" viewBox="0 0 143.822 142.505">
  <g id="Group_58" data-name="Group 58" opacity="0.596">
    <ellipse id="Ellipse_1-91" data-name="Ellipse 1-91" cx="4.449" cy="4.449" rx="4.449" ry="4.449" transform="translate(134.924 133.607)" fill="#6465fd" opacity="0.23" style="isolation: isolate"/>
    <ellipse id="Ellipse_1-92" data-name="Ellipse 1-92" cx="4.449" cy="4.449" rx="4.449" ry="4.449" transform="translate(120.781 133.607)" fill="#fe0400" opacity="0.23" style="isolation: isolate"/>
    <ellipse id="Ellipse_1-93" data-name="Ellipse 1-93" cx="4.449" cy="4.449" rx="4.449" ry="4.449" transform="translate(106.12 133.607)" fill="#6465fd" opacity="0.23" style="isolation: isolate"/>
    <ellipse id="Ellipse_1-94" data-name="Ellipse 1-94" cx="4.449" cy="4.449" rx="4.449" ry="4.449" transform="translate(90.901 133.607)" fill="#04cc32" opacity="0.23" style="isolation: isolate"/>
    <ellipse id="Ellipse_1-95" data-name="Ellipse 1-95" cx="4.449" cy="4.449" rx="4.449" ry="4.449" transform="translate(75.35 133.607)" fill="#04cc32" opacity="0.23" style="isolation: isolate"/>
    <ellipse id="Ellipse_1-96" data-name="Ellipse 1-96" cx="4.449" cy="4.449" rx="4.449" ry="4.449" transform="translate(59.612 133.607)" fill="#fe0400" opacity="0.23" style="isolation: isolate"/>
    <ellipse id="Ellipse_1-97" data-name="Ellipse 1-97" cx="4.449" cy="4.449" rx="4.449" ry="4.449" transform="translate(44.023 133.607)" fill="#fe0400" opacity="0.23" style="isolation: isolate"/>
    <ellipse id="Ellipse_1-98" data-name="Ellipse 1-98" cx="4.449" cy="4.449" rx="4.449" ry="4.449" transform="translate(28.842 133.607)" fill="#fffe10" opacity="0.23" style="isolation: isolate"/>
    <ellipse id="Ellipse_1-99" data-name="Ellipse 1-99" cx="4.449" cy="4.449" rx="4.449" ry="4.449" transform="translate(14.179 133.607)" fill="#04cc32" opacity="0.23" style="isolation: isolate"/>
    <ellipse id="Ellipse_1-100" data-name="Ellipse 1-100" cx="4.449" cy="4.449" rx="4.449" ry="4.449" transform="translate(0 133.607)" fill="#04cc32" opacity="0.23" style="isolation: isolate"/>
    <ellipse id="Ellipse_1-38" data-name="Ellipse 1-38" cx="5.189" cy="5.189" rx="5.189" ry="5.189" transform="translate(28.102 89.87)" fill="#6465fd" opacity="0.51" style="isolation: isolate"/>
    <path id="Ellipse_1-45" data-name="Ellipse 1-45" d="M5.969,11.939a5.969,5.969,0,1,1,5.969-5.969A5.969,5.969,0,0,1,5.969,11.939Z" transform="translate(58.181 72.638)" fill="#04cc32"/>
    <ellipse id="Ellipse_1-46" data-name="Ellipse 1-46" cx="5.969" cy="5.969" rx="5.969" ry="5.969" transform="translate(58.181 56.901)" fill="#fffe10"/>
    <path id="Ellipse_1-55" data-name="Ellipse 1-55" d="M5.969,11.939a5.969,5.969,0,1,1,5.969-5.969A5.969,5.969,0,0,1,5.969,11.939Z" transform="translate(73.74 72.638)" fill="#fe0400"/>
    <ellipse id="Ellipse_1-56" data-name="Ellipse 1-56" cx="5.969" cy="5.969" rx="5.969" ry="5.969" transform="translate(73.74 56.901)" fill="#6465fd"/>
    <ellipse id="Ellipse_1-34" data-name="Ellipse 1-34" cx="5.931" cy="5.931" rx="5.931" ry="5.931" transform="translate(89.419 89.128)" fill="#fffe10" opacity="0.67" style="isolation: isolate"/>
    <ellipse id="Ellipse_1-35" data-name="Ellipse 1-35" cx="5.931" cy="5.931" rx="5.931" ry="5.931" transform="translate(73.868 89.128)" fill="#fffe10" opacity="0.67" style="isolation: isolate"/>
    <ellipse id="Ellipse_1-36" data-name="Ellipse 1-36" cx="5.931" cy="5.931" rx="5.931" ry="5.931" transform="translate(58.13 89.128)" fill="#6465fd" opacity="0.67" style="isolation: isolate"/>
    <ellipse id="Ellipse_1-37" data-name="Ellipse 1-37" cx="5.931" cy="5.931" rx="5.931" ry="5.931" transform="translate(42.541 89.128)" fill="#04cc32" opacity="0.67" style="isolation: isolate"/>
    <ellipse id="Ellipse_1-44" data-name="Ellipse 1-44" cx="5.931" cy="5.931" rx="5.931" ry="5.931" transform="translate(89.419 73.038)" fill="#fe0400" opacity="0.67" style="isolation: isolate"/>
    <ellipse id="Ellipse_1-47" data-name="Ellipse 1-47" cx="5.931" cy="5.931" rx="5.931" ry="5.931" transform="translate(42.541 73.038)" fill="#6465fd" opacity="0.67" style="isolation: isolate"/>
    <ellipse id="Ellipse_1-54" data-name="Ellipse 1-54" cx="5.931" cy="5.931" rx="5.931" ry="5.931" transform="translate(89.419 56.577)" fill="#6465fd" opacity="0.67" style="isolation: isolate"/>
    <ellipse id="Ellipse_1-57" data-name="Ellipse 1-57" cx="5.931" cy="5.931" rx="5.931" ry="5.931" transform="translate(42.541 56.577)" fill="#fe0400" opacity="0.67" style="isolation: isolate"/>
    <ellipse id="Ellipse_1-64" data-name="Ellipse 1-64" cx="5.931" cy="5.931" rx="5.931" ry="5.931" transform="translate(89.419 40.487)" fill="#04cc32" opacity="0.67" style="isolation: isolate"/>
    <ellipse id="Ellipse_1-65" data-name="Ellipse 1-65" cx="5.931" cy="5.931" rx="5.931" ry="5.931" transform="translate(73.868 40.487)" fill="#6465fd" opacity="0.67" style="isolation: isolate"/>
    <ellipse id="Ellipse_1-66" data-name="Ellipse 1-66" cx="5.931" cy="5.931" rx="5.931" ry="5.931" transform="translate(58.13 40.487)" fill="#fe0400" opacity="0.67" style="isolation: isolate"/>
    <ellipse id="Ellipse_1-67" data-name="Ellipse 1-67" cx="5.931" cy="5.931" rx="5.931" ry="5.931" transform="translate(42.541 40.487)" fill="#fffe10" opacity="0.67" style="isolation: isolate"/>
    <ellipse id="Ellipse_1-23" data-name="Ellipse 1-23" cx="5.189" cy="5.189" rx="5.189" ry="5.189" transform="translate(105.38 104.847)" fill="#fe0400" opacity="0.51" style="isolation: isolate"/>
    <ellipse id="Ellipse_1-24" data-name="Ellipse 1-24" cx="5.189" cy="5.189" rx="5.189" ry="5.189" transform="translate(90.161 104.847)" fill="#04cc32" opacity="0.51" style="isolation: isolate"/>
    <ellipse id="Ellipse_1-25" data-name="Ellipse 1-25" cx="5.189" cy="5.189" rx="5.189" ry="5.189" transform="translate(74.61 104.847)" fill="#6465fd" opacity="0.51" style="isolation: isolate"/>
    <ellipse id="Ellipse_1-26" data-name="Ellipse 1-26" cx="5.189" cy="5.189" rx="5.189" ry="5.189" transform="translate(58.873 104.847)" fill="#fffe10" opacity="0.51" style="isolation: isolate"/>
    <ellipse id="Ellipse_1-27" data-name="Ellipse 1-27" cx="5.189" cy="5.189" rx="5.189" ry="5.189" transform="translate(43.284 104.847)" fill="#fe0400" opacity="0.51" style="isolation: isolate"/>
    <ellipse id="Ellipse_1-28" data-name="Ellipse 1-28" cx="5.189" cy="5.189" rx="5.189" ry="5.189" transform="translate(28.102 104.847)" fill="#04cc32" opacity="0.51" style="isolation: isolate"/>
    <ellipse id="Ellipse_1-33" data-name="Ellipse 1-33" cx="5.189" cy="5.189" rx="5.189" ry="5.189" transform="translate(105.38 89.87)" fill="#04cc32" opacity="0.51" style="isolation: isolate"/>
    <ellipse id="Ellipse_1-43" data-name="Ellipse 1-43" cx="5.189" cy="5.189" rx="5.189" ry="5.189" transform="translate(105.38 73.781)" fill="#6465fd" opacity="0.51" style="isolation: isolate"/>
    <ellipse id="Ellipse_1-48" data-name="Ellipse 1-48" cx="5.189" cy="5.189" rx="5.189" ry="5.189" transform="translate(28.102 73.781)" fill="#fffe10" opacity="0.51" style="isolation: isolate"/>
    <ellipse id="Ellipse_1-53" data-name="Ellipse 1-53" cx="5.189" cy="5.189" rx="5.189" ry="5.189" transform="translate(105.38 57.319)" fill="#fe0400" opacity="0.51" style="isolation: isolate"/>
    <ellipse id="Ellipse_1-58" data-name="Ellipse 1-58" cx="5.189" cy="5.189" rx="5.189" ry="5.189" transform="translate(28.102 57.319)" fill="#6465fd" opacity="0.51" style="isolation: isolate"/>
    <ellipse id="Ellipse_1-63" data-name="Ellipse 1-63" cx="5.189" cy="5.189" rx="5.189" ry="5.189" transform="translate(105.38 41.23)" fill="#fe0400" opacity="0.51" style="isolation: isolate"/>
    <ellipse id="Ellipse_1-68" data-name="Ellipse 1-68" cx="5.189" cy="5.189" rx="5.189" ry="5.189" transform="translate(28.102 41.23)" fill="#04cc32" opacity="0.51" style="isolation: isolate"/>
    <ellipse id="Ellipse_1-73" data-name="Ellipse 1-73" cx="5.189" cy="5.189" rx="5.189" ry="5.189" transform="translate(105.38 26.253)" fill="#04cc32" opacity="0.51" style="isolation: isolate"/>
    <ellipse id="Ellipse_1-74" data-name="Ellipse 1-74" cx="5.189" cy="5.189" rx="5.189" ry="5.189" transform="translate(90.161 26.253)" fill="#04cc32" opacity="0.51" style="isolation: isolate"/>
    <ellipse id="Ellipse_1-75" data-name="Ellipse 1-75" cx="5.189" cy="5.189" rx="5.189" ry="5.189" transform="translate(74.61 26.253)" fill="#fe0400" opacity="0.51" style="isolation: isolate"/>
    <ellipse id="Ellipse_1-76" data-name="Ellipse 1-76" cx="5.189" cy="5.189" rx="5.189" ry="5.189" transform="translate(58.873 26.253)" fill="#6465fd" opacity="0.51" style="isolation: isolate"/>
    <ellipse id="Ellipse_1-77" data-name="Ellipse 1-77" cx="5.189" cy="5.189" rx="5.189" ry="5.189" transform="translate(43.284 26.253)" fill="#04cc32" opacity="0.51" style="isolation: isolate"/>
    <ellipse id="Ellipse_1-78" data-name="Ellipse 1-78" cx="5.189" cy="5.189" rx="5.189" ry="5.189" transform="translate(28.102 26.253)" fill="#fe0400" opacity="0.51" style="isolation: isolate"/>
    <ellipse id="Ellipse_1-12" data-name="Ellipse 1-12" cx="4.819" cy="4.819" rx="4.819" ry="4.819" transform="translate(120.411 119.393)" fill="#6465fd" opacity="0.47" style="isolation: isolate"/>
    <ellipse id="Ellipse_1-13" data-name="Ellipse 1-13" cx="4.819" cy="4.819" rx="4.819" ry="4.819" transform="translate(105.75 119.393)" fill="#fffe10" opacity="0.47" style="isolation: isolate"/>
    <ellipse id="Ellipse_1-14" data-name="Ellipse 1-14" cx="4.819" cy="4.819" rx="4.819" ry="4.819" transform="translate(90.531 119.393)" fill="#6465fd" opacity="0.47" style="isolation: isolate"/>
    <ellipse id="Ellipse_1-15" data-name="Ellipse 1-15" cx="4.819" cy="4.819" rx="4.819" ry="4.819" transform="translate(74.98 119.393)" fill="#fe0400" opacity="0.47" style="isolation: isolate"/>
    <ellipse id="Ellipse_1-16" data-name="Ellipse 1-16" cx="4.819" cy="4.819" rx="4.819" ry="4.819" transform="translate(59.243 119.393)" fill="#fffe10" opacity="0.47" style="isolation: isolate"/>
    <ellipse id="Ellipse_1-17" data-name="Ellipse 1-17" cx="4.819" cy="4.819" rx="4.819" ry="4.819" transform="translate(43.653 119.393)" fill="#6465fd" opacity="0.47" style="isolation: isolate"/>
    <ellipse id="Ellipse_1-18" data-name="Ellipse 1-18" cx="4.819" cy="4.819" rx="4.819" ry="4.819" transform="translate(28.472 119.393)" fill="#fe0400" opacity="0.47" style="isolation: isolate"/>
    <ellipse id="Ellipse_1-19" data-name="Ellipse 1-19" cx="4.819" cy="4.819" rx="4.819" ry="4.819" transform="translate(13.809 119.393)" fill="#fffe10" opacity="0.47" style="isolation: isolate"/>
    <ellipse id="Ellipse_1-22" data-name="Ellipse 1-22" cx="4.819" cy="4.819" rx="4.819" ry="4.819" transform="translate(120.411 105.217)" fill="#fffe10" opacity="0.47" style="isolation: isolate"/>
    <ellipse id="Ellipse_1-29" data-name="Ellipse 1-29" cx="4.819" cy="4.819" rx="4.819" ry="4.819" transform="translate(13.809 105.217)" fill="#04cc32" opacity="0.47" style="isolation: isolate"/>
    <ellipse id="Ellipse_1-32" data-name="Ellipse 1-32" cx="4.819" cy="4.819" rx="4.819" ry="4.819" transform="translate(120.411 90.24)" fill="#6465fd" opacity="0.47" style="isolation: isolate"/>
    <ellipse id="Ellipse_1-39" data-name="Ellipse 1-39" cx="4.819" cy="4.819" rx="4.819" ry="4.819" transform="translate(13.809 90.24)" fill="#fffe10" opacity="0.47" style="isolation: isolate"/>
    <ellipse id="Ellipse_1-42" data-name="Ellipse 1-42" cx="4.819" cy="4.819" rx="4.819" ry="4.819" transform="translate(120.411 74.151)" fill="#fe0400" opacity="0.47" style="isolation: isolate"/>
    <ellipse id="Ellipse_1-49" data-name="Ellipse 1-49" cx="4.819" cy="4.819" rx="4.819" ry="4.819" transform="translate(13.809 74.151)" fill="#fe0400" opacity="0.47" style="isolation: isolate"/>
    <ellipse id="Ellipse_1-52" data-name="Ellipse 1-52" cx="4.819" cy="4.819" rx="4.819" ry="4.819" transform="translate(120.411 57.689)" fill="#fffe10" opacity="0.47" style="isolation: isolate"/>
    <ellipse id="Ellipse_1-59" data-name="Ellipse 1-59" cx="4.819" cy="4.819" rx="4.819" ry="4.819" transform="translate(13.809 57.689)" fill="#04cc32" opacity="0.47" style="isolation: isolate"/>
    <ellipse id="Ellipse_1-62" data-name="Ellipse 1-62" cx="4.819" cy="4.819" rx="4.819" ry="4.819" transform="translate(120.411 41.6)" fill="#fe0400" opacity="0.47" style="isolation: isolate"/>
    <ellipse id="Ellipse_1-69" data-name="Ellipse 1-69" cx="4.819" cy="4.819" rx="4.819" ry="4.819" transform="translate(13.809 41.6)" fill="#6465fd" opacity="0.47" style="isolation: isolate"/>
    <ellipse id="Ellipse_1-72" data-name="Ellipse 1-72" cx="4.819" cy="4.819" rx="4.819" ry="4.819" transform="translate(120.411 26.623)" fill="#fffe10" opacity="0.47" style="isolation: isolate"/>
    <ellipse id="Ellipse_1-79" data-name="Ellipse 1-79" cx="4.819" cy="4.819" rx="4.819" ry="4.819" transform="translate(13.809 26.623)" fill="#04cc32" opacity="0.47" style="isolation: isolate"/>
    <ellipse id="Ellipse_1-82" data-name="Ellipse 1-82" cx="4.819" cy="4.819" rx="4.819" ry="4.819" transform="translate(120.411 12.755)" fill="#fe0400" opacity="0.47" style="isolation: isolate"/>
    <ellipse id="Ellipse_1-83" data-name="Ellipse 1-83" cx="4.819" cy="4.819" rx="4.819" ry="4.819" transform="translate(105.75 12.755)" fill="#fffe10" opacity="0.47" style="isolation: isolate"/>
    <ellipse id="Ellipse_1-84" data-name="Ellipse 1-84" cx="4.819" cy="4.819" rx="4.819" ry="4.819" transform="translate(90.531 12.755)" fill="#fe0400" opacity="0.47" style="isolation: isolate"/>
    <ellipse id="Ellipse_1-85" data-name="Ellipse 1-85" cx="4.819" cy="4.819" rx="4.819" ry="4.819" transform="translate(74.98 12.755)" fill="#fffe10" opacity="0.47" style="isolation: isolate"/>
    <ellipse id="Ellipse_1-86" data-name="Ellipse 1-86" cx="4.819" cy="4.819" rx="4.819" ry="4.819" transform="translate(59.243 12.755)" fill="#04cc32" opacity="0.47" style="isolation: isolate"/>
    <ellipse id="Ellipse_1-87" data-name="Ellipse 1-87" cx="4.819" cy="4.819" rx="4.819" ry="4.819" transform="translate(43.653 12.755)" fill="#6465fd" opacity="0.47" style="isolation: isolate"/>
    <ellipse id="Ellipse_1-88" data-name="Ellipse 1-88" cx="4.819" cy="4.819" rx="4.819" ry="4.819" transform="translate(28.472 12.755)" fill="#04cc32" opacity="0.47" style="isolation: isolate"/>
    <ellipse id="Ellipse_1-89" data-name="Ellipse 1-89" cx="4.819" cy="4.819" rx="4.819" ry="4.819" transform="translate(13.809 12.755)" fill="#6465fd" opacity="0.47" style="isolation: isolate"/>
    <ellipse id="Ellipse_1-11" data-name="Ellipse 1-11" cx="4.449" cy="4.449" rx="4.449" ry="4.449" transform="translate(134.924 119.763)" fill="#fffe10" opacity="0.23" style="isolation: isolate"/>
    <ellipse id="Ellipse_1-20" data-name="Ellipse 1-20" cx="4.449" cy="4.449" rx="4.449" ry="4.449" transform="translate(0 119.763)" fill="#04cc32" opacity="0.23" style="isolation: isolate"/>
    <ellipse id="Ellipse_1-21" data-name="Ellipse 1-21" cx="4.449" cy="4.449" rx="4.449" ry="4.449" transform="translate(134.924 105.587)" fill="#6465fd" opacity="0.23" style="isolation: isolate"/>
    <ellipse id="Ellipse_1-30" data-name="Ellipse 1-30" cx="4.449" cy="4.449" rx="4.449" ry="4.449" transform="translate(0 105.587)" fill="#fe0400" opacity="0.23" style="isolation: isolate"/>
    <ellipse id="Ellipse_1-31" data-name="Ellipse 1-31" cx="4.449" cy="4.449" rx="4.449" ry="4.449" transform="translate(134.924 90.61)" fill="#6465fd" opacity="0.23" style="isolation: isolate"/>
    <ellipse id="Ellipse_1-40" data-name="Ellipse 1-40" cx="4.449" cy="4.449" rx="4.449" ry="4.449" transform="translate(0 90.61)" fill="#fe0400" opacity="0.23" style="isolation: isolate"/>
    <ellipse id="Ellipse_1-41" data-name="Ellipse 1-41" cx="4.449" cy="4.449" rx="4.449" ry="4.449" transform="translate(134.924 74.521)" fill="#04cc32" opacity="0.23" style="isolation: isolate"/>
    <ellipse id="Ellipse_1-50" data-name="Ellipse 1-50" cx="4.449" cy="4.449" rx="4.449" ry="4.449" transform="translate(0 74.521)" fill="#6465fd" opacity="0.23" style="isolation: isolate"/>
    <ellipse id="Ellipse_1-51" data-name="Ellipse 1-51" cx="4.449" cy="4.449" rx="4.449" ry="4.449" transform="translate(134.924 58.059)" fill="#04cc32" opacity="0.23" style="isolation: isolate"/>
    <ellipse id="Ellipse_1-60" data-name="Ellipse 1-60" cx="4.449" cy="4.449" rx="4.449" ry="4.449" transform="translate(0 58.059)" fill="#6465fd" opacity="0.23" style="isolation: isolate"/>
    <ellipse id="Ellipse_1-61" data-name="Ellipse 1-61" cx="4.449" cy="4.449" rx="4.449" ry="4.449" transform="translate(134.924 41.969)" fill="#fffe10" opacity="0.23" style="isolation: isolate"/>
    <ellipse id="Ellipse_1-70" data-name="Ellipse 1-70" cx="4.449" cy="4.449" rx="4.449" ry="4.449" transform="translate(0 41.969)" fill="#fe0400" opacity="0.23" style="isolation: isolate"/>
    <ellipse id="Ellipse_1-71" data-name="Ellipse 1-71" cx="4.449" cy="4.449" rx="4.449" ry="4.449" transform="translate(134.924 26.992)" fill="#fe0400" opacity="0.23" style="isolation: isolate"/>
    <ellipse id="Ellipse_1-80" data-name="Ellipse 1-80" cx="4.449" cy="4.449" rx="4.449" ry="4.449" transform="translate(0 26.992)" fill="#6465fd" opacity="0.23" style="isolation: isolate"/>
    <ellipse id="Ellipse_1-81" data-name="Ellipse 1-81" cx="4.449" cy="4.449" rx="4.449" ry="4.449" transform="translate(134.924 13.125)" fill="#04cc32" opacity="0.23" style="isolation: isolate"/>
    <ellipse id="Ellipse_1-90" data-name="Ellipse 1-90" cx="4.449" cy="4.449" rx="4.449" ry="4.449" transform="translate(0 13.125)" fill="#fe0400" opacity="0.23" style="isolation: isolate"/>
    <ellipse id="Ellipse_1-91-2" data-name="Ellipse 1-91" cx="4.449" cy="4.449" rx="4.449" ry="4.449" transform="translate(134.924)" fill="#fe0400" opacity="0.23" style="isolation: isolate"/>
    <ellipse id="Ellipse_1-92-2" data-name="Ellipse 1-92" cx="4.449" cy="4.449" rx="4.449" ry="4.449" transform="translate(120.781)" fill="#04cc32" opacity="0.23" style="isolation: isolate"/>
    <ellipse id="Ellipse_1-93-2" data-name="Ellipse 1-93" cx="4.449" cy="4.449" rx="4.449" ry="4.449" transform="translate(106.12)" fill="#fe0400" opacity="0.23" style="isolation: isolate"/>
    <ellipse id="Ellipse_1-94-2" data-name="Ellipse 1-94" cx="4.449" cy="4.449" rx="4.449" ry="4.449" transform="translate(90.901)" fill="#04cc32" opacity="0.23" style="isolation: isolate"/>
    <ellipse id="Ellipse_1-95-2" data-name="Ellipse 1-95" cx="4.449" cy="4.449" rx="4.449" ry="4.449" transform="translate(75.35)" fill="#6465fd" opacity="0.23" style="isolation: isolate"/>
    <ellipse id="Ellipse_1-96-2" data-name="Ellipse 1-96" cx="4.449" cy="4.449" rx="4.449" ry="4.449" transform="translate(59.612)" fill="#6465fd" opacity="0.23" style="isolation: isolate"/>
    <ellipse id="Ellipse_1-97-2" data-name="Ellipse 1-97" cx="4.449" cy="4.449" rx="4.449" ry="4.449" transform="translate(44.023)" fill="#04cc32" opacity="0.23" style="isolation: isolate"/>
    <ellipse id="Ellipse_1-98-2" data-name="Ellipse 1-98" cx="4.449" cy="4.449" rx="4.449" ry="4.449" transform="translate(28.842)" fill="#6465fd" opacity="0.23" style="isolation: isolate"/>
    <ellipse id="Ellipse_1-99-2" data-name="Ellipse 1-99" cx="4.449" cy="4.449" rx="4.449" ry="4.449" transform="translate(14.179)" fill="#fe0400" opacity="0.23" style="isolation: isolate"/>
    <ellipse id="Ellipse_1-100-2" data-name="Ellipse 1-100" cx="4.449" cy="4.449" rx="4.449" ry="4.449" transform="translate(0)" fill="#6465fd" opacity="0.23" style="isolation: isolate"/>
  </g>
</svg>
