<svg id="Untitled-1-06" xmlns="http://www.w3.org/2000/svg" width="143.822" height="142.342" viewBox="0 0 143.822 142.342">
  <circle id="Ellipse_1-38" data-name="Ellipse 1-38" cx="5.189" cy="5.189" r="5.189" transform="translate(105.342 42.094)" fill="#fff" opacity="0.51" style="isolation: isolate"/>
  <circle id="Ellipse_1-45" data-name="Ellipse 1-45" cx="5.969" cy="5.969" r="5.969" transform="translate(73.702 57.765)" fill="#fff"/>
  <circle id="Ellipse_1-46" data-name="Ellipse 1-46" cx="5.969" cy="5.969" r="5.969" transform="translate(73.702 73.503)" fill="#fff"/>
  <circle id="Ellipse_1-55" data-name="Ellipse 1-55" cx="5.969" cy="5.969" r="5.969" transform="translate(58.143 57.765)" fill="#fff"/>
  <circle id="Ellipse_1-56" data-name="Ellipse 1-56" cx="5.969" cy="5.969" r="5.969" transform="translate(58.143 73.503)" fill="#fff"/>
  <circle id="Ellipse_1-34" data-name="Ellipse 1-34" cx="5.931" cy="5.931" r="5.931" transform="translate(42.541 41.352)" fill="#fff" opacity="0.67" style="isolation: isolate"/>
  <circle id="Ellipse_1-35" data-name="Ellipse 1-35" cx="5.931" cy="5.931" r="5.931" transform="translate(58.092 41.352)" fill="#fff" opacity="0.67" style="isolation: isolate"/>
  <circle id="Ellipse_1-36" data-name="Ellipse 1-36" cx="5.931" cy="5.931" r="5.931" transform="translate(73.829 41.352)" fill="#fff" opacity="0.67" style="isolation: isolate"/>
  <circle id="Ellipse_1-37" data-name="Ellipse 1-37" cx="5.931" cy="5.931" r="5.931" transform="translate(89.419 41.352)" fill="#fff" opacity="0.67" style="isolation: isolate"/>
  <circle id="Ellipse_1-44" data-name="Ellipse 1-44" cx="5.931" cy="5.931" r="5.931" transform="translate(42.541 57.441)" fill="#fff" opacity="0.67" style="isolation: isolate"/>
  <circle id="Ellipse_1-47" data-name="Ellipse 1-47" cx="5.931" cy="5.931" r="5.931" transform="translate(89.419 57.441)" fill="#fff" opacity="0.67" style="isolation: isolate"/>
  <circle id="Ellipse_1-54" data-name="Ellipse 1-54" cx="5.931" cy="5.931" r="5.931" transform="translate(42.541 73.903)" fill="#fff" opacity="0.67" style="isolation: isolate"/>
  <circle id="Ellipse_1-57" data-name="Ellipse 1-57" cx="5.931" cy="5.931" r="5.931" transform="translate(89.419 73.903)" fill="#fff" opacity="0.67" style="isolation: isolate"/>
  <circle id="Ellipse_1-64" data-name="Ellipse 1-64" cx="5.931" cy="5.931" r="5.931" transform="translate(42.541 89.992)" fill="#fff" opacity="0.67" style="isolation: isolate"/>
  <circle id="Ellipse_1-65" data-name="Ellipse 1-65" cx="5.931" cy="5.931" r="5.931" transform="translate(58.092 89.992)" fill="#fff" opacity="0.67" style="isolation: isolate"/>
  <circle id="Ellipse_1-66" data-name="Ellipse 1-66" cx="5.931" cy="5.931" r="5.931" transform="translate(73.829 89.992)" fill="#fff" opacity="0.67" style="isolation: isolate"/>
  <circle id="Ellipse_1-67" data-name="Ellipse 1-67" cx="5.931" cy="5.931" r="5.931" transform="translate(89.419 89.992)" fill="#fff" opacity="0.67" style="isolation: isolate"/>
  <circle id="Ellipse_1-23" data-name="Ellipse 1-23" cx="5.189" cy="5.189" r="5.189" transform="translate(28.064 27.117)" fill="#fff" opacity="0.51" style="isolation: isolate"/>
  <circle id="Ellipse_1-24" data-name="Ellipse 1-24" cx="5.189" cy="5.189" r="5.189" transform="translate(43.283 27.117)" fill="#fff" opacity="0.51" style="isolation: isolate"/>
  <circle id="Ellipse_1-25" data-name="Ellipse 1-25" cx="5.189" cy="5.189" r="5.189" transform="translate(58.834 27.117)" fill="#fff" opacity="0.51" style="isolation: isolate"/>
  <circle id="Ellipse_1-26" data-name="Ellipse 1-26" cx="5.189" cy="5.189" r="5.189" transform="translate(74.572 27.117)" fill="#fff" opacity="0.51" style="isolation: isolate"/>
  <circle id="Ellipse_1-27" data-name="Ellipse 1-27" cx="5.189" cy="5.189" r="5.189" transform="translate(90.161 27.117)" fill="#fff" opacity="0.51" style="isolation: isolate"/>
  <circle id="Ellipse_1-28" data-name="Ellipse 1-28" cx="5.189" cy="5.189" r="5.189" transform="translate(105.342 27.117)" fill="#fff" opacity="0.51" style="isolation: isolate"/>
  <circle id="Ellipse_1-33" data-name="Ellipse 1-33" cx="5.189" cy="5.189" r="5.189" transform="translate(28.064 42.094)" fill="#fff" opacity="0.51" style="isolation: isolate"/>
  <circle id="Ellipse_1-43" data-name="Ellipse 1-43" cx="5.189" cy="5.189" r="5.189" transform="translate(28.064 58.184)" fill="#fff" opacity="0.51" style="isolation: isolate"/>
  <circle id="Ellipse_1-48" data-name="Ellipse 1-48" cx="5.189" cy="5.189" r="5.189" transform="translate(105.342 58.184)" fill="#fff" opacity="0.51" style="isolation: isolate"/>
  <circle id="Ellipse_1-53" data-name="Ellipse 1-53" cx="5.189" cy="5.189" r="5.189" transform="translate(28.064 74.646)" fill="#fff" opacity="0.51" style="isolation: isolate"/>
  <circle id="Ellipse_1-58" data-name="Ellipse 1-58" cx="5.189" cy="5.189" r="5.189" transform="translate(105.342 74.646)" fill="#fff" opacity="0.51" style="isolation: isolate"/>
  <circle id="Ellipse_1-63" data-name="Ellipse 1-63" cx="5.189" cy="5.189" r="5.189" transform="translate(28.064 90.735)" fill="#fff" opacity="0.51" style="isolation: isolate"/>
  <circle id="Ellipse_1-68" data-name="Ellipse 1-68" cx="5.189" cy="5.189" r="5.189" transform="translate(105.342 90.735)" fill="#fff" opacity="0.51" style="isolation: isolate"/>
  <circle id="Ellipse_1-73" data-name="Ellipse 1-73" cx="5.189" cy="5.189" r="5.189" transform="translate(28.064 105.712)" fill="#fff" opacity="0.51" style="isolation: isolate"/>
  <circle id="Ellipse_1-74" data-name="Ellipse 1-74" cx="5.189" cy="5.189" r="5.189" transform="translate(43.283 105.712)" fill="#fff" opacity="0.51" style="isolation: isolate"/>
  <circle id="Ellipse_1-75" data-name="Ellipse 1-75" cx="5.189" cy="5.189" r="5.189" transform="translate(58.834 105.712)" fill="#fff" opacity="0.51" style="isolation: isolate"/>
  <circle id="Ellipse_1-76" data-name="Ellipse 1-76" cx="5.189" cy="5.189" r="5.189" transform="translate(74.572 105.712)" fill="#fff" opacity="0.51" style="isolation: isolate"/>
  <circle id="Ellipse_1-77" data-name="Ellipse 1-77" cx="5.189" cy="5.189" r="5.189" transform="translate(90.161 105.712)" fill="#fff" opacity="0.51" style="isolation: isolate"/>
  <circle id="Ellipse_1-78" data-name="Ellipse 1-78" cx="5.189" cy="5.189" r="5.189" transform="translate(105.342 105.712)" fill="#fff" opacity="0.51" style="isolation: isolate"/>
  <circle id="Ellipse_1-12" data-name="Ellipse 1-12" cx="4.819" cy="4.819" r="4.819" transform="translate(13.773 13.311)" fill="#fff" opacity="0.47" style="isolation: isolate"/>
  <circle id="Ellipse_1-13" data-name="Ellipse 1-13" cx="4.819" cy="4.819" r="4.819" transform="translate(28.434 13.311)" fill="#fff" opacity="0.47" style="isolation: isolate"/>
  <circle id="Ellipse_1-14" data-name="Ellipse 1-14" cx="4.819" cy="4.819" r="4.819" transform="translate(43.653 13.311)" fill="#fff" opacity="0.47" style="isolation: isolate"/>
  <circle id="Ellipse_1-15" data-name="Ellipse 1-15" cx="4.819" cy="4.819" r="4.819" transform="translate(59.204 13.311)" fill="#fff" opacity="0.47" style="isolation: isolate"/>
  <circle id="Ellipse_1-16" data-name="Ellipse 1-16" cx="4.819" cy="4.819" r="4.819" transform="translate(74.941 13.311)" fill="#fff" opacity="0.47" style="isolation: isolate"/>
  <circle id="Ellipse_1-17" data-name="Ellipse 1-17" cx="4.819" cy="4.819" r="4.819" transform="translate(90.531 13.311)" fill="#fff" opacity="0.47" style="isolation: isolate"/>
  <circle id="Ellipse_1-18" data-name="Ellipse 1-18" cx="4.819" cy="4.819" r="4.819" transform="translate(105.712 13.311)" fill="#fff" opacity="0.47" style="isolation: isolate"/>
  <circle id="Ellipse_1-19" data-name="Ellipse 1-19" cx="4.819" cy="4.819" r="4.819" transform="translate(120.375 13.311)" fill="#fff" opacity="0.47" style="isolation: isolate"/>
  <circle id="Ellipse_1-22" data-name="Ellipse 1-22" cx="4.819" cy="4.819" r="4.819" transform="translate(13.773 27.487)" fill="#fff" opacity="0.47" style="isolation: isolate"/>
  <circle id="Ellipse_1-29" data-name="Ellipse 1-29" cx="4.819" cy="4.819" r="4.819" transform="translate(120.375 27.487)" fill="#fff" opacity="0.47" style="isolation: isolate"/>
  <circle id="Ellipse_1-32" data-name="Ellipse 1-32" cx="4.819" cy="4.819" r="4.819" transform="translate(13.773 42.464)" fill="#fff" opacity="0.47" style="isolation: isolate"/>
  <circle id="Ellipse_1-39" data-name="Ellipse 1-39" cx="4.819" cy="4.819" r="4.819" transform="translate(120.375 42.464)" fill="#fff" opacity="0.47" style="isolation: isolate"/>
  <circle id="Ellipse_1-42" data-name="Ellipse 1-42" cx="4.819" cy="4.819" r="4.819" transform="translate(13.773 58.554)" fill="#fff" opacity="0.47" style="isolation: isolate"/>
  <circle id="Ellipse_1-49" data-name="Ellipse 1-49" cx="4.819" cy="4.819" r="4.819" transform="translate(120.375 58.554)" fill="#fff" opacity="0.47" style="isolation: isolate"/>
  <circle id="Ellipse_1-52" data-name="Ellipse 1-52" cx="4.819" cy="4.819" r="4.819" transform="translate(13.773 75.015)" fill="#fff" opacity="0.47" style="isolation: isolate"/>
  <circle id="Ellipse_1-59" data-name="Ellipse 1-59" cx="4.819" cy="4.819" r="4.819" transform="translate(120.375 75.015)" fill="#fff" opacity="0.47" style="isolation: isolate"/>
  <circle id="Ellipse_1-62" data-name="Ellipse 1-62" cx="4.819" cy="4.819" r="4.819" transform="translate(13.773 91.105)" fill="#fff" opacity="0.47" style="isolation: isolate"/>
  <circle id="Ellipse_1-69" data-name="Ellipse 1-69" cx="4.819" cy="4.819" r="4.819" transform="translate(120.375 91.105)" fill="#fff" opacity="0.47" style="isolation: isolate"/>
  <circle id="Ellipse_1-72" data-name="Ellipse 1-72" cx="4.819" cy="4.819" r="4.819" transform="translate(13.773 106.082)" fill="#fff" opacity="0.47" style="isolation: isolate"/>
  <circle id="Ellipse_1-79" data-name="Ellipse 1-79" cx="4.819" cy="4.819" r="4.819" transform="translate(120.375 106.082)" fill="#fff" opacity="0.47" style="isolation: isolate"/>
  <circle id="Ellipse_1-82" data-name="Ellipse 1-82" cx="4.819" cy="4.819" r="4.819" transform="translate(13.773 119.949)" fill="#fff" opacity="0.47" style="isolation: isolate"/>
  <circle id="Ellipse_1-83" data-name="Ellipse 1-83" cx="4.819" cy="4.819" r="4.819" transform="translate(28.434 119.949)" fill="#fff" opacity="0.47" style="isolation: isolate"/>
  <circle id="Ellipse_1-84" data-name="Ellipse 1-84" cx="4.819" cy="4.819" r="4.819" transform="translate(43.653 119.949)" fill="#fff" opacity="0.47" style="isolation: isolate"/>
  <circle id="Ellipse_1-85" data-name="Ellipse 1-85" cx="4.819" cy="4.819" r="4.819" transform="translate(59.204 119.949)" fill="#fff" opacity="0.47" style="isolation: isolate"/>
  <circle id="Ellipse_1-86" data-name="Ellipse 1-86" cx="4.819" cy="4.819" r="4.819" transform="translate(74.941 119.949)" fill="#fff" opacity="0.47" style="isolation: isolate"/>
  <circle id="Ellipse_1-87" data-name="Ellipse 1-87" cx="4.819" cy="4.819" r="4.819" transform="translate(90.531 119.949)" fill="#fff" opacity="0.47" style="isolation: isolate"/>
  <circle id="Ellipse_1-88" data-name="Ellipse 1-88" cx="4.819" cy="4.819" r="4.819" transform="translate(105.712 119.949)" fill="#fff" opacity="0.47" style="isolation: isolate"/>
  <circle id="Ellipse_1-89" data-name="Ellipse 1-89" cx="4.819" cy="4.819" r="4.819" transform="translate(120.375 119.949)" fill="#fff" opacity="0.47" style="isolation: isolate"/>
  <circle id="Ellipse_1" data-name="Ellipse 1" cx="4.449" cy="4.449" r="4.449" transform="translate(0 0)" fill="#fff" opacity="0.23" style="isolation: isolate"/>
  <circle id="Ellipse_1-2" data-name="Ellipse 1-2" cx="4.449" cy="4.449" r="4.449" transform="translate(14.143 0)" fill="#fff" opacity="0.23" style="isolation: isolate"/>
  <circle id="Ellipse_1-3" data-name="Ellipse 1-3" cx="4.449" cy="4.449" r="4.449" transform="translate(28.804 0)" fill="#fff" opacity="0.23" style="isolation: isolate"/>
  <circle id="Ellipse_1-4" data-name="Ellipse 1-4" cx="4.449" cy="4.449" r="4.449" transform="translate(44.023 0)" fill="#fff" opacity="0.23" style="isolation: isolate"/>
  <circle id="Ellipse_1-5" data-name="Ellipse 1-5" cx="4.449" cy="4.449" r="4.449" transform="translate(59.574 0)" fill="#fff" opacity="0.23" style="isolation: isolate"/>
  <circle id="Ellipse_1-6" data-name="Ellipse 1-6" cx="4.449" cy="4.449" r="4.449" transform="translate(75.311 0)" fill="#fff" opacity="0.23" style="isolation: isolate"/>
  <circle id="Ellipse_1-7" data-name="Ellipse 1-7" cx="4.449" cy="4.449" r="4.449" transform="translate(90.901 0)" fill="#fff" opacity="0.23" style="isolation: isolate"/>
  <circle id="Ellipse_1-8" data-name="Ellipse 1-8" cx="4.449" cy="4.449" r="4.449" transform="translate(106.082 0)" fill="#fff" opacity="0.23" style="isolation: isolate"/>
  <circle id="Ellipse_1-9" data-name="Ellipse 1-9" cx="4.449" cy="4.449" r="4.449" transform="translate(120.745 0)" fill="#fff" opacity="0.23" style="isolation: isolate"/>
  <circle id="Ellipse_1-11" data-name="Ellipse 1-11" cx="4.449" cy="4.449" r="4.449" transform="translate(0 13.681)" fill="#fff" opacity="0.23" style="isolation: isolate"/>
  <circle id="Ellipse_1-20" data-name="Ellipse 1-20" cx="4.449" cy="4.449" r="4.449" transform="translate(134.924 13.681)" fill="#fff" opacity="0.23" style="isolation: isolate"/>
  <circle id="Ellipse_1-21" data-name="Ellipse 1-21" cx="4.449" cy="4.449" r="4.449" transform="translate(0 27.857)" fill="#fff" opacity="0.23" style="isolation: isolate"/>
  <circle id="Ellipse_1-30" data-name="Ellipse 1-30" cx="4.449" cy="4.449" r="4.449" transform="translate(134.924 27.857)" fill="#fff" opacity="0.23" style="isolation: isolate"/>
  <circle id="Ellipse_1-31" data-name="Ellipse 1-31" cx="4.449" cy="4.449" r="4.449" transform="translate(0 42.834)" fill="#fff" opacity="0.23" style="isolation: isolate"/>
  <circle id="Ellipse_1-40" data-name="Ellipse 1-40" cx="4.449" cy="4.449" r="4.449" transform="translate(134.924 42.834)" fill="#fff" opacity="0.23" style="isolation: isolate"/>
  <circle id="Ellipse_1-41" data-name="Ellipse 1-41" cx="4.449" cy="4.449" r="4.449" transform="translate(0 58.924)" fill="#fff" opacity="0.23" style="isolation: isolate"/>
  <circle id="Ellipse_1-50" data-name="Ellipse 1-50" cx="4.449" cy="4.449" r="4.449" transform="translate(134.924 58.924)" fill="#fff" opacity="0.23" style="isolation: isolate"/>
  <circle id="Ellipse_1-51" data-name="Ellipse 1-51" cx="4.449" cy="4.449" r="4.449" transform="translate(0 75.385)" fill="#fff" opacity="0.23" style="isolation: isolate"/>
  <circle id="Ellipse_1-60" data-name="Ellipse 1-60" cx="4.449" cy="4.449" r="4.449" transform="translate(134.924 75.385)" fill="#fff" opacity="0.23" style="isolation: isolate"/>
  <circle id="Ellipse_1-61" data-name="Ellipse 1-61" cx="4.449" cy="4.449" r="4.449" transform="translate(0 91.475)" fill="#fff" opacity="0.23" style="isolation: isolate"/>
  <circle id="Ellipse_1-70" data-name="Ellipse 1-70" cx="4.449" cy="4.449" r="4.449" transform="translate(134.924 91.475)" fill="#fff" opacity="0.23" style="isolation: isolate"/>
  <circle id="Ellipse_1-71" data-name="Ellipse 1-71" cx="4.449" cy="4.449" r="4.449" transform="translate(0 106.452)" fill="#fff" opacity="0.23" style="isolation: isolate"/>
  <circle id="Ellipse_1-80" data-name="Ellipse 1-80" cx="4.449" cy="4.449" r="4.449" transform="translate(134.924 106.452)" fill="#fff" opacity="0.23" style="isolation: isolate"/>
  <circle id="Ellipse_1-81" data-name="Ellipse 1-81" cx="4.449" cy="4.449" r="4.449" transform="translate(0 120.319)" fill="#fff" opacity="0.23" style="isolation: isolate"/>
  <circle id="Ellipse_1-90" data-name="Ellipse 1-90" cx="4.449" cy="4.449" r="4.449" transform="translate(134.924 120.319)" fill="#fff" opacity="0.23" style="isolation: isolate"/>
  <circle id="Ellipse_1-91" data-name="Ellipse 1-91" cx="4.449" cy="4.449" r="4.449" transform="translate(0 133.444)" fill="#fff" opacity="0.23" style="isolation: isolate"/>
  <circle id="Ellipse_1-92" data-name="Ellipse 1-92" cx="4.449" cy="4.449" r="4.449" transform="translate(14.143 133.444)" fill="#fff" opacity="0.23" style="isolation: isolate"/>
  <circle id="Ellipse_1-93" data-name="Ellipse 1-93" cx="4.449" cy="4.449" r="4.449" transform="translate(28.804 133.444)" fill="#fff" opacity="0.23" style="isolation: isolate"/>
  <circle id="Ellipse_1-94" data-name="Ellipse 1-94" cx="4.449" cy="4.449" r="4.449" transform="translate(44.023 133.444)" fill="#fff" opacity="0.23" style="isolation: isolate"/>
  <circle id="Ellipse_1-95" data-name="Ellipse 1-95" cx="4.449" cy="4.449" r="4.449" transform="translate(59.574 133.444)" fill="#fff" opacity="0.23" style="isolation: isolate"/>
  <circle id="Ellipse_1-96" data-name="Ellipse 1-96" cx="4.449" cy="4.449" r="4.449" transform="translate(75.311 133.444)" fill="#fff" opacity="0.23" style="isolation: isolate"/>
  <circle id="Ellipse_1-97" data-name="Ellipse 1-97" cx="4.449" cy="4.449" r="4.449" transform="translate(90.901 133.444)" fill="#fff" opacity="0.23" style="isolation: isolate"/>
  <circle id="Ellipse_1-98" data-name="Ellipse 1-98" cx="4.449" cy="4.449" r="4.449" transform="translate(106.082 133.444)" fill="#fff" opacity="0.23" style="isolation: isolate"/>
  <circle id="Ellipse_1-99" data-name="Ellipse 1-99" cx="4.449" cy="4.449" r="4.449" transform="translate(120.745 133.444)" fill="#fff" opacity="0.23" style="isolation: isolate"/>
  <circle id="Ellipse_1-100" data-name="Ellipse 1-100" cx="4.449" cy="4.449" r="4.449" transform="translate(134.924 133.444)" fill="#fff" opacity="0.23" style="isolation: isolate"/>
  <circle id="Ellipse_1-10" data-name="Ellipse 1-10" cx="4.449" cy="4.449" r="4.449" transform="translate(134.924 0)" fill="#fff" opacity="0.23" style="isolation: isolate"/>
</svg>
