<svg xmlns="http://www.w3.org/2000/svg" width="72" height="72" viewBox="0 0 72 72">
  <g id="Group_22" data-name="Group 22" transform="translate(-413 -383)">
    <circle id="Ellipse_2" data-name="Ellipse 2" cx="36" cy="36" r="36" transform="translate(413 383)" fill="#e52620"/>
    <g id="istockphoto-933582712-612x612-02" transform="translate(395.217 359.229)">
      <path id="Path_1" data-name="Path 1" d="M29.588,94.579a2.216,2.216,0,0,1,1.951-.772c.233.18.566-.159.772.153,3.352,1.095,6.224,3.093,9.19,4.912a53.985,53.985,0,0,0,7.842,4.384,18.506,18.506,0,0,0,2.485.693c0,.264-.222.375-.365.529-1.375,1.375-2.787,2.718-4.109,4.14a2.311,2.311,0,0,1-2.4.709,16,16,0,0,1-4.31-1.808c-3.173-1.74-6.134-3.807-9.259-5.616a18.927,18.927,0,0,0-6.1-2.57.978.978,0,0,1-.254-.122l.555-.629q1.74-1.8,3.532-3.532h0C29.307,94.9,29.392,94.69,29.588,94.579Z" transform="translate(0 -26.798)" fill="#fff"/>
      <path id="Path_2" data-name="Path 2" d="M113.047,47.105l-3.173,3.078c-.529.529-1.132,1.084-1.65,1.666a1.983,1.983,0,0,1-1.956.6,12.691,12.691,0,0,1-3.8-1.4c-2.871-1.491-5.542-3.321-8.307-4.992a1.153,1.153,0,0,1-.391-.407,30.954,30.954,0,0,1-2.686-5.235,5.4,5.4,0,0,1-.428-2.157,1.28,1.28,0,0,1,1.38-1.338,6.261,6.261,0,0,1,2.57.592,51.086,51.086,0,0,1,7.191,4,71.129,71.129,0,0,0,8.3,4.759,20.142,20.142,0,0,0,2.945.825Z" transform="translate(-30.92)" fill="#fff"/>
      <path id="Path_3" data-name="Path 3" d="M83.768,40.4c1.058,4.664,3.913,8.275,6.229,12.162a44.709,44.709,0,0,1,3.458,6.4,6.271,6.271,0,0,1,.529,2.21c0,1.058-.465,1.518-1.5,1.523a7.5,7.5,0,0,1-3.046-.825,35.994,35.994,0,0,1-4.124-2.221,1.29,1.29,0,0,1-.465-.412c-1.761-2.908-3.7-5.711-5.224-8.757a12.278,12.278,0,0,1-1.169-3.13,2.253,2.253,0,0,1,.666-2.295C80.68,43.557,82.171,42,83.768,40.4Z" transform="translate(-25.129 -1.639)" fill="#fff"/>
      <path id="Path_4" data-name="Path 4" d="M84.43,75.515c-.037.317-.249.418-.391.561-1.338,1.348-2.734,2.644-4.013,4.05a2.48,2.48,0,0,1-2.686.74,16.244,16.244,0,0,1-3.7-1.586c-2.7-1.449-5.246-3.173-7.852-4.759a1.058,1.058,0,0,1-.386-.333,27.053,27.053,0,0,1-2.9-5.817,4.336,4.336,0,0,1-.217-1.872,1.126,1.126,0,0,1,1.058-1.058,4.505,4.505,0,0,1,1.872.217,27.307,27.307,0,0,1,5.716,2.84c2.644,1.586,5.235,3.337,7.932,4.849A16.924,16.924,0,0,0,84.43,75.515Z" transform="translate(-17.537 -13.429)" fill="#fff"/>
      <path id="Path_5" data-name="Path 5" d="M54.214,70.091a.116.116,0,0,1,.127-.122,1.449,1.449,0,0,0,.4-.354c.143-.153.28-.312.434-.46a.7.7,0,0,1,.2-.085c.2.7.344,1.4.587,2.068a33.212,33.212,0,0,0,3.093,5.943c1.676,2.76,3.49,5.436,4.992,8.3a13.252,13.252,0,0,1,1.407,3.585q.539,2.7-2.115,2.216a18.233,18.233,0,0,1-4.23-1.692,8.4,8.4,0,0,1-3.9-3.6,89.7,89.7,0,0,1-4.6-8.159c-.1-.233-.19-.465-.28-.7-.582-1.507-.576-2.829.872-3.945a31.873,31.873,0,0,0,2.676-2.607A1.3,1.3,0,0,0,54.214,70.091Z" transform="translate(-11.745 -15.149)" fill="#fff"/>
      <path id="Path_6" data-name="Path 6" d="M29.622,96.18Q27.914,98,26.09,99.712a6.911,6.911,0,0,1,1.475-1.586A12.2,12.2,0,0,1,29.622,96.18Z" transform="translate(-0.495 -27.923)" fill="#fff"/>
      <path id="Path_7" data-name="Path 7" d="M79.79,108.311c.085-.529,0-1,.1-1.491a2.8,2.8,0,0,1-.1,1.491Z" transform="translate(-25.799 -32.937)" fill="#fff"/>
      <path id="Path_8" data-name="Path 8" d="M29.238,97.51a2.919,2.919,0,0,0-.381.645C28.773,97.907,28.81,97.7,29.238,97.51Z" transform="translate(-1.782 -28.55)" fill="#fff"/>
      <path id="Path_9" data-name="Path 9" d="M104.18,86.269l.418-.619C104.614,85.973,104.508,86.1,104.18,86.269Z" transform="translate(-37.292 -22.961)" fill="#fff"/>
      <path id="Path_10" data-name="Path 10" d="M127.22,63.239l.418-.619C127.632,62.943,127.543,63.069,127.22,63.239Z" transform="translate(-48.149 -12.109)" fill="#fff"/>
      <path id="Path_11" data-name="Path 11" d="M102.47,88.165a.719.719,0,0,1,.3-.465.381.381,0,0,1-.3.465Z" transform="translate(-36.487 -23.927)" fill="#fff"/>
      <path id="Path_12" data-name="Path 12" d="M98.941,91.4c0,.328-.063.481-.3.529C98.645,91.717,98.788,91.633,98.941,91.4Z" transform="translate(-34.682 -25.671)" fill="#fff"/>
      <path id="Path_13" data-name="Path 13" d="M97.011,93.39a.529.529,0,0,1-.3.529C96.721,93.681,96.863,93.575,97.011,93.39Z" transform="translate(-33.772 -26.609)" fill="#fff"/>
      <path id="Path_14" data-name="Path 14" d="M38.1,93.9l-.772-.153C37.594,93.77,37.922,93.474,38.1,93.9Z" transform="translate(-5.791 -26.74)" fill="#fff"/>
      <path id="Path_15" data-name="Path 15" d="M129.29,61.191l.312-.471C129.665,61.011,129.549,61.138,129.29,61.191Z" transform="translate(-49.125 -11.214)" fill="#fff"/>
      <path id="Path_16" data-name="Path 16" d="M133.481,56.92a.529.529,0,0,1-.3.529C133.191,57.211,133.339,57.105,133.481,56.92Z" transform="translate(-50.958 -9.423)" fill="#fff"/>
      <path id="Path_17" data-name="Path 17" d="M73.69,117.018c0-.222.148-.323.27-.428A.37.37,0,0,1,73.69,117.018Z" transform="translate(-22.925 -37.541)" fill="#fff"/>
      <path id="Path_18" data-name="Path 18" d="M67.94,122.724c0-.2.143-.291.227-.434.032.032.074.063.069.085C68.21,122.539,68.157,122.7,67.94,122.724Z" transform="translate(-20.215 -40.227)" fill="#fff"/>
      <path id="Path_19" data-name="Path 19" d="M53.964,93.51c.111.1.159.286.09.317s-.111-.116-.127-.2S53.964,93.552,53.964,93.51Z" transform="translate(-13.611 -26.665)" fill="#fff"/>
      <path id="Path_20" data-name="Path 20" d="M100.164,61.621l-.026.137a1.586,1.586,0,0,1-.174-.143c-.032-.042-.058-.137.032-.127S100.117,61.579,100.164,61.621Z" transform="translate(-35.291 -11.576)" fill="#fff"/>
      <path id="Path_21" data-name="Path 21" d="M71.371,118.495a1.169,1.169,0,0,1-.174.153c-.058.032-.137,0-.09-.079a.634.634,0,0,1,.175-.159S71.329,118.452,71.371,118.495Z" transform="translate(-21.701 -38.399)" fill="#fff"/>
      <path id="Path_22" data-name="Path 22" d="M55.783,71.585V71.7c0,.005-.09-.048-.1-.106a.679.679,0,0,1,0-.111A.321.321,0,0,1,55.783,71.585Z" transform="translate(-14.441 -16.284)" fill="#fff"/>
      <path id="Path_23" data-name="Path 23" d="M82.915,72.493l-.1-.137c.037,0,.09-.037.106,0a.529.529,0,0,1,.111.132Z" transform="translate(-27.227 -16.689)" fill="#fff"/>
      <path id="Path_24" data-name="Path 24" d="M107.908,82.036l-.137.1c0-.032-.042-.079-.032-.1a.693.693,0,0,1,.127-.122Z" transform="translate(-38.968 -21.204)" fill="#fff"/>
      <path id="Path_25" data-name="Path 25" d="M57.51,69.646l.1-.106a.789.789,0,0,1,.048.159.122.122,0,0,1-.042.09Z" transform="translate(-15.3 -15.37)" fill="#fff"/>
      <path id="Path_26" data-name="Path 26" d="M33.244,95.28a1.237,1.237,0,0,1-.444.46A.64.64,0,0,1,33.244,95.28Z" transform="translate(-3.657 -27.499)" fill="#fff"/>
      <path id="Path_27" data-name="Path 27" d="M78.752,111.706l-.122-.09c.037,0,.074-.042.106-.037a.884.884,0,0,1,.159.042Z" transform="translate(-25.253 -35.18)" fill="#fff"/>
      <path id="Path_28" data-name="Path 28" d="M58.656,70.1a.444.444,0,0,1-.386.354Z" transform="translate(-15.659 -15.634)" fill="#fff"/>
      <path id="Path_29" data-name="Path 29" d="M57.684,71a.434.434,0,0,1-.354.386Z" transform="translate(-15.216 -16.058)" fill="#fff"/>
      <path id="Path_30" data-name="Path 30" d="M133.059,55l.085.074s-.058.053-.079.048a.39.39,0,0,1-.085-.063Z" transform="translate(-50.863 -8.519)" fill="#fff"/>
      <path id="Path_31" data-name="Path 31" d="M45.279,114.938s-.058.053-.079.048-.058-.048-.085-.069.058-.053.079-.048A.156.156,0,0,1,45.279,114.938Z" transform="translate(-9.458 -36.73)" fill="#fff"/>
      <path id="Path_32" data-name="Path 32" d="M54.929,120.577s-.042.079-.058.074a.264.264,0,0,1-.1-.053s.037-.074.058-.069S54.892,120.561,54.929,120.577Z" transform="translate(-14.009 -39.397)" fill="#fff"/>
    </g>
  </g>
</svg>
