<svg xmlns="http://www.w3.org/2000/svg" width="71.946" height="72" viewBox="0 0 71.946 72">
  <path id="Icon_simple-microgenetics" data-name="Icon simple-microgenetics" d="M36.01,18c7.785,0,12.93,3.789,16.749,8.178l.744.879c.246.3.492.6.726.9,1.3,1.707,2.427,3.438,3.51,5.022.72,1.068,1.4,2.079,2.067,3.024l.681.96a8.593,8.593,0,0,0,.72.93c2.784,3.513,5.667,5.7,9.849,5.973a34.686,34.686,0,0,0,0-15.726c-4.185.273-7.065,2.457-9.9,5.973-.54-.738-1.071-1.53-1.665-2.388-1.125-1.7-2.427-3.624-3.96-5.535,3.018-3.507,6.75-6.525,11.8-7.671A35.513,35.513,0,0,0,36.01,0,36.02,36.02,0,0,0,4.54,18.519c5.043,1.152,8.769,4.164,11.793,7.668a10.51,10.51,0,0,1,.747.855l.711.9c1.437,1.845,2.742,3.735,3.915,5.535l1.665,2.478.72.987c.222.312.5.63.717.945,3.153,4.317,6.345,7.29,11.25,7.29,4.95,0,8.1-2.97,11.3-7.29l1.125,1.665c1.353,1.98,2.8,4.14,4.365,6.165-3.819,4.413-9,8.19-16.785,8.19s-12.912-3.825-16.737-8.19l-.72-.9-.72-.9c-1.305-1.71-2.43-3.462-3.51-5.04-.717-1.08-1.4-2.07-2.067-3.018l-.678-.99a11.568,11.568,0,0,0-.72-.942C7.978,30.6,5.1,28.4.913,28.125A35.1,35.1,0,0,0,.014,36a36.152,36.152,0,0,0,.87,7.863c4.194-.273,7.065-2.457,9.885-5.973.516.738,1.062,1.53,1.632,2.388,1.125,1.7,2.418,3.624,3.939,5.535-3.027,3.507-6.759,6.525-11.79,7.671a35.992,35.992,0,0,0,62.931,0c-5.04-1.152-8.766-4.164-11.79-7.668a9.986,9.986,0,0,1-.75-.855l-.708-.9c-1.44-1.845-2.748-3.735-3.915-5.535L48.655,36c-.222-.333-.462-.675-.69-.99-.234-.333-.462-.657-.7-.975-3.153-4.32-6.3-7.293-11.25-7.293s-8.1,2.97-11.25,7.293l-1.125-1.68c-1.308-2.007-2.748-4.14-4.368-6.177C23.1,21.789,28.135,18,36.01,18" transform="translate(-0.014)" fill="#e52620"/>
</svg>
