<svg xmlns="http://www.w3.org/2000/svg" xmlns:xlink="http://www.w3.org/1999/xlink" width="381" height="381" viewBox="0 0 381 381">
  <defs>
    <clipPath id="clip-Artboard_7">
      <rect width="381" height="381"/>
    </clipPath>
  </defs>
  <g id="Artboard_7" data-name="Artboard – 7" clip-path="url(#clip-Artboard_7)">
    <path id="Icon_awesome-twitter" data-name="Icon awesome-twitter" d="M226.977,54.587c.161,2.247.161,4.495.161,6.742,0,68.542-52.169,147.519-147.519,147.519A146.519,146.519,0,0,1,0,185.573a107.263,107.263,0,0,0,12.521.642A103.837,103.837,0,0,0,76.89,164.063a51.94,51.94,0,0,1-48.478-35.957,65.383,65.383,0,0,0,9.792.8,54.837,54.837,0,0,0,13.644-1.765A51.855,51.855,0,0,1,10.273,76.257v-.642A52.217,52.217,0,0,0,33.709,82.2,51.926,51.926,0,0,1,17.657,12.851,147.377,147.377,0,0,0,124.564,67.108a58.531,58.531,0,0,1-1.284-11.878,51.9,51.9,0,0,1,89.732-35.475A102.08,102.08,0,0,0,245.919,7.233a51.708,51.708,0,0,1-22.794,28.573,103.941,103.941,0,0,0,29.857-8.026,111.454,111.454,0,0,1-26,26.807Z" transform="translate(64.407 83.985)" fill="#fff"/>
  </g>
</svg>
