<svg xmlns="http://www.w3.org/2000/svg" xmlns:xlink="http://www.w3.org/1999/xlink" width="381" height="381" viewBox="0 0 381 381">
  <defs>
    <clipPath id="clip-Artboard_4">
      <rect width="381" height="381"/>
    </clipPath>
  </defs>
  <g id="Artboard_4" data-name="Artboard – 4" clip-path="url(#clip-Artboard_4)">
    <g id="Group_47253" data-name="Group 47253" transform="translate(-377 -347)">
      <circle id="Ellipse_2" data-name="Ellipse 2" cx="154.5" cy="154.5" r="154.5" transform="translate(413 383)" fill="#e52620"/>
      <g id="istockphoto-933582712-612x612-02" transform="translate(444.145 439.439)">
        <path id="Path_1" data-name="Path 1" d="M44.556,97.169a9.508,9.508,0,0,1,8.374-3.313c1,.772,2.428-.681,3.313.658,14.388,4.7,26.71,13.276,39.441,21.082,10.961,6.808,21.672,13.888,33.654,18.813a79.424,79.424,0,0,0,10.666,2.973c0,1.135-.953,1.611-1.566,2.269-5.9,5.9-11.959,11.664-17.633,17.769a9.917,9.917,0,0,1-10.28,3.041,68.647,68.647,0,0,1-18.5-7.761c-13.616-7.466-26.324-16.339-39.736-24.1-8.26-4.743-16.589-9.35-26.166-11.029a4.2,4.2,0,0,1-1.089-.522l2.383-2.7q7.466-7.716,15.159-15.159h0C43.354,98.554,43.717,97.646,44.556,97.169Z" transform="translate(-25.04 35.265)" fill="#fff"/>
        <path id="Path_2" data-name="Path 2" d="M186.748,80.625,173.132,93.832c-2.269,2.269-4.856,4.652-7.08,7.148a8.51,8.51,0,0,1-8.4,2.587,54.464,54.464,0,0,1-16.294-5.991c-12.323-6.4-23.783-14.251-35.651-21.423a4.947,4.947,0,0,1-1.679-1.747A132.845,132.845,0,0,1,92.5,51.94a23.171,23.171,0,0,1-1.838-9.259,5.492,5.492,0,0,1,5.923-5.741,26.869,26.869,0,0,1,11.029,2.542c10.961,4.539,20.833,10.984,30.863,17.179,11.642,7.171,23.011,14.819,35.629,20.424a86.442,86.442,0,0,0,12.64,3.54Z" transform="translate(58.251 -36.922)" fill="#fff"/>
        <path id="Path_3" data-name="Path 3" d="M101.543,40.4c4.539,20.016,16.793,35.515,26.733,52.195a191.878,191.878,0,0,1,14.841,27.459,26.912,26.912,0,0,1,2.269,9.486c0,4.539-2,6.513-6.445,6.536a32.2,32.2,0,0,1-13.071-3.54,154.476,154.476,0,0,1-17.7-9.531,5.537,5.537,0,0,1-2-1.77c-7.557-12.481-15.885-24.509-22.421-37.58a52.694,52.694,0,0,1-5.015-13.434A9.667,9.667,0,0,1,81.6,60.37C88.29,53.948,94.689,47.276,101.543,40.4Z" transform="translate(42.652 -32.508)" fill="#fff"/>
        <path id="Path_4" data-name="Path 4" d="M157.419,108.74c-.159,1.362-1.067,1.793-1.679,2.406-5.741,5.787-11.733,11.347-17.224,17.383a10.643,10.643,0,0,1-11.528,3.177A69.713,69.713,0,0,1,111.1,124.9c-11.574-6.218-22.512-13.616-33.7-20.424a4.539,4.539,0,0,1-1.657-1.43C70.957,95.033,66.1,87.159,63.286,78.081a18.608,18.608,0,0,1-.93-8.033,4.834,4.834,0,0,1,4.539-4.539,19.336,19.336,0,0,1,8.034.93A117.194,117.194,0,0,1,99.46,78.626c11.347,6.808,22.467,14.32,34.04,20.81C141.1,103.589,148.7,107.424,157.419,108.74Z" transform="translate(22.2 -0.747)" fill="#fff"/>
        <path id="Path_5" data-name="Path 5" d="M68.2,73.45a.5.5,0,0,1,.545-.522,6.218,6.218,0,0,0,1.725-1.52c.613-.658,1.2-1.339,1.861-1.974a3.017,3.017,0,0,1,.84-.363c.84,3,1.475,6.014,2.519,8.873a142.537,142.537,0,0,0,13.276,25.507c7.194,11.846,14.978,23.329,21.423,35.606a56.871,56.871,0,0,1,6.036,15.386q2.315,11.608-9.077,9.509c-6.513-1.18-12.186-4.539-18.155-7.262a36.06,36.06,0,0,1-16.748-15.432c-6.536-11.687-14.433-22.693-19.721-35.016-.431-1-.817-2-1.2-3.018-2.5-6.468-2.474-12.141,3.744-16.929A136.785,136.785,0,0,0,66.746,75.106,5.583,5.583,0,0,0,68.2,73.45Z" transform="translate(6.599 3.884)" fill="#fff"/>
        <path id="Path_6" data-name="Path 6" d="M41.249,96.18q-7.33,7.829-15.159,15.159a29.659,29.659,0,0,1,6.331-6.808A52.354,52.354,0,0,1,41.249,96.18Z" transform="translate(-23.707 38.296)" fill="#fff"/>
        <path id="Path_7" data-name="Path 7" d="M79.79,113.22c.363-2.269,0-4.312.408-6.4a12.027,12.027,0,0,1-.408,6.4Z" transform="translate(44.457 51.802)" fill="#fff"/>
        <path id="Path_8" data-name="Path 8" d="M30.612,97.51a12.527,12.527,0,0,0-1.634,2.769C28.615,99.212,28.774,98.327,30.612,97.51Z" transform="translate(-20.241 39.985)" fill="#fff"/>
        <path id="Path_9" data-name="Path 9" d="M104.18,88.305l1.793-2.655C106.041,87.034,105.587,87.579,104.18,88.305Z" transform="translate(75.416 24.93)" fill="#fff"/>
        <path id="Path_10" data-name="Path 10" d="M127.22,65.275l1.793-2.655C128.99,64,128.6,64.549,127.22,65.275Z" transform="translate(104.662 -4.303)" fill="#fff"/>
        <path id="Path_11" data-name="Path 11" d="M102.47,89.7a3.086,3.086,0,0,1,1.271-2,1.634,1.634,0,0,1-1.271,2Z" transform="translate(73.246 27.532)" fill="#fff"/>
        <path id="Path_12" data-name="Path 12" d="M99.934,91.4c0,1.407-.272,2.065-1.294,2.269C98.663,92.762,99.275,92.4,99.934,91.4Z" transform="translate(68.384 32.229)" fill="#fff"/>
        <path id="Path_13" data-name="Path 13" d="M98,93.39a2.269,2.269,0,0,1-1.294,2.269C96.755,94.638,97.368,94.184,98,93.39Z" transform="translate(65.934 34.755)" fill="#fff"/>
        <path id="Path_14" data-name="Path 14" d="M40.643,94.671l-3.313-.658C38.465,94.1,39.872,92.832,40.643,94.671Z" transform="translate(-9.44 35.108)" fill="#fff"/>
        <path id="Path_15" data-name="Path 15" d="M129.29,62.74l1.339-2.02C130.9,61.968,130.4,62.513,129.29,62.74Z" transform="translate(107.29 -6.715)" fill="#fff"/>
        <path id="Path_16" data-name="Path 16" d="M134.474,56.92a2.269,2.269,0,0,1-1.294,2.269C133.225,58.168,133.861,57.714,134.474,56.92Z" transform="translate(112.227 -11.538)" fill="#fff"/>
        <path id="Path_17" data-name="Path 17" d="M73.69,118.428c0-.953.635-1.384,1.157-1.838A1.589,1.589,0,0,1,73.69,118.428Z" transform="translate(36.714 64.204)" fill="#fff"/>
        <path id="Path_18" data-name="Path 18" d="M67.94,124.151c0-.862.613-1.248.976-1.861.136.136.318.272.3.363C69.1,123.357,68.87,124.037,67.94,124.151Z" transform="translate(29.415 71.439)" fill="#fff"/>
        <path id="Path_19" data-name="Path 19" d="M54.1,93.51c.477.408.681,1.225.386,1.362s-.477-.5-.545-.862S54.1,93.691,54.1,93.51Z" transform="translate(11.624 34.907)" fill="#fff"/>
        <path id="Path_20" data-name="Path 20" d="M100.924,62.059l-.113.59a6.81,6.81,0,0,1-.749-.613c-.136-.182-.25-.59.136-.545S100.72,61.878,100.924,62.059Z" transform="translate(70.026 -5.739)" fill="#fff"/>
        <path id="Path_21" data-name="Path 21" d="M72.29,118.773a5.014,5.014,0,0,1-.749.658c-.25.136-.59,0-.386-.34a2.723,2.723,0,0,1,.749-.681S72.108,118.592,72.29,118.773Z" transform="translate(33.417 66.514)" fill="#fff"/>
        <path id="Path_22" data-name="Path 22" d="M56.1,71.935v.477c0,.023-.386-.2-.408-.454a2.913,2.913,0,0,1,0-.477A1.375,1.375,0,0,1,56.1,71.935Z" transform="translate(13.86 6.943)" fill="#fff"/>
        <path id="Path_23" data-name="Path 23" d="M83.228,73l-.408-.59c.159,0,.386-.159.454,0a2.268,2.268,0,0,1,.477.567Z" transform="translate(48.303 8.034)" fill="#fff"/>
        <path id="Path_24" data-name="Path 24" d="M108.47,82.419l-.59.431c0-.136-.182-.34-.136-.408a2.973,2.973,0,0,1,.545-.522Z" transform="translate(79.931 20.195)" fill="#fff"/>
        <path id="Path_25" data-name="Path 25" d="M57.51,69.994l.431-.454a3.384,3.384,0,0,1,.2.681.525.525,0,0,1-.182.386Z" transform="translate(16.176 4.481)" fill="#fff"/>
        <path id="Path_26" data-name="Path 26" d="M34.706,95.28A5.31,5.31,0,0,1,32.8,97.254,2.746,2.746,0,0,1,34.706,95.28Z" transform="translate(-15.19 37.154)" fill="#fff"/>
        <path id="Path_27" data-name="Path 27" d="M79.152,112.126l-.522-.386c.159,0,.318-.182.454-.159a3.793,3.793,0,0,1,.681.182Z" transform="translate(42.984 57.843)" fill="#fff"/>
        <path id="Path_28" data-name="Path 28" d="M59.927,70.1a1.906,1.906,0,0,1-1.657,1.52Z" transform="translate(17.14 5.192)" fill="#fff"/>
        <path id="Path_29" data-name="Path 29" d="M58.85,71a1.861,1.861,0,0,1-1.52,1.657Z" transform="translate(15.947 6.334)" fill="#fff"/>
        <path id="Path_30" data-name="Path 30" d="M133.32,55l.363.318s-.25.227-.34.2a1.675,1.675,0,0,1-.363-.272Z" transform="translate(111.973 -13.975)" fill="#fff"/>
        <path id="Path_31" data-name="Path 31" d="M45.836,115.166s-.25.227-.34.2-.25-.2-.363-.3.25-.227.34-.2A.668.668,0,0,1,45.836,115.166Z" transform="translate(0.436 62.019)" fill="#fff"/>
        <path id="Path_32" data-name="Path 32" d="M55.451,120.735s-.182.34-.25.318a1.134,1.134,0,0,1-.431-.227s.159-.318.25-.295S55.292,120.667,55.451,120.735Z" transform="translate(12.698 69.204)" fill="#fff"/>
      </g>
    </g>
  </g>
</svg>
