<svg xmlns="http://www.w3.org/2000/svg" xmlns:xlink="http://www.w3.org/1999/xlink" width="381" height="381" viewBox="0 0 381 381">
  <defs>
    <clipPath id="clip-Artboard_1">
      <rect width="381" height="381"/>
    </clipPath>
  </defs>
  <g id="Artboard_1" data-name="Artboard – 1" clip-path="url(#clip-Artboard_1)">
    <rect width="381" height="381"/>
    <g id="Untitled-1-06" transform="translate(-120.832 -120.522)" opacity="0.777">
      <circle id="Ellipse_1-38" data-name="Ellipse 1-38" cx="11.729" cy="11.729" r="11.729" transform="translate(386.943 245.67)" fill="#fff" opacity="0.51" style="isolation: isolate"/>
      <circle id="Ellipse_1-45" data-name="Ellipse 1-45" cx="13.493" cy="13.493" r="13.493" transform="translate(315.424 281.092)" fill="#fff"/>
      <circle id="Ellipse_1-46" data-name="Ellipse 1-46" cx="13.493" cy="13.493" r="13.493" transform="translate(315.424 316.664)" fill="#fff"/>
      <circle id="Ellipse_1-55" data-name="Ellipse 1-55" cx="13.493" cy="13.493" r="13.493" transform="translate(280.256 281.092)" fill="#fff"/>
      <circle id="Ellipse_1-56" data-name="Ellipse 1-56" cx="13.493" cy="13.493" r="13.493" transform="translate(280.256 316.664)" fill="#fff"/>
      <circle id="Ellipse_1-34" data-name="Ellipse 1-34" cx="13.406" cy="13.406" r="13.406" transform="translate(244.99 243.992)" fill="#fff" opacity="0.67" style="isolation: isolate"/>
      <circle id="Ellipse_1-35" data-name="Ellipse 1-35" cx="13.406" cy="13.406" r="13.406" transform="translate(280.141 243.992)" fill="#fff" opacity="0.67" style="isolation: isolate"/>
      <circle id="Ellipse_1-36" data-name="Ellipse 1-36" cx="13.406" cy="13.406" r="13.406" transform="translate(315.712 243.992)" fill="#fff" opacity="0.67" style="isolation: isolate"/>
      <circle id="Ellipse_1-37" data-name="Ellipse 1-37" cx="13.406" cy="13.406" r="13.406" transform="translate(350.95 243.992)" fill="#fff" opacity="0.67" style="isolation: isolate"/>
      <circle id="Ellipse_1-44" data-name="Ellipse 1-44" cx="13.406" cy="13.406" r="13.406" transform="translate(244.99 280.36)" fill="#fff" opacity="0.67" style="isolation: isolate"/>
      <circle id="Ellipse_1-47" data-name="Ellipse 1-47" cx="13.406" cy="13.406" r="13.406" transform="translate(350.95 280.36)" fill="#fff" opacity="0.67" style="isolation: isolate"/>
      <circle id="Ellipse_1-54" data-name="Ellipse 1-54" cx="13.406" cy="13.406" r="13.406" transform="translate(244.99 317.569)" fill="#fff" opacity="0.67" style="isolation: isolate"/>
      <circle id="Ellipse_1-57" data-name="Ellipse 1-57" cx="13.406" cy="13.406" r="13.406" transform="translate(350.95 317.569)" fill="#fff" opacity="0.67" style="isolation: isolate"/>
      <circle id="Ellipse_1-64" data-name="Ellipse 1-64" cx="13.406" cy="13.406" r="13.406" transform="translate(244.99 353.937)" fill="#fff" opacity="0.67" style="isolation: isolate"/>
      <circle id="Ellipse_1-65" data-name="Ellipse 1-65" cx="13.406" cy="13.406" r="13.406" transform="translate(280.141 353.937)" fill="#fff" opacity="0.67" style="isolation: isolate"/>
      <circle id="Ellipse_1-66" data-name="Ellipse 1-66" cx="13.406" cy="13.406" r="13.406" transform="translate(315.712 353.937)" fill="#fff" opacity="0.67" style="isolation: isolate"/>
      <circle id="Ellipse_1-67" data-name="Ellipse 1-67" cx="13.406" cy="13.406" r="13.406" transform="translate(350.95 353.937)" fill="#fff" opacity="0.67" style="isolation: isolate"/>
      <circle id="Ellipse_1-23" data-name="Ellipse 1-23" cx="11.729" cy="11.729" r="11.729" transform="translate(212.266 211.816)" fill="#fff" opacity="0.51" style="isolation: isolate"/>
      <circle id="Ellipse_1-24" data-name="Ellipse 1-24" cx="11.729" cy="11.729" r="11.729" transform="translate(246.668 211.816)" fill="#fff" opacity="0.51" style="isolation: isolate"/>
      <circle id="Ellipse_1-25" data-name="Ellipse 1-25" cx="11.729" cy="11.729" r="11.729" transform="translate(281.819 211.816)" fill="#fff" opacity="0.51" style="isolation: isolate"/>
      <circle id="Ellipse_1-26" data-name="Ellipse 1-26" cx="11.729" cy="11.729" r="11.729" transform="translate(317.39 211.816)" fill="#fff" opacity="0.51" style="isolation: isolate"/>
      <circle id="Ellipse_1-27" data-name="Ellipse 1-27" cx="11.729" cy="11.729" r="11.729" transform="translate(352.628 211.816)" fill="#fff" opacity="0.51" style="isolation: isolate"/>
      <circle id="Ellipse_1-28" data-name="Ellipse 1-28" cx="11.729" cy="11.729" r="11.729" transform="translate(386.943 211.816)" fill="#fff" opacity="0.51" style="isolation: isolate"/>
      <circle id="Ellipse_1-33" data-name="Ellipse 1-33" cx="11.729" cy="11.729" r="11.729" transform="translate(212.266 245.67)" fill="#fff" opacity="0.51" style="isolation: isolate"/>
      <circle id="Ellipse_1-43" data-name="Ellipse 1-43" cx="11.729" cy="11.729" r="11.729" transform="translate(212.266 282.038)" fill="#fff" opacity="0.51" style="isolation: isolate"/>
      <circle id="Ellipse_1-48" data-name="Ellipse 1-48" cx="11.729" cy="11.729" r="11.729" transform="translate(386.943 282.038)" fill="#fff" opacity="0.51" style="isolation: isolate"/>
      <circle id="Ellipse_1-53" data-name="Ellipse 1-53" cx="11.729" cy="11.729" r="11.729" transform="translate(212.266 319.247)" fill="#fff" opacity="0.51" style="isolation: isolate"/>
      <circle id="Ellipse_1-58" data-name="Ellipse 1-58" cx="11.729" cy="11.729" r="11.729" transform="translate(386.943 319.247)" fill="#fff" opacity="0.51" style="isolation: isolate"/>
      <circle id="Ellipse_1-63" data-name="Ellipse 1-63" cx="11.729" cy="11.729" r="11.729" transform="translate(212.266 355.615)" fill="#fff" opacity="0.51" style="isolation: isolate"/>
      <circle id="Ellipse_1-68" data-name="Ellipse 1-68" cx="11.729" cy="11.729" r="11.729" transform="translate(386.943 355.615)" fill="#fff" opacity="0.51" style="isolation: isolate"/>
      <circle id="Ellipse_1-73" data-name="Ellipse 1-73" cx="11.729" cy="11.729" r="11.729" transform="translate(212.266 389.468)" fill="#fff" opacity="0.51" style="isolation: isolate"/>
      <circle id="Ellipse_1-74" data-name="Ellipse 1-74" cx="11.729" cy="11.729" r="11.729" transform="translate(246.668 389.468)" fill="#fff" opacity="0.51" style="isolation: isolate"/>
      <circle id="Ellipse_1-75" data-name="Ellipse 1-75" cx="11.729" cy="11.729" r="11.729" transform="translate(281.819 389.468)" fill="#fff" opacity="0.51" style="isolation: isolate"/>
      <circle id="Ellipse_1-76" data-name="Ellipse 1-76" cx="11.729" cy="11.729" r="11.729" transform="translate(317.39 389.468)" fill="#fff" opacity="0.51" style="isolation: isolate"/>
      <circle id="Ellipse_1-77" data-name="Ellipse 1-77" cx="11.729" cy="11.729" r="11.729" transform="translate(352.628 389.468)" fill="#fff" opacity="0.51" style="isolation: isolate"/>
      <circle id="Ellipse_1-78" data-name="Ellipse 1-78" cx="11.729" cy="11.729" r="11.729" transform="translate(386.943 389.468)" fill="#fff" opacity="0.51" style="isolation: isolate"/>
      <circle id="Ellipse_1-12" data-name="Ellipse 1-12" cx="10.892" cy="10.892" r="10.892" transform="translate(179.964 180.61)" fill="#fff" opacity="0.47" style="isolation: isolate"/>
      <circle id="Ellipse_1-13" data-name="Ellipse 1-13" cx="10.892" cy="10.892" r="10.892" transform="translate(213.102 180.61)" fill="#fff" opacity="0.47" style="isolation: isolate"/>
      <circle id="Ellipse_1-14" data-name="Ellipse 1-14" cx="10.892" cy="10.892" r="10.892" transform="translate(247.504 180.61)" fill="#fff" opacity="0.47" style="isolation: isolate"/>
      <circle id="Ellipse_1-15" data-name="Ellipse 1-15" cx="10.892" cy="10.892" r="10.892" transform="translate(282.655 180.61)" fill="#fff" opacity="0.47" style="isolation: isolate"/>
      <circle id="Ellipse_1-16" data-name="Ellipse 1-16" cx="10.892" cy="10.892" r="10.892" transform="translate(318.226 180.61)" fill="#fff" opacity="0.47" style="isolation: isolate"/>
      <circle id="Ellipse_1-17" data-name="Ellipse 1-17" cx="10.892" cy="10.892" r="10.892" transform="translate(353.464 180.61)" fill="#fff" opacity="0.47" style="isolation: isolate"/>
      <circle id="Ellipse_1-18" data-name="Ellipse 1-18" cx="10.892" cy="10.892" r="10.892" transform="translate(387.779 180.61)" fill="#fff" opacity="0.47" style="isolation: isolate"/>
      <circle id="Ellipse_1-19" data-name="Ellipse 1-19" cx="10.892" cy="10.892" r="10.892" transform="translate(420.923 180.61)" fill="#fff" opacity="0.47" style="isolation: isolate"/>
      <circle id="Ellipse_1-22" data-name="Ellipse 1-22" cx="10.892" cy="10.892" r="10.892" transform="translate(179.964 212.652)" fill="#fff" opacity="0.47" style="isolation: isolate"/>
      <circle id="Ellipse_1-29" data-name="Ellipse 1-29" cx="10.892" cy="10.892" r="10.892" transform="translate(420.923 212.652)" fill="#fff" opacity="0.47" style="isolation: isolate"/>
      <circle id="Ellipse_1-32" data-name="Ellipse 1-32" cx="10.892" cy="10.892" r="10.892" transform="translate(179.964 246.506)" fill="#fff" opacity="0.47" style="isolation: isolate"/>
      <circle id="Ellipse_1-39" data-name="Ellipse 1-39" cx="10.892" cy="10.892" r="10.892" transform="translate(420.923 246.506)" fill="#fff" opacity="0.47" style="isolation: isolate"/>
      <circle id="Ellipse_1-42" data-name="Ellipse 1-42" cx="10.892" cy="10.892" r="10.892" transform="translate(179.964 282.874)" fill="#fff" opacity="0.47" style="isolation: isolate"/>
      <circle id="Ellipse_1-49" data-name="Ellipse 1-49" cx="10.892" cy="10.892" r="10.892" transform="translate(420.923 282.874)" fill="#fff" opacity="0.47" style="isolation: isolate"/>
      <circle id="Ellipse_1-52" data-name="Ellipse 1-52" cx="10.892" cy="10.892" r="10.892" transform="translate(179.964 320.083)" fill="#fff" opacity="0.47" style="isolation: isolate"/>
      <circle id="Ellipse_1-59" data-name="Ellipse 1-59" cx="10.892" cy="10.892" r="10.892" transform="translate(420.923 320.083)" fill="#fff" opacity="0.47" style="isolation: isolate"/>
      <circle id="Ellipse_1-62" data-name="Ellipse 1-62" cx="10.892" cy="10.892" r="10.892" transform="translate(179.964 356.451)" fill="#fff" opacity="0.47" style="isolation: isolate"/>
      <circle id="Ellipse_1-69" data-name="Ellipse 1-69" cx="10.892" cy="10.892" r="10.892" transform="translate(420.923 356.451)" fill="#fff" opacity="0.47" style="isolation: isolate"/>
      <circle id="Ellipse_1-72" data-name="Ellipse 1-72" cx="10.892" cy="10.892" r="10.892" transform="translate(179.964 390.304)" fill="#fff" opacity="0.47" style="isolation: isolate"/>
      <circle id="Ellipse_1-79" data-name="Ellipse 1-79" cx="10.892" cy="10.892" r="10.892" transform="translate(420.923 390.304)" fill="#fff" opacity="0.47" style="isolation: isolate"/>
      <circle id="Ellipse_1-82" data-name="Ellipse 1-82" cx="10.892" cy="10.892" r="10.892" transform="translate(179.964 421.649)" fill="#fff" opacity="0.47" style="isolation: isolate"/>
      <circle id="Ellipse_1-83" data-name="Ellipse 1-83" cx="10.892" cy="10.892" r="10.892" transform="translate(213.102 421.649)" fill="#fff" opacity="0.47" style="isolation: isolate"/>
      <circle id="Ellipse_1-84" data-name="Ellipse 1-84" cx="10.892" cy="10.892" r="10.892" transform="translate(247.504 421.649)" fill="#fff" opacity="0.47" style="isolation: isolate"/>
      <circle id="Ellipse_1-85" data-name="Ellipse 1-85" cx="10.892" cy="10.892" r="10.892" transform="translate(282.655 421.649)" fill="#fff" opacity="0.47" style="isolation: isolate"/>
      <circle id="Ellipse_1-86" data-name="Ellipse 1-86" cx="10.892" cy="10.892" r="10.892" transform="translate(318.226 421.649)" fill="#fff" opacity="0.47" style="isolation: isolate"/>
      <circle id="Ellipse_1-87" data-name="Ellipse 1-87" cx="10.892" cy="10.892" r="10.892" transform="translate(353.464 421.649)" fill="#fff" opacity="0.47" style="isolation: isolate"/>
      <circle id="Ellipse_1-88" data-name="Ellipse 1-88" cx="10.892" cy="10.892" r="10.892" transform="translate(387.779 421.649)" fill="#fff" opacity="0.47" style="isolation: isolate"/>
      <circle id="Ellipse_1-89" data-name="Ellipse 1-89" cx="10.892" cy="10.892" r="10.892" transform="translate(420.923 421.649)" fill="#fff" opacity="0.47" style="isolation: isolate"/>
      <circle id="Ellipse_1" data-name="Ellipse 1" cx="10.056" cy="10.056" r="10.056" transform="translate(148.832 150.521)" fill="#fff" opacity="0.23" style="isolation: isolate"/>
      <circle id="Ellipse_1-2" data-name="Ellipse 1-2" cx="10.056" cy="10.056" r="10.056" transform="translate(180.8 150.521)" fill="#fff" opacity="0.23" style="isolation: isolate"/>
      <circle id="Ellipse_1-3" data-name="Ellipse 1-3" cx="10.056" cy="10.056" r="10.056" transform="translate(213.939 150.521)" fill="#fff" opacity="0.23" style="isolation: isolate"/>
      <circle id="Ellipse_1-4" data-name="Ellipse 1-4" cx="10.056" cy="10.056" r="10.056" transform="translate(248.34 150.521)" fill="#fff" opacity="0.23" style="isolation: isolate"/>
      <circle id="Ellipse_1-5" data-name="Ellipse 1-5" cx="10.056" cy="10.056" r="10.056" transform="translate(283.491 150.521)" fill="#fff" opacity="0.23" style="isolation: isolate"/>
      <circle id="Ellipse_1-6" data-name="Ellipse 1-6" cx="10.056" cy="10.056" r="10.056" transform="translate(319.063 150.521)" fill="#fff" opacity="0.23" style="isolation: isolate"/>
      <circle id="Ellipse_1-7" data-name="Ellipse 1-7" cx="10.056" cy="10.056" r="10.056" transform="translate(354.3 150.521)" fill="#fff" opacity="0.23" style="isolation: isolate"/>
      <circle id="Ellipse_1-8" data-name="Ellipse 1-8" cx="10.056" cy="10.056" r="10.056" transform="translate(388.615 150.521)" fill="#fff" opacity="0.23" style="isolation: isolate"/>
      <circle id="Ellipse_1-9" data-name="Ellipse 1-9" cx="10.056" cy="10.056" r="10.056" transform="translate(421.759 150.521)" fill="#fff" opacity="0.23" style="isolation: isolate"/>
      <circle id="Ellipse_1-11" data-name="Ellipse 1-11" cx="10.056" cy="10.056" r="10.056" transform="translate(148.832 181.446)" fill="#fff" opacity="0.23" style="isolation: isolate"/>
      <circle id="Ellipse_1-20" data-name="Ellipse 1-20" cx="10.056" cy="10.056" r="10.056" transform="translate(453.808 181.446)" fill="#fff" opacity="0.23" style="isolation: isolate"/>
      <circle id="Ellipse_1-21" data-name="Ellipse 1-21" cx="10.056" cy="10.056" r="10.056" transform="translate(148.832 213.489)" fill="#fff" opacity="0.23" style="isolation: isolate"/>
      <circle id="Ellipse_1-30" data-name="Ellipse 1-30" cx="10.056" cy="10.056" r="10.056" transform="translate(453.808 213.489)" fill="#fff" opacity="0.23" style="isolation: isolate"/>
      <circle id="Ellipse_1-31" data-name="Ellipse 1-31" cx="10.056" cy="10.056" r="10.056" transform="translate(148.832 247.342)" fill="#fff" opacity="0.23" style="isolation: isolate"/>
      <circle id="Ellipse_1-40" data-name="Ellipse 1-40" cx="10.056" cy="10.056" r="10.056" transform="translate(453.808 247.342)" fill="#fff" opacity="0.23" style="isolation: isolate"/>
      <circle id="Ellipse_1-41" data-name="Ellipse 1-41" cx="10.056" cy="10.056" r="10.056" transform="translate(148.832 283.71)" fill="#fff" opacity="0.23" style="isolation: isolate"/>
      <circle id="Ellipse_1-50" data-name="Ellipse 1-50" cx="10.056" cy="10.056" r="10.056" transform="translate(453.808 283.71)" fill="#fff" opacity="0.23" style="isolation: isolate"/>
      <circle id="Ellipse_1-51" data-name="Ellipse 1-51" cx="10.056" cy="10.056" r="10.056" transform="translate(148.832 320.919)" fill="#fff" opacity="0.23" style="isolation: isolate"/>
      <circle id="Ellipse_1-60" data-name="Ellipse 1-60" cx="10.056" cy="10.056" r="10.056" transform="translate(453.808 320.919)" fill="#fff" opacity="0.23" style="isolation: isolate"/>
      <circle id="Ellipse_1-61" data-name="Ellipse 1-61" cx="10.056" cy="10.056" r="10.056" transform="translate(148.832 357.287)" fill="#fff" opacity="0.23" style="isolation: isolate"/>
      <circle id="Ellipse_1-70" data-name="Ellipse 1-70" cx="10.056" cy="10.056" r="10.056" transform="translate(453.808 357.287)" fill="#fff" opacity="0.23" style="isolation: isolate"/>
      <circle id="Ellipse_1-71" data-name="Ellipse 1-71" cx="10.056" cy="10.056" r="10.056" transform="translate(148.832 391.14)" fill="#fff" opacity="0.23" style="isolation: isolate"/>
      <circle id="Ellipse_1-80" data-name="Ellipse 1-80" cx="10.056" cy="10.056" r="10.056" transform="translate(453.808 391.14)" fill="#fff" opacity="0.23" style="isolation: isolate"/>
      <circle id="Ellipse_1-81" data-name="Ellipse 1-81" cx="10.056" cy="10.056" r="10.056" transform="translate(148.832 422.485)" fill="#fff" opacity="0.23" style="isolation: isolate"/>
      <circle id="Ellipse_1-90" data-name="Ellipse 1-90" cx="10.056" cy="10.056" r="10.056" transform="translate(453.808 422.485)" fill="#fff" opacity="0.23" style="isolation: isolate"/>
      <circle id="Ellipse_1-91" data-name="Ellipse 1-91" cx="10.056" cy="10.056" r="10.056" transform="translate(148.832 452.153)" fill="#fff" opacity="0.23" style="isolation: isolate"/>
      <circle id="Ellipse_1-92" data-name="Ellipse 1-92" cx="10.056" cy="10.056" r="10.056" transform="translate(180.8 452.153)" fill="#fff" opacity="0.23" style="isolation: isolate"/>
      <circle id="Ellipse_1-93" data-name="Ellipse 1-93" cx="10.056" cy="10.056" r="10.056" transform="translate(213.939 452.153)" fill="#fff" opacity="0.23" style="isolation: isolate"/>
      <circle id="Ellipse_1-94" data-name="Ellipse 1-94" cx="10.056" cy="10.056" r="10.056" transform="translate(248.34 452.153)" fill="#fff" opacity="0.23" style="isolation: isolate"/>
      <circle id="Ellipse_1-95" data-name="Ellipse 1-95" cx="10.056" cy="10.056" r="10.056" transform="translate(283.491 452.153)" fill="#fff" opacity="0.23" style="isolation: isolate"/>
      <circle id="Ellipse_1-96" data-name="Ellipse 1-96" cx="10.056" cy="10.056" r="10.056" transform="translate(319.063 452.153)" fill="#fff" opacity="0.23" style="isolation: isolate"/>
      <circle id="Ellipse_1-97" data-name="Ellipse 1-97" cx="10.056" cy="10.056" r="10.056" transform="translate(354.3 452.153)" fill="#fff" opacity="0.23" style="isolation: isolate"/>
      <circle id="Ellipse_1-98" data-name="Ellipse 1-98" cx="10.056" cy="10.056" r="10.056" transform="translate(388.615 452.153)" fill="#fff" opacity="0.23" style="isolation: isolate"/>
      <circle id="Ellipse_1-99" data-name="Ellipse 1-99" cx="10.056" cy="10.056" r="10.056" transform="translate(421.759 452.153)" fill="#fff" opacity="0.23" style="isolation: isolate"/>
      <circle id="Ellipse_1-100" data-name="Ellipse 1-100" cx="10.056" cy="10.056" r="10.056" transform="translate(453.808 452.153)" fill="#fff" opacity="0.23" style="isolation: isolate"/>
      <circle id="Ellipse_1-10" data-name="Ellipse 1-10" cx="10.056" cy="10.056" r="10.056" transform="translate(453.808 150.521)" fill="#fff" opacity="0.23" style="isolation: isolate"/>
    </g>
  </g>
</svg>
