<svg xmlns="http://www.w3.org/2000/svg" xmlns:xlink="http://www.w3.org/1999/xlink" width="381" height="381" viewBox="0 0 381 381">
  <defs>
    <clipPath id="clip-Artboard_3">
      <rect width="381" height="381"/>
    </clipPath>
  </defs>
  <g id="Artboard_3" data-name="Artboard – 3" clip-path="url(#clip-Artboard_3)">
    <path id="Icon_simple-microgenetics" data-name="Icon simple-microgenetics" d="M153.088,76.544c33.105,0,54.984,16.112,71.224,34.776l3.164,3.738c1.046,1.288,2.092,2.551,3.087,3.827,5.537,7.259,10.321,14.62,14.926,21.356,3.062,4.542,5.932,8.841,8.79,12.859l2.9,4.082a36.538,36.538,0,0,0,3.062,3.955c11.839,14.939,24.1,24.239,41.882,25.4a147.5,147.5,0,0,0,0-66.874c-17.8,1.161-30.043,10.448-42.112,25.4-2.3-3.138-4.554-6.506-7.08-10.155-4.784-7.221-10.321-15.411-16.84-23.537,12.834-14.913,28.7-27.747,50.162-32.62A151.019,151.019,0,0,0,153.088,0,153.172,153.172,0,0,0,19.264,78.751c21.445,4.9,37.29,17.707,50.149,32.608a44.7,44.7,0,0,1,3.177,3.636l3.023,3.827c6.111,7.846,11.66,15.883,16.648,23.537l7.08,10.538,3.062,4.2c.944,1.327,2.1,2.679,3.049,4.019,13.408,18.358,26.982,31,47.84,31,21.05,0,34.457-12.63,48.031-31l4.784,7.08c5.754,8.42,11.89,17.605,18.562,26.216-16.24,18.766-38.272,34.827-71.377,34.827S98.385,212.97,82.12,194.409l-3.062-3.827L76,186.754c-5.549-7.272-10.333-14.722-14.926-21.432-3.049-4.593-5.932-8.8-8.79-12.834l-2.883-4.21a49.193,49.193,0,0,0-3.062-4.006C33.884,130.124,21.624,120.748,3.841,119.6A149.241,149.241,0,0,0,.014,153.088a153.734,153.734,0,0,0,3.7,33.437c17.835-1.161,30.043-10.448,42.035-25.4,2.194,3.138,4.516,6.506,6.94,10.155,4.784,7.221,10.282,15.411,16.75,23.537C56.567,209.73,40.7,222.564,19.3,227.437a153.055,153.055,0,0,0,267.61-.013c-21.432-4.9-37.277-17.707-50.136-32.608a42.466,42.466,0,0,1-3.189-3.636l-3.011-3.827c-6.124-7.846-11.686-15.883-16.648-23.537l-7.068-10.729c-.944-1.416-1.965-2.87-2.934-4.21-1-1.416-1.965-2.794-2.96-4.146-13.408-18.371-26.79-31.013-47.84-31.013s-34.432,12.63-47.84,31.013l-4.784-7.144c-5.562-8.535-11.686-17.605-18.575-26.267,16.24-18.664,37.672-34.776,71.16-34.776" transform="translate(37.514 37.412)" fill="#e52620"/>
  </g>
</svg>
