<svg xmlns="http://www.w3.org/2000/svg" xmlns:xlink="http://www.w3.org/1999/xlink" width="381" height="381" viewBox="0 0 381 381">
  <defs>
    <clipPath id="clip-Artboard_2">
      <rect width="381" height="381"/>
    </clipPath>
  </defs>
  <g id="Artboard_2" data-name="Artboard – 2" clip-path="url(#clip-Artboard_2)">
    <g id="Group_47252" data-name="Group 47252" transform="translate(6584.866 -3310.163) rotate(45)">
      <path id="Path_35" data-name="Path 35" d="M151.842,0A151.842,151.842,0,1,1,0,151.842,151.842,151.842,0,0,1,151.842,0Z" transform="translate(-2198 6845)" fill="#e51e20"/>
      <g id="Group_42" data-name="Group 42" transform="translate(-2138.95 6899.832)">
        <circle id="Ellipse_6" data-name="Ellipse 6" cx="12.654" cy="12.654" r="12.654" fill="#fff" opacity="0.328"/>
        <circle id="Ellipse_6-2" data-name="Ellipse 6" cx="12.654" cy="12.654" r="12.654" transform="translate(33.743)" fill="#fff" opacity="0.328"/>
        <circle id="Ellipse_6-3" data-name="Ellipse 6" cx="12.654" cy="12.654" r="12.654" transform="translate(67.485)" fill="#fff" opacity="0.328"/>
        <circle id="Ellipse_6-4" data-name="Ellipse 6" cx="12.654" cy="12.654" r="12.654" transform="translate(101.228)" fill="#fff" opacity="0.328"/>
        <circle id="Ellipse_6-5" data-name="Ellipse 6" cx="12.654" cy="12.654" r="12.654" transform="translate(134.971)" fill="#fff" opacity="0.328"/>
        <circle id="Ellipse_6-6" data-name="Ellipse 6" cx="12.654" cy="12.654" r="12.654" transform="translate(168.714)" fill="#fff" opacity="0.328"/>
        <circle id="Ellipse_6-7" data-name="Ellipse 6" cx="12.654" cy="12.654" r="12.654" transform="translate(0 33.743)" fill="#fff" opacity="0.328"/>
        <circle id="Ellipse_6-8" data-name="Ellipse 6" cx="12.654" cy="12.654" r="12.654" transform="translate(33.743 33.743)" fill="#fff" opacity="0.66"/>
        <circle id="Ellipse_6-9" data-name="Ellipse 6" cx="12.654" cy="12.654" r="12.654" transform="translate(67.485 33.743)" fill="#fff" opacity="0.66"/>
        <circle id="Ellipse_6-10" data-name="Ellipse 6" cx="12.654" cy="12.654" r="12.654" transform="translate(101.228 33.743)" fill="#fff" opacity="0.66"/>
        <circle id="Ellipse_6-11" data-name="Ellipse 6" cx="12.654" cy="12.654" r="12.654" transform="translate(134.971 33.743)" fill="#fff" opacity="0.66"/>
        <circle id="Ellipse_6-12" data-name="Ellipse 6" cx="12.654" cy="12.654" r="12.654" transform="translate(168.714 33.743)" fill="#fff" opacity="0.328"/>
        <circle id="Ellipse_6-13" data-name="Ellipse 6" cx="12.654" cy="12.654" r="12.654" transform="translate(0 67.485)" fill="#fff" opacity="0.328"/>
        <circle id="Ellipse_6-14" data-name="Ellipse 6" cx="12.654" cy="12.654" r="12.654" transform="translate(33.743 67.485)" fill="#fff" opacity="0.66"/>
        <circle id="Ellipse_6-15" data-name="Ellipse 6" cx="12.654" cy="12.654" r="12.654" transform="translate(67.485 67.485)" fill="#fff"/>
        <circle id="Ellipse_6-16" data-name="Ellipse 6" cx="12.654" cy="12.654" r="12.654" transform="translate(101.228 67.485)" fill="#fff"/>
        <circle id="Ellipse_6-17" data-name="Ellipse 6" cx="12.654" cy="12.654" r="12.654" transform="translate(134.971 67.485)" fill="#fff" opacity="0.66"/>
        <circle id="Ellipse_6-18" data-name="Ellipse 6" cx="12.654" cy="12.654" r="12.654" transform="translate(168.714 67.485)" fill="#fff" opacity="0.328"/>
        <circle id="Ellipse_6-19" data-name="Ellipse 6" cx="12.654" cy="12.654" r="12.654" transform="translate(0 101.228)" fill="#fff" opacity="0.328"/>
        <circle id="Ellipse_6-20" data-name="Ellipse 6" cx="12.654" cy="12.654" r="12.654" transform="translate(33.743 101.228)" fill="#fff" opacity="0.66"/>
        <circle id="Ellipse_6-21" data-name="Ellipse 6" cx="12.654" cy="12.654" r="12.654" transform="translate(67.485 101.228)" fill="#fff"/>
        <circle id="Ellipse_6-22" data-name="Ellipse 6" cx="12.654" cy="12.654" r="12.654" transform="translate(101.228 101.228)" fill="#fff"/>
        <circle id="Ellipse_6-23" data-name="Ellipse 6" cx="12.654" cy="12.654" r="12.654" transform="translate(134.971 101.228)" fill="#fff" opacity="0.66"/>
        <circle id="Ellipse_6-24" data-name="Ellipse 6" cx="12.654" cy="12.654" r="12.654" transform="translate(168.714 101.228)" fill="#fff" opacity="0.328"/>
        <circle id="Ellipse_6-25" data-name="Ellipse 6" cx="12.654" cy="12.654" r="12.654" transform="translate(0 134.971)" fill="#fff" opacity="0.328"/>
        <circle id="Ellipse_6-26" data-name="Ellipse 6" cx="12.654" cy="12.654" r="12.654" transform="translate(33.743 134.971)" fill="#fff" opacity="0.66"/>
        <circle id="Ellipse_6-27" data-name="Ellipse 6" cx="12.654" cy="12.654" r="12.654" transform="translate(67.485 134.971)" fill="#fff" opacity="0.66"/>
        <circle id="Ellipse_6-28" data-name="Ellipse 6" cx="12.654" cy="12.654" r="12.654" transform="translate(101.228 134.971)" fill="#fff" opacity="0.66"/>
        <circle id="Ellipse_6-29" data-name="Ellipse 6" cx="12.654" cy="12.654" r="12.654" transform="translate(134.971 134.971)" fill="#fff" opacity="0.66"/>
        <circle id="Ellipse_6-30" data-name="Ellipse 6" cx="12.654" cy="12.654" r="12.654" transform="translate(168.714 134.971)" fill="#fff" opacity="0.328"/>
        <circle id="Ellipse_6-31" data-name="Ellipse 6" cx="12.654" cy="12.654" r="12.654" transform="translate(0 168.714)" fill="#fff" opacity="0.328"/>
        <circle id="Ellipse_6-32" data-name="Ellipse 6" cx="12.654" cy="12.654" r="12.654" transform="translate(33.743 168.714)" fill="#fff" opacity="0.328"/>
        <circle id="Ellipse_6-33" data-name="Ellipse 6" cx="12.654" cy="12.654" r="12.654" transform="translate(67.485 168.714)" fill="#fff" opacity="0.328"/>
        <circle id="Ellipse_6-34" data-name="Ellipse 6" cx="12.654" cy="12.654" r="12.654" transform="translate(101.228 168.714)" fill="#fff" opacity="0.328"/>
        <circle id="Ellipse_6-35" data-name="Ellipse 6" cx="12.654" cy="12.654" r="12.654" transform="translate(134.971 168.714)" fill="#fff" opacity="0.328"/>
        <circle id="Ellipse_6-36" data-name="Ellipse 6" cx="12.654" cy="12.654" r="12.654" transform="translate(168.714 168.714)" fill="#fff" opacity="0.328"/>
      </g>
    </g>
  </g>
</svg>
