<svg xmlns="http://www.w3.org/2000/svg" xmlns:xlink="http://www.w3.org/1999/xlink" width="922" height="381" viewBox="0 0 922 381">
  <defs>
    <clipPath id="clip-Artboard_5">
      <rect width="922" height="381"/>
    </clipPath>
  </defs>
  <g id="Artboard_5" data-name="Artboard – 5" clip-path="url(#clip-Artboard_5)">
    <g id="Group_47254" data-name="Group 47254" transform="translate(2289 -1097.448)">
      <rect id="Rectangle_165" data-name="Rectangle 165" width="208.273" height="208.273" transform="translate(-2217 1183.448)" fill="#e52620"/>
      <circle id="Ellipse_1-45" data-name="Ellipse 1-45" cx="6.672" cy="6.672" r="6.672" transform="translate(-2110.859 1272.599)" fill="#fff"/>
      <circle id="Ellipse_1-46" data-name="Ellipse 1-46" cx="6.672" cy="6.672" r="6.672" transform="translate(-2110.859 1290.188)" fill="#fff"/>
      <circle id="Ellipse_1-55" data-name="Ellipse 1-55" cx="6.672" cy="6.672" r="6.672" transform="translate(-2128.252 1272.599)" fill="#fff"/>
      <circle id="Ellipse_1-56" data-name="Ellipse 1-56" cx="6.672" cy="6.672" r="6.672" transform="translate(-2128.252 1290.188)" fill="#fff"/>
      <g id="Group_49" data-name="Group 49" transform="translate(-2145.689 1254.255)">
        <circle id="Ellipse_1-34" data-name="Ellipse 1-34" cx="6.627" cy="6.627" r="6.627" fill="#f8c2ad" style="isolation: isolate"/>
        <circle id="Ellipse_1-35" data-name="Ellipse 1-35" cx="6.627" cy="6.627" r="6.627" transform="translate(17.382)" fill="#f8c2ad" style="isolation: isolate"/>
        <circle id="Ellipse_1-36" data-name="Ellipse 1-36" cx="6.627" cy="6.627" r="6.627" transform="translate(34.976)" fill="#f8c2ad" style="isolation: isolate"/>
        <circle id="Ellipse_1-37" data-name="Ellipse 1-37" cx="6.627" cy="6.627" r="6.627" transform="translate(52.398)" fill="#f8c2ad" style="isolation: isolate"/>
        <circle id="Ellipse_1-44" data-name="Ellipse 1-44" cx="6.627" cy="6.627" r="6.627" transform="translate(0 17.986)" fill="#f8c2ad" style="isolation: isolate"/>
        <circle id="Ellipse_1-47" data-name="Ellipse 1-47" cx="6.627" cy="6.627" r="6.627" transform="translate(52.398 17.986)" fill="#f8c2ad" style="isolation: isolate"/>
        <circle id="Ellipse_1-54" data-name="Ellipse 1-54" cx="6.627" cy="6.627" r="6.627" transform="translate(0 36.386)" fill="#f8c2ad" style="isolation: isolate"/>
        <circle id="Ellipse_1-57" data-name="Ellipse 1-57" cx="6.627" cy="6.627" r="6.627" transform="translate(52.398 36.386)" fill="#f8c2ad" style="isolation: isolate"/>
        <circle id="Ellipse_1-64" data-name="Ellipse 1-64" cx="6.627" cy="6.627" r="6.627" transform="translate(0 54.367)" fill="#f8c2ad" style="isolation: isolate"/>
        <circle id="Ellipse_1-65" data-name="Ellipse 1-65" cx="6.627" cy="6.627" r="6.627" transform="translate(17.382 54.367)" fill="#f8c2ad" style="isolation: isolate"/>
        <circle id="Ellipse_1-66" data-name="Ellipse 1-66" cx="6.627" cy="6.627" r="6.627" transform="translate(34.976 54.367)" fill="#f8c2ad" style="isolation: isolate"/>
        <circle id="Ellipse_1-67" data-name="Ellipse 1-67" cx="6.627" cy="6.627" r="6.627" transform="translate(52.398 54.367)" fill="#f8c2ad" style="isolation: isolate"/>
      </g>
      <g id="Group_48" data-name="Group 48" transform="translate(-2161.872 1238.343)">
        <circle id="Ellipse_1-38" data-name="Ellipse 1-38" cx="5.801" cy="5.801" r="5.801" transform="translate(86.376 16.738)" fill="#f4a288" style="isolation: isolate"/>
        <circle id="Ellipse_1-23" data-name="Ellipse 1-23" cx="5.801" cy="5.801" r="5.801" fill="#f4a288" style="isolation: isolate"/>
        <circle id="Ellipse_1-24" data-name="Ellipse 1-24" cx="5.801" cy="5.801" r="5.801" transform="translate(17.009)" fill="#f4a288" style="isolation: isolate"/>
        <circle id="Ellipse_1-25" data-name="Ellipse 1-25" cx="5.801" cy="5.801" r="5.801" transform="translate(34.391)" fill="#f4a288" style="isolation: isolate"/>
        <circle id="Ellipse_1-26" data-name="Ellipse 1-26" cx="5.801" cy="5.801" r="5.801" transform="translate(51.985)" fill="#f4a288" style="isolation: isolate"/>
        <circle id="Ellipse_1-27" data-name="Ellipse 1-27" cx="5.801" cy="5.801" r="5.801" transform="translate(69.407)" fill="#f4a288" style="isolation: isolate"/>
        <circle id="Ellipse_1-28" data-name="Ellipse 1-28" cx="5.801" cy="5.801" r="5.801" transform="translate(86.376)" fill="#f4a288" style="isolation: isolate"/>
        <circle id="Ellipse_1-33" data-name="Ellipse 1-33" cx="5.801" cy="5.801" r="5.801" transform="translate(0 16.738)" fill="#f4a288" style="isolation: isolate"/>
        <circle id="Ellipse_1-43" data-name="Ellipse 1-43" cx="5.801" cy="5.801" r="5.801" transform="translate(0 34.724)" fill="#f4a288" style="isolation: isolate"/>
        <circle id="Ellipse_1-48" data-name="Ellipse 1-48" cx="5.801" cy="5.801" r="5.801" transform="translate(86.376 34.724)" fill="#f4a288" style="isolation: isolate"/>
        <circle id="Ellipse_1-53" data-name="Ellipse 1-53" cx="5.801" cy="5.801" r="5.801" transform="translate(0 53.124)" fill="#f4a288" style="isolation: isolate"/>
        <circle id="Ellipse_1-58" data-name="Ellipse 1-58" cx="5.801" cy="5.801" r="5.801" transform="translate(86.376 53.124)" fill="#f4a288" style="isolation: isolate"/>
        <circle id="Ellipse_1-63" data-name="Ellipse 1-63" cx="5.801" cy="5.801" r="5.801" transform="translate(0 71.105)" fill="#f4a288" style="isolation: isolate"/>
        <circle id="Ellipse_1-68" data-name="Ellipse 1-68" cx="5.801" cy="5.801" r="5.801" transform="translate(86.376 71.105)" fill="#f4a288" style="isolation: isolate"/>
        <circle id="Ellipse_1-73" data-name="Ellipse 1-73" cx="5.801" cy="5.801" r="5.801" transform="translate(0 87.848)" fill="#f4a288" style="isolation: isolate"/>
        <circle id="Ellipse_1-74" data-name="Ellipse 1-74" cx="5.801" cy="5.801" r="5.801" transform="translate(17.009 87.848)" fill="#f4a288" style="isolation: isolate"/>
        <circle id="Ellipse_1-75" data-name="Ellipse 1-75" cx="5.801" cy="5.801" r="5.801" transform="translate(34.391 87.848)" fill="#f4a288" style="isolation: isolate"/>
        <circle id="Ellipse_1-76" data-name="Ellipse 1-76" cx="5.801" cy="5.801" r="5.801" transform="translate(51.985 87.848)" fill="#f4a288" style="isolation: isolate"/>
        <circle id="Ellipse_1-77" data-name="Ellipse 1-77" cx="5.801" cy="5.801" r="5.801" transform="translate(69.407 87.848)" fill="#f4a288" style="isolation: isolate"/>
        <circle id="Ellipse_1-78" data-name="Ellipse 1-78" cx="5.801" cy="5.801" r="5.801" transform="translate(86.376 87.848)" fill="#f4a288" style="isolation: isolate"/>
      </g>
      <g id="Group_47" data-name="Group 47" transform="translate(-2177.845 1222.91)">
        <circle id="Ellipse_1-12" data-name="Ellipse 1-12" cx="5.388" cy="5.388" r="5.388" fill="#f3997d" style="isolation: isolate"/>
        <circle id="Ellipse_1-13" data-name="Ellipse 1-13" cx="5.388" cy="5.388" r="5.388" transform="translate(16.385)" fill="#f3997d" style="isolation: isolate"/>
        <circle id="Ellipse_1-14" data-name="Ellipse 1-14" cx="5.388" cy="5.388" r="5.388" transform="translate(33.394)" fill="#f3997d" style="isolation: isolate"/>
        <circle id="Ellipse_1-15" data-name="Ellipse 1-15" cx="5.388" cy="5.388" r="5.388" transform="translate(50.777)" fill="#f3997d" style="isolation: isolate"/>
        <circle id="Ellipse_1-16" data-name="Ellipse 1-16" cx="5.388" cy="5.388" r="5.388" transform="translate(68.37)" fill="#f3997d" style="isolation: isolate"/>
        <circle id="Ellipse_1-17" data-name="Ellipse 1-17" cx="5.388" cy="5.388" r="5.388" transform="translate(85.792)" fill="#f3997d" style="isolation: isolate"/>
        <circle id="Ellipse_1-18" data-name="Ellipse 1-18" cx="5.388" cy="5.388" r="5.388" transform="translate(102.762)" fill="#f3997d" style="isolation: isolate"/>
        <circle id="Ellipse_1-19" data-name="Ellipse 1-19" cx="5.388" cy="5.388" r="5.388" transform="translate(119.147)" fill="#f3997d" style="isolation: isolate"/>
        <circle id="Ellipse_1-22" data-name="Ellipse 1-22" cx="5.388" cy="5.388" r="5.388" transform="translate(0 15.846)" fill="#f3997d" style="isolation: isolate"/>
        <circle id="Ellipse_1-29" data-name="Ellipse 1-29" cx="5.388" cy="5.388" r="5.388" transform="translate(119.147 15.846)" fill="#f3997d" style="isolation: isolate"/>
        <circle id="Ellipse_1-32" data-name="Ellipse 1-32" cx="5.388" cy="5.388" r="5.388" transform="translate(0 32.584)" fill="#f3997d" style="isolation: isolate"/>
        <circle id="Ellipse_1-39" data-name="Ellipse 1-39" cx="5.388" cy="5.388" r="5.388" transform="translate(119.147 32.584)" fill="#f3997d" style="isolation: isolate"/>
        <circle id="Ellipse_1-42" data-name="Ellipse 1-42" cx="5.388" cy="5.388" r="5.388" transform="translate(0 50.57)" fill="#f3997d" style="isolation: isolate"/>
        <circle id="Ellipse_1-49" data-name="Ellipse 1-49" cx="5.388" cy="5.388" r="5.388" transform="translate(119.147 50.57)" fill="#f3997d" style="isolation: isolate"/>
        <circle id="Ellipse_1-52" data-name="Ellipse 1-52" cx="5.388" cy="5.388" r="5.388" transform="translate(0 68.969)" fill="#f3997d" style="isolation: isolate"/>
        <circle id="Ellipse_1-59" data-name="Ellipse 1-59" cx="5.388" cy="5.388" r="5.388" transform="translate(119.147 68.969)" fill="#f3997d" style="isolation: isolate"/>
        <circle id="Ellipse_1-62" data-name="Ellipse 1-62" cx="5.388" cy="5.388" r="5.388" transform="translate(0 86.951)" fill="#f3997d" style="isolation: isolate"/>
        <circle id="Ellipse_1-69" data-name="Ellipse 1-69" cx="5.388" cy="5.388" r="5.388" transform="translate(119.147 86.951)" fill="#f3997d" style="isolation: isolate"/>
        <circle id="Ellipse_1-72" data-name="Ellipse 1-72" cx="5.388" cy="5.388" r="5.388" transform="translate(0 103.693)" fill="#f3997d" style="isolation: isolate"/>
        <circle id="Ellipse_1-79" data-name="Ellipse 1-79" cx="5.388" cy="5.388" r="5.388" transform="translate(119.147 103.693)" fill="#f3997d" style="isolation: isolate"/>
        <circle id="Ellipse_1-82" data-name="Ellipse 1-82" cx="5.388" cy="5.388" r="5.388" transform="translate(0 119.192)" fill="#f3997d" style="isolation: isolate"/>
        <circle id="Ellipse_1-83" data-name="Ellipse 1-83" cx="5.388" cy="5.388" r="5.388" transform="translate(16.385 119.192)" fill="#f3997d" style="isolation: isolate"/>
        <circle id="Ellipse_1-84" data-name="Ellipse 1-84" cx="5.388" cy="5.388" r="5.388" transform="translate(33.394 119.192)" fill="#f3997d" style="isolation: isolate"/>
        <circle id="Ellipse_1-85" data-name="Ellipse 1-85" cx="5.388" cy="5.388" r="5.388" transform="translate(50.777 119.192)" fill="#f3997d" style="isolation: isolate"/>
        <circle id="Ellipse_1-86" data-name="Ellipse 1-86" cx="5.388" cy="5.388" r="5.388" transform="translate(68.37 119.192)" fill="#f3997d" style="isolation: isolate"/>
        <circle id="Ellipse_1-87" data-name="Ellipse 1-87" cx="5.388" cy="5.388" r="5.388" transform="translate(85.792 119.192)" fill="#f3997d" style="isolation: isolate"/>
        <circle id="Ellipse_1-88" data-name="Ellipse 1-88" cx="5.388" cy="5.388" r="5.388" transform="translate(102.762 119.192)" fill="#f3997d" style="isolation: isolate"/>
        <circle id="Ellipse_1-89" data-name="Ellipse 1-89" cx="5.388" cy="5.388" r="5.388" transform="translate(119.147 119.192)" fill="#f3997d" style="isolation: isolate"/>
      </g>
      <g id="Group_46" data-name="Group 46" transform="translate(-2193.238 1208.041)">
        <circle id="Ellipse_1-91" data-name="Ellipse 1-91" cx="4.97" cy="4.97" r="4.97" transform="translate(0 149.148)" fill="#ec6449" style="isolation: isolate"/>
        <circle id="Ellipse_1" data-name="Ellipse 1" cx="4.97" cy="4.97" r="4.97" fill="#ec6449" style="isolation: isolate"/>
        <circle id="Ellipse_1-2" data-name="Ellipse 1-2" cx="4.97" cy="4.97" r="4.97" transform="translate(15.812)" fill="#ec6449" style="isolation: isolate"/>
        <circle id="Ellipse_1-3" data-name="Ellipse 1-3" cx="4.97" cy="4.97" r="4.97" transform="translate(32.196)" fill="#ec6449" style="isolation: isolate"/>
        <circle id="Ellipse_1-4" data-name="Ellipse 1-4" cx="4.97" cy="4.97" r="4.97" transform="translate(49.206)" fill="#ec6449" style="isolation: isolate"/>
        <circle id="Ellipse_1-5" data-name="Ellipse 1-5" cx="4.97" cy="4.97" r="4.97" transform="translate(66.588)" fill="#ec6449" style="isolation: isolate"/>
        <circle id="Ellipse_1-6" data-name="Ellipse 1-6" cx="4.97" cy="4.97" r="4.97" transform="translate(84.181)" fill="#ec6449" style="isolation: isolate"/>
        <circle id="Ellipse_1-7" data-name="Ellipse 1-7" cx="4.97" cy="4.97" r="4.97" transform="translate(101.604)" fill="#ec6449" style="isolation: isolate"/>
        <circle id="Ellipse_1-8" data-name="Ellipse 1-8" cx="4.97" cy="4.97" r="4.97" transform="translate(118.573)" fill="#ec6449" style="isolation: isolate"/>
        <circle id="Ellipse_1-9" data-name="Ellipse 1-9" cx="4.97" cy="4.97" r="4.97" transform="translate(134.958)" fill="#ec6449" style="isolation: isolate"/>
        <circle id="Ellipse_1-11" data-name="Ellipse 1-11" cx="4.97" cy="4.97" r="4.97" transform="translate(0 15.287)" fill="#ec6449" style="isolation: isolate"/>
        <circle id="Ellipse_1-20" data-name="Ellipse 1-20" cx="4.97" cy="4.97" r="4.97" transform="translate(150.81 15.287)" fill="#ec6449" style="isolation: isolate"/>
        <circle id="Ellipse_1-21" data-name="Ellipse 1-21" cx="4.97" cy="4.97" r="4.97" transform="translate(0 31.134)" fill="#ec6449" style="isolation: isolate"/>
        <circle id="Ellipse_1-30" data-name="Ellipse 1-30" cx="4.97" cy="4.97" r="4.97" transform="translate(150.81 31.134)" fill="#ec6449" style="isolation: isolate"/>
        <circle id="Ellipse_1-31" data-name="Ellipse 1-31" cx="4.97" cy="4.97" r="4.97" transform="translate(0 47.871)" fill="#ec6449" style="isolation: isolate"/>
        <circle id="Ellipse_1-40" data-name="Ellipse 1-40" cx="4.97" cy="4.97" r="4.97" transform="translate(150.81 47.871)" fill="#ec6449" style="isolation: isolate"/>
        <circle id="Ellipse_1-41" data-name="Ellipse 1-41" cx="4.97" cy="4.97" r="4.97" transform="translate(0 65.857)" fill="#ec6449" style="isolation: isolate"/>
        <circle id="Ellipse_1-50" data-name="Ellipse 1-50" cx="4.97" cy="4.97" r="4.97" transform="translate(150.81 65.857)" fill="#ec6449" style="isolation: isolate"/>
        <circle id="Ellipse_1-51" data-name="Ellipse 1-51" cx="4.97" cy="4.97" r="4.97" transform="translate(0 84.257)" fill="#ec6449" style="isolation: isolate"/>
        <circle id="Ellipse_1-60" data-name="Ellipse 1-60" cx="4.97" cy="4.97" r="4.97" transform="translate(150.81 84.257)" fill="#ec6449" style="isolation: isolate"/>
        <circle id="Ellipse_1-61" data-name="Ellipse 1-61" cx="4.97" cy="4.97" r="4.97" transform="translate(0 102.238)" fill="#ec6449" style="isolation: isolate"/>
        <circle id="Ellipse_1-70" data-name="Ellipse 1-70" cx="4.97" cy="4.97" r="4.97" transform="translate(150.81 102.238)" fill="#ec6449" style="isolation: isolate"/>
        <circle id="Ellipse_1-71" data-name="Ellipse 1-71" cx="4.97" cy="4.97" r="4.97" transform="translate(0 118.981)" fill="#ec6449" style="isolation: isolate"/>
        <circle id="Ellipse_1-80" data-name="Ellipse 1-80" cx="4.97" cy="4.97" r="4.97" transform="translate(150.81 118.981)" fill="#ec6449" style="isolation: isolate"/>
        <circle id="Ellipse_1-81" data-name="Ellipse 1-81" cx="4.97" cy="4.97" r="4.97" transform="translate(0 134.479)" fill="#ec6449" style="isolation: isolate"/>
        <circle id="Ellipse_1-90" data-name="Ellipse 1-90" cx="4.97" cy="4.97" r="4.97" transform="translate(150.81 134.479)" fill="#ec6449" style="isolation: isolate"/>
        <circle id="Ellipse_1-92" data-name="Ellipse 1-92" cx="4.97" cy="4.97" r="4.97" transform="translate(15.812 149.148)" fill="#ec6449" style="isolation: isolate"/>
        <circle id="Ellipse_1-93" data-name="Ellipse 1-93" cx="4.97" cy="4.97" r="4.97" transform="translate(32.196 149.148)" fill="#ec6449" style="isolation: isolate"/>
        <circle id="Ellipse_1-94" data-name="Ellipse 1-94" cx="4.97" cy="4.97" r="4.97" transform="translate(49.206 149.148)" fill="#ec6449" style="isolation: isolate"/>
        <circle id="Ellipse_1-95" data-name="Ellipse 1-95" cx="4.97" cy="4.97" r="4.97" transform="translate(66.588 149.148)" fill="#ec6449" style="isolation: isolate"/>
        <circle id="Ellipse_1-96" data-name="Ellipse 1-96" cx="4.97" cy="4.97" r="4.97" transform="translate(84.181 149.148)" fill="#ec6449" style="isolation: isolate"/>
        <circle id="Ellipse_1-97" data-name="Ellipse 1-97" cx="4.97" cy="4.97" r="4.97" transform="translate(101.604 149.148)" fill="#ec6449" style="isolation: isolate"/>
        <circle id="Ellipse_1-98" data-name="Ellipse 1-98" cx="4.97" cy="4.97" r="4.97" transform="translate(118.573 149.148)" fill="#ec6449" style="isolation: isolate"/>
        <circle id="Ellipse_1-99" data-name="Ellipse 1-99" cx="4.97" cy="4.97" r="4.97" transform="translate(134.958 149.148)" fill="#ec6449" style="isolation: isolate"/>
        <circle id="Ellipse_1-100" data-name="Ellipse 1-100" cx="4.97" cy="4.97" r="4.97" transform="translate(150.81 149.148)" fill="#ec6449" style="isolation: isolate"/>
        <circle id="Ellipse_1-10" data-name="Ellipse 1-10" cx="4.97" cy="4.97" r="4.97" transform="translate(150.81)" fill="#ec6449" style="isolation: isolate"/>
      </g>
      <path id="Path_36" data-name="Path 36" d="M750,636.85v-1.919c5.58-.413,6.174-.826,6.174-6.586V601.96c0-5.811-.594-6.224-6.174-6.586V593.36h18.661v2.014c-5.539.363-6.128.776-6.128,6.586v26.385c0,5.76.594,6.173,6.128,6.586v1.919Z" transform="translate(-2688.247 724.643)" fill="#1d1d1b"/>
      <path id="Path_37" data-name="Path 37" d="M881.654,595.374c-3.792.181-5.438.957-5.76,4.029a107.526,107.526,0,0,0-.413,11.385V637.54h-2.2L843.243,602.7h-.1L843.1,619.02a109.792,109.792,0,0,0,.458,11.249c.322,3.479,1.873,4.3,6.586,4.668v1.918h-16.37v-1.918c3.933-.277,5.67-1.143,5.987-4.482a86.263,86.263,0,0,0,.549-11.435V604.654c0-4.889-.227-5.257-1.46-6.858-1.42-1.647-2.885-2.2-6.083-2.422V593.36h10.519l29.13,33.017h.181V610.8a105.475,105.475,0,0,0-.438-11.179c-.317-3.152-1.918-4.028-6.813-4.25V593.36h16.325Z" transform="translate(-2729.339 724.643)" fill="#1d1d1b"/>
      <path id="Path_38" data-name="Path 38" d="M999.156,602.831c-1.188-4.3-3.293-9.144-9.063-9.144-5.126,0-7.553,3.61-7.553,7.271,0,4.708,3.157,6.994,8.736,9.693,5.806,2.835,11.843,5.992,11.843,13.354,0,7.18-6.128,12.9-15.459,12.9a21.057,21.057,0,0,1-6.843-1.1,21.6,21.6,0,0,1-3.384-1.42,100.236,100.236,0,0,1-1.873-10.655l2.054-.594c1.143,4.255,4.481,11.249,11.48,11.249,4.985,0,7.911-3.061,7.911-7.865s-3.661-7.13-8.872-9.875c-4.753-2.382-11.294-5.72-11.294-13.092,0-6.677,5.393-12.211,14.311-12.211a29.251,29.251,0,0,1,8.872,1.6c.277,2.377.594,5.121,1.194,9.512Z" transform="translate(-2800.229 725.646)" fill="#1d1d1b"/>
      <path id="Path_39" data-name="Path 39" d="M1113.508,602.482c-.73-3.338-1.46-5.121-2.331-6.264-1.144-1.556-2.332-2.054-7.553-2.054h-4.668v32.594c0,5.307.594,6.083,7.09,6.5v1.918h-20.258v-1.918c6.264-.413,6.859-1.143,6.859-6.5V594.164h-3.978c-5.947,0-7.361.64-8.278,2.054-.872,1.143-1.465,3.112-2.332,6.264H1076c.323-4.341.64-8.777.775-12.483h1.465c1.007,1.692,1.874,1.692,3.887,1.692h27.7a3.717,3.717,0,0,0,3.564-1.692h1.466c0,3.066.362,8.233.685,12.256Z" transform="translate(-2850.093 726.311)" fill="#1d1d1b"/>
      <path id="Path_40" data-name="Path 40" d="M1200.28,636.85v-1.919c5.579-.413,6.174-.826,6.174-6.586V601.96c0-5.811-.594-6.224-6.174-6.586V593.36h18.661v2.014c-5.539.363-6.128.776-6.128,6.586v26.385c0,5.76.594,6.173,6.128,6.586v1.919Z" transform="translate(-2911.794 724.643)" fill="#1d1d1b"/>
      <path id="Path_41" data-name="Path 41" d="M1320.519,602.482c-.73-3.338-1.465-5.121-2.331-6.264-1.144-1.556-2.332-2.054-7.553-2.054h-4.662v32.594c0,5.307.594,6.083,7.089,6.5v1.918H1292.8v-1.918c6.264-.413,6.859-1.143,6.859-6.5V594.164h-3.978c-5.942,0-7.362.64-8.273,2.054-.871,1.143-1.465,3.112-2.337,6.264H1283c.317-4.341.639-8.777.775-12.483h1.465c1.007,1.692,1.874,1.692,3.888,1.692h27.694a3.726,3.726,0,0,0,3.57-1.692h1.461c0,3.066.368,8.233.689,12.256Z" transform="translate(-2952.861 726.311)" fill="#1d1d1b"/>
      <path id="Path_42" data-name="Path 42" d="M1454.96,595.374c-3.979.227-5.715,1.234-5.993,3.978a100.721,100.721,0,0,0-.408,10.609v5.257c0,7.916-1.284,13.721-5.262,17.835-3.2,3.248-7.865,4.713-12.588,4.713-4.209,0-8.187-.916-11.249-3.248-4.21-3.112-6.224-8.187-6.224-16.234V602.323c0-6.173-.595-6.491-5.987-6.949V593.36h18.339v2.014c-5.353.317-5.947.73-5.947,6.949v14.6c0,11.022,4.617,17.06,12.94,17.06,9.7,0,13.032-7.774,13.032-18.888v-5.136a64.351,64.351,0,0,0-.544-10.791c-.367-2.563-1.923-3.479-6.632-3.8V593.36h16.522Z" transform="translate(-3014.547 724.643)" fill="#1d1d1b"/>
      <path id="Path_43" data-name="Path 43" d="M1585.214,602.482c-.735-3.338-1.465-5.121-2.336-6.264-1.143-1.556-2.332-2.054-7.553-2.054h-4.668v32.594c0,5.307.6,6.083,7.09,6.5v1.918h-20.257v-1.918c6.264-.413,6.858-1.143,6.858-6.5V594.164h-3.978c-5.947,0-7.362.64-8.278,2.054-.866,1.143-1.46,3.112-2.332,6.264h-2.06c.322-4.341.64-8.777.781-12.483h1.46c1.006,1.692,1.878,1.692,3.887,1.692h27.695a3.716,3.716,0,0,0,3.564-1.692h1.465c0,3.066.368,8.233.686,12.256Z" transform="translate(-3084.275 726.311)" fill="#1d1d1b"/>
      <path id="Path_44" data-name="Path 44" d="M1707.937,626.034c-.458,2.518-1.782,8.686-2.376,10.836H1672v-1.918c6.173-.458,6.768-1.1,6.768-6.587V602.182c0-6.128-.594-6.31-5.9-6.768V593.4h31.008c.09,1.737.362,6.173.639,9.925l-2.1.272a18.537,18.537,0,0,0-2.241-5.806c-1.007-1.465-2.88-1.918-7.593-1.918H1687.5c-2.241,0-2.377.181-2.377,2.191v15h6.264c6.128,0,6.586-.549,7.458-5.076h2.054v13.107h-2.054c-.962-4.894-1.465-5.262-7.458-5.262h-6.264v12.3c0,3.157.367,4.668,1.646,5.489s3.888.78,6.994.78c4.985,0,7.05-.458,8.6-2.2a23.229,23.229,0,0,0,3.474-6.45Z" transform="translate(-3145.985 724.623)" fill="#1d1d1b"/>
      <path id="Path_45" data-name="Path 45" d="M824.02,441.458c-1.591,5.539-4.849,14.693-6.913,18.43-3.495.8-13.979,3.333-22.8,3.333-30.66,0-44.312-20.252-44.312-38.6,0-24.467,19.779-40.51,47.333-40.51,10.166,0,18.747,2.78,22.085,3.333.952,6.6,1.823,11.581,2.518,18.193l-3.57.791c-3.258-12.865-11.2-17.951-24.17-17.951-20.257,0-31.058,16.365-31.058,33.682,0,21.924,13.424,36.537,32.091,36.537,12.311,0,19.064-6.591,25.338-18.586Z" transform="translate(-2688.247 828.528)" fill="#1d1d1b"/>
      <path id="Path_46" data-name="Path 46" d="M955.7,461.368v-3.339c7.387-1.032,8.419-2.064,6.828-6.752-1.667-4.607-3.812-10.4-6.355-17.075H930.678c-2.014,5.322-3.575,9.849-5.086,14.456-2.518,7.05-1.586,8.419,7.387,9.371v3.339H906.77v-3.339c7.7-1.193,9.371-1.984,13.6-12.312l24.94-60.606,4.134-1.032c7.624,20.57,15.247,41.224,23.113,61.638,3.812,10.247,5.478,11.516,13.187,12.311v3.339Zm-11.677-61.321h-.237c-3.817,9.607-7.553,19.537-11.123,28.913h21.763Z" transform="translate(-2766.077 828.543)" fill="#1d1d1b"/>
      <path id="Path_47" data-name="Path 47" d="M1157.471,391.044c-6.591.317-9.451,1.667-10.01,6.989a187.5,187.5,0,0,0-.715,19.779v46.466h-3.812l-52.187-60.525h-.156l-.081,28.354c0,10.725.5,16.209.8,19.542.554,6.042,3.253,7.467,11.435,8.1v3.339h-28.45v-3.339c6.828-.5,9.849-1.984,10.4-7.785.5-3.651.957-9.134.957-19.859v-24.94c0-8.5-.4-9.134-2.518-11.914-2.463-2.86-5.005-3.812-10.574-4.21V387.55h18.268l50.6,57.348h.317V417.813a192.508,192.508,0,0,0-.8-19.381c-.559-5.479-3.338-6.989-11.838-7.387V387.55h28.359Z" transform="translate(-2848.386 826.82)" fill="#1d1d1b"/>
      <path id="Path_48" data-name="Path 48" d="M1296.918,384.07c20.887,0,39.779,15.252,39.779,38.526,0,25.1-18.827,40.585-41.386,40.585-22.321,0-40.112-16.441-40.112-38.838,0-21.053,15.806-40.283,41.623-40.283Zm-2.624,4.366c-13.344,0-26.053,10.887-26.053,32.886,0,21.37,12.629,37.493,29.708,37.493,13.344,0,25.575-10.645,25.575-33.123,0-24.386-13.5-37.262-29.15-37.262Z" transform="translate(-2939.06 828.553)" fill="#1d1d1b"/>
      <path id="Path_49" data-name="Path 49" d="M1474.786,422.521c12.156,1.586,21.446,6.672,21.446,18.349,0,7.785-4.29,13.817-11.279,17.624-6.118,3.253-14.221,4.607-23.667,4.607H1434v-3.338c10.166-.715,10.962-1.511,10.962-11.279V402.324c0-9.93-.559-10.645-9.93-11.279V387.55h31.456c9.063,0,14.214,1.349,18.188,4.028a16.011,16.011,0,0,1,6.672,13.268c0,11.038-9.613,15.57-16.521,17.236Zm-13.66-1.511c12.865,0,18.268-5.005,18.268-14.6,0-8.339-4.688-14.93-15.489-14.93-2.86,0-5.539.634-6.591,1.43-1.037.715-1.354,2.065-1.354,5.64V421.01Zm-5.167,27.191c0,8.656,2.306,10.881,9.773,10.8,9.29-.156,17.709-4.925,17.709-16.919,0-11.677-8.1-16.994-22.558-16.994h-4.924Z" transform="translate(-3027.828 826.82)" fill="#1d1d1b"/>
      <path id="Path_50" data-name="Path 50" d="M1623.3,384.07c20.887,0,39.78,15.252,39.78,38.526,0,25.1-18.828,40.585-41.386,40.585-22.322,0-40.112-16.441-40.112-38.838,0-21.053,15.806-40.283,41.623-40.283Zm-2.624,4.366c-13.343,0-26.053,10.887-26.053,32.886,0,21.37,12.629,37.493,29.709,37.493,13.344,0,25.575-10.645,25.575-33.123,0-24.386-13.5-37.262-29.15-37.262Z" transform="translate(-3101.096 828.553)" fill="#1d1d1b"/>
    </g>
  </g>
</svg>
