<svg id="Icon_ionic-ios-arrow-dropdown" data-name="Icon ionic-ios-arrow-dropdown" xmlns="http://www.w3.org/2000/svg" width="27.357" height="27.357" viewBox="0 0 27.357 27.357">
  <path id="Path_47564" data-name="Path 47564" d="M10.353,14.789a1.274,1.274,0,0,0,0,1.8l6.293,6.274A1.268,1.268,0,0,0,18.4,22.9l6.2-6.182a1.267,1.267,0,1,0-1.789-1.8l-5.327,5.248-5.333-5.386A1.268,1.268,0,0,0,10.353,14.789Z" transform="translate(-3.803 -4.089)" fill="#aaa"/>
  <path id="Path_47565" data-name="Path 47565" d="M3.375,17.053A13.678,13.678,0,1,0,17.053,3.375,13.676,13.676,0,0,0,3.375,17.053ZM25.234,8.873A11.569,11.569,0,1,1,8.873,25.234,11.569,11.569,0,1,1,25.234,8.873Z" transform="translate(-3.375 -3.375)" fill="#aaa"/>
</svg>
