<svg xmlns="http://www.w3.org/2000/svg" width="28.357" height="28.357" viewBox="0 0 28.357 28.357">
  <g id="Icon_ionic-ios-checkmark-circle-outline" data-name="Icon ionic-ios-checkmark-circle-outline" transform="translate(0.5 0.5)">
    <path id="Path_47567" data-name="Path 47567" d="M24.52,13.475l-1.157-1.19a.249.249,0,0,0-.184-.079h0a.239.239,0,0,0-.184.079l-8.023,8.082-2.92-2.92a.254.254,0,0,0-.368,0l-1.171,1.171a.262.262,0,0,0,0,.375L14.2,22.675a1.165,1.165,0,0,0,.769.375,1.22,1.22,0,0,0,.763-.362h.007l8.792-8.838A.281.281,0,0,0,24.52,13.475Z" transform="translate(-3.832 -3.947)" fill="#1da312" stroke="#1da312" stroke-width="1"/>
    <path id="Path_47568" data-name="Path 47568" d="M17.053,5.216A11.832,11.832,0,1,1,8.682,8.682a11.759,11.759,0,0,1,8.371-3.466m0-1.841A13.678,13.678,0,1,0,30.732,17.053,13.676,13.676,0,0,0,17.053,3.375Z" transform="translate(-3.375 -3.375)" fill="#1da312" stroke="#1da312" stroke-width="1"/>
  </g>
</svg>
