<svg xmlns="http://www.w3.org/2000/svg" width="21.551" height="26.939" viewBox="0 0 21.551 26.939">
  <path id="Path_47577" data-name="Path 47577" d="M25.551,11.348a1.765,1.765,0,0,0-.081-.364v-.121a1.441,1.441,0,0,0-.256-.377h0L17.133,2.4h0a1.441,1.441,0,0,0-.377-.256h-.121A1.185,1.185,0,0,0,16.19,2H8.041A4.041,4.041,0,0,0,4,6.041V24.9a4.041,4.041,0,0,0,4.041,4.041H21.51A4.041,4.041,0,0,0,25.551,24.9V11.348ZM17.47,6.593l3.489,3.489H18.816A1.347,1.347,0,0,1,17.47,8.735ZM22.857,24.9a1.347,1.347,0,0,1-1.347,1.347H8.041A1.347,1.347,0,0,1,6.694,24.9V6.041A1.347,1.347,0,0,1,8.041,4.694h6.735V8.735a4.041,4.041,0,0,0,4.041,4.041h4.041Z" transform="translate(-4 -2)"/>
</svg>
