<svg id="Component_4_1" data-name="Component 4 – 1" xmlns="http://www.w3.org/2000/svg" width="34.494" height="34.5" viewBox="0 0 34.494 34.5">
  <path id="Path_47571" data-name="Path 47571" d="M18.77,34.75A5.33,5.33,0,0,1,15,33.21L1.79,20A5.39,5.39,0,0,1,.26,15.87l.57-9.2A6.3,6.3,0,0,1,6.67.83l9.2-.57A5.44,5.44,0,0,1,20,1.79L33.21,15a5.79,5.79,0,0,1-.31,8.16h0L23.13,32.9A6.16,6.16,0,0,1,18.77,34.75Zm-2.54-32H16l-9.21.56a3.83,3.83,0,0,0-3.5,3.5L2.76,16a2.85,2.85,0,0,0,.8,2.24l13.18,13.2a2.9,2.9,0,0,0,2.19.81,3.69,3.69,0,0,0,2.43-1.12l9.78-9.77a3.3,3.3,0,0,0,.3-4.62L18.26,3.56a2.81,2.81,0,0,0-2.03-.81ZM32,22.25Z" transform="translate(-0.248 -0.25)" fill="#a8a8a8"/>
  <path id="Path_47572" data-name="Path 47572" d="M11.48,15.73a4.242,4.242,0,1,1,.01,0Zm0-6a1.75,1.75,0,0,0-1.24,3,1.8,1.8,0,0,0,2.48,0,1.76,1.76,0,0,0,0-2.48h0a1.74,1.74,0,0,0-1.24-.52Z" transform="translate(-0.248 -0.25)" fill="#a8a8a8"/>
</svg>
