<svg xmlns="http://www.w3.org/2000/svg" width="23.976" height="26.64" viewBox="0 0 23.976 26.64">
  <path id="Path_47578" data-name="Path 47578" d="M12.324,23.312a1.332,1.332,0,0,0,1.332-1.332V13.988a1.332,1.332,0,0,0-2.664,0V21.98A1.332,1.332,0,0,0,12.324,23.312ZM25.644,7.328H20.316V6a4,4,0,0,0-4-4H13.656a4,4,0,0,0-4,4V7.328H4.332a1.332,1.332,0,0,0,0,2.664H5.664V24.644a4,4,0,0,0,4,4H20.316a4,4,0,0,0,4-4V9.992h1.332a1.332,1.332,0,1,0,0-2.664ZM12.324,6a1.332,1.332,0,0,1,1.332-1.332H16.32A1.332,1.332,0,0,1,17.652,6V7.328H12.324Zm9.324,18.648a1.332,1.332,0,0,1-1.332,1.332H9.66a1.332,1.332,0,0,1-1.332-1.332V9.992h13.32Zm-4-1.332a1.332,1.332,0,0,0,1.332-1.332V13.988a1.332,1.332,0,1,0-2.664,0V21.98A1.332,1.332,0,0,0,17.652,23.312Z" transform="translate(-3 -2)" fill="#e52620"/>
</svg>
