<svg fill="#707070" xmlns="http://www.w3.org/2000/svg" width="18.009" height="18.009" viewBox="0 0 18.009 18.009">
  <g id="Icon_feather-search" data-name="Icon feather-search" transform="translate(-3 -3)">
    <path id="Path_47569" data-name="Path 47569" d="M11.1,3A8.1,8.1,0,1,1,5.374,5.374,8.051,8.051,0,0,1,11.1,3Zm0,14.407a6.3,6.3,0,1,0-6.3-6.3A6.31,6.31,0,0,0,11.1,17.407Z" transform="translate(0 0)"/>
    <path id="Path_47570" data-name="Path 47570" d="M28.292,29.193a.9.9,0,0,1-.637-.264l-3.917-3.917a.9.9,0,1,1,1.273-1.273l3.917,3.917a.9.9,0,0,1-.637,1.537Z" transform="translate(-8.184 -8.184)"/>
  </g>
</svg>
