<svg xmlns="http://www.w3.org/2000/svg" viewBox="0 0 72 72"><defs><style>.cls-1{fill:#e51e20;}.cls-2,.cls-3,.cls-4{fill:#fff;}.cls-2,.cls-3{isolation:isolate;}.cls-2{opacity:0.33;}.cls-3{opacity:0.66;}</style></defs><g id="Layer_2" data-name="Layer 2"><g id="Layer_1-2" data-name="Layer 1"><g id="Group_43" data-name="Group 43"><path id="Path_35" data-name="Path 35" class="cls-1" d="M61.46,10.54a36,36,0,1,1-50.92,0A36,36,0,0,1,61.46,10.54Z"/><g id="Group_42" data-name="Group 42"><circle id="Ellipse_6" data-name="Ellipse 6" class="cls-2" cx="36.71" cy="8.42" r="3"/><circle id="Ellipse_6-2" data-name="Ellipse 6-2" class="cls-2" cx="42.36" cy="14.08" r="3"/><circle id="Ellipse_6-3" data-name="Ellipse 6-3" class="cls-2" cx="48.02" cy="19.74" r="3"/><circle id="Ellipse_6-4" data-name="Ellipse 6-4" class="cls-2" cx="53.68" cy="25.39" r="3"/><circle id="Ellipse_6-5" data-name="Ellipse 6-5" class="cls-2" cx="59.33" cy="31.05" r="3"/><circle id="Ellipse_6-6" data-name="Ellipse 6-6" class="cls-2" cx="64.99" cy="36.71" r="3"/><circle id="Ellipse_6-7" data-name="Ellipse 6-7" class="cls-2" cx="31.05" cy="14.08" r="3"/><circle id="Ellipse_6-8" data-name="Ellipse 6-8" class="cls-3" cx="36.71" cy="19.74" r="3"/><circle id="Ellipse_6-9" data-name="Ellipse 6-9" class="cls-3" cx="42.36" cy="25.39" r="3"/><circle id="Ellipse_6-10" data-name="Ellipse 6-10" class="cls-3" cx="48.02" cy="31.05" r="3"/><circle id="Ellipse_6-11" data-name="Ellipse 6-11" class="cls-3" cx="53.68" cy="36.71" r="3"/><circle id="Ellipse_6-12" data-name="Ellipse 6-12" class="cls-2" cx="59.33" cy="42.36" r="3"/><circle id="Ellipse_6-13" data-name="Ellipse 6-13" class="cls-2" cx="25.39" cy="19.74" r="3"/><circle id="Ellipse_6-14" data-name="Ellipse 6-14" class="cls-3" cx="31.05" cy="25.39" r="3"/><circle id="Ellipse_6-15" data-name="Ellipse 6-15" class="cls-4" cx="36.71" cy="31.05" r="3"/><circle id="Ellipse_6-16" data-name="Ellipse 6-16" class="cls-4" cx="42.36" cy="36.71" r="3"/><circle id="Ellipse_6-17" data-name="Ellipse 6-17" class="cls-3" cx="48.02" cy="42.36" r="3"/><circle id="Ellipse_6-18" data-name="Ellipse 6-18" class="cls-2" cx="53.68" cy="48.02" r="3"/><circle id="Ellipse_6-19" data-name="Ellipse 6-19" class="cls-2" cx="19.74" cy="25.39" r="3"/><circle id="Ellipse_6-20" data-name="Ellipse 6-20" class="cls-3" cx="25.39" cy="31.05" r="3"/><circle id="Ellipse_6-21" data-name="Ellipse 6-21" class="cls-4" cx="31.05" cy="36.71" r="3"/><circle id="Ellipse_6-22" data-name="Ellipse 6-22" class="cls-4" cx="36.71" cy="42.36" r="3"/><circle id="Ellipse_6-23" data-name="Ellipse 6-23" class="cls-3" cx="42.36" cy="48.02" r="3"/><circle id="Ellipse_6-24" data-name="Ellipse 6-24" class="cls-2" cx="48.02" cy="53.68" r="3"/><circle id="Ellipse_6-25" data-name="Ellipse 6-25" class="cls-2" cx="14.08" cy="31.05" r="3"/><circle id="Ellipse_6-26" data-name="Ellipse 6-26" class="cls-3" cx="19.74" cy="36.71" r="3"/><circle id="Ellipse_6-27" data-name="Ellipse 6-27" class="cls-3" cx="25.39" cy="42.36" r="3"/><circle id="Ellipse_6-28" data-name="Ellipse 6-28" class="cls-3" cx="31.05" cy="48.02" r="3"/><circle id="Ellipse_6-29" data-name="Ellipse 6-29" class="cls-3" cx="36.71" cy="53.68" r="3"/><circle id="Ellipse_6-30" data-name="Ellipse 6-30" class="cls-2" cx="42.36" cy="59.33" r="3"/><circle id="Ellipse_6-31" data-name="Ellipse 6-31" class="cls-2" cx="8.42" cy="36.71" r="3"/><circle id="Ellipse_6-32" data-name="Ellipse 6-32" class="cls-2" cx="14.08" cy="42.36" r="3"/><circle id="Ellipse_6-33" data-name="Ellipse 6-33" class="cls-2" cx="19.74" cy="48.02" r="3"/><circle id="Ellipse_6-34" data-name="Ellipse 6-34" class="cls-2" cx="25.39" cy="53.68" r="3"/><circle id="Ellipse_6-35" data-name="Ellipse 6-35" class="cls-2" cx="31.05" cy="59.33" r="3"/><circle id="Ellipse_6-36" data-name="Ellipse 6-36" class="cls-2" cx="36.71" cy="64.99" r="3"/></g></g></g></g></svg>