<svg xmlns="http://www.w3.org/2000/svg" width="53" height="53" viewBox="0 0 53 53">
  <g id="Group_47316" data-name="Group 47316" transform="translate(-1564 -1684)">
    <g id="Rectangle_48742" data-name="Rectangle 48742" transform="translate(1564 1684)" fill="#efefef" stroke="#d3d3d3" stroke-width="2">
      <rect width="53" height="53" rx="8" stroke="none"/>
      <rect x="1" y="1" width="51" height="51" rx="7" fill="none"/>
    </g>
    <path id="Path_47576" data-name="Path 47576" d="M15.55,12.989a1.308,1.308,0,0,0-1.8,0l-2.53,2.53a1.27,1.27,0,0,0,1.8,1.8l.367-.38v3.277a1.265,1.265,0,0,0,2.53,0V16.936l.367.38a1.27,1.27,0,1,0,1.8-1.8ZM23.509,6.3H15.563l-.4-1.265A3.8,3.8,0,0,0,11.565,2.5H5.8A3.8,3.8,0,0,0,2,6.3V22.743a3.8,3.8,0,0,0,3.8,3.8H23.509a3.8,3.8,0,0,0,3.8-3.8V10.091A3.8,3.8,0,0,0,23.509,6.3Zm1.265,16.448a1.265,1.265,0,0,1-1.265,1.265H5.8A1.265,1.265,0,0,1,4.53,22.743V6.3A1.265,1.265,0,0,1,5.8,5.03h5.769a1.265,1.265,0,0,1,1.2.86l.683,2.075a1.265,1.265,0,0,0,1.2.86h8.856a1.265,1.265,0,0,1,1.265,1.265Z" transform="translate(1576.348 1695.98)" fill="#393939"/>
  </g>
</svg>
